<svg width="135" height="40" viewBox="0 0 135 40" fill="none" xmlns="http://www.w3.org/2000/svg">
<g clip-path="url(#clip0_506_213)">
<path d="M29.3782 26.1225C29.3844 26.1505 29.389 26.1777 29.3929 26.2064C29.5445 27.314 29.4702 28.7926 27.4498 30.1122C25.3691 31.4715 23.0462 31.2132 21.9679 29.7184C20.2654 27.3589 21.0784 21.809 22.2139 17.912C22.4088 17.2437 23.1282 16.7793 23.8499 16.8618C28.1916 17.3578 34.1067 18.6185 35.4812 20.524C36.92 22.5177 35.9314 24.5718 34.0077 25.8281C31.9091 27.1992 30.4364 26.6561 29.365 26.0629L29.3782 26.1232V26.1225Z" fill="white"/>
<path d="M20 40C14.6581 40 9.63568 38.0202 5.85783 34.4265C2.07998 30.832 0 26.0533 0 20.9707C0 16.1965 1.86572 11.6312 5.25449 8.11478C5.5724 7.78507 6.10999 7.76299 6.45653 8.06547C6.80306 8.36795 6.82627 8.87945 6.50835 9.20917C3.40888 12.4261 1.70173 16.6035 1.70173 20.9707C1.70173 30.5707 9.91027 38.3808 20 38.3808C30.0897 38.3808 38.2983 30.5707 38.2983 20.9707C38.2983 20.5232 38.6788 20.1611 39.1491 20.1611C39.6194 20.1611 40 20.5232 40 20.9707C40 26.0533 37.92 30.832 34.1422 34.4265C30.3643 38.0202 25.3419 40 20 40Z" fill="#DBA314"/>
<path d="M32.8506 16.9228C29.42 16.9228 25.1433 15.9506 24.0201 15.6797C23.1167 15.4619 22.4801 14.5964 22.5706 13.7088C22.7261 12.1854 23.6713 4.47459 26.9819 2.31231C28.8005 1.12445 31.3183 1.817 32.8382 3.92335C34.1184 5.69704 33.9157 7.102 33.4771 8.10807C34.683 8.06612 36.0808 8.41718 37.3408 10.1629C38.4996 11.7688 38.7084 13.53 37.8993 14.8746C37.5976 15.375 37.1622 15.8144 36.6037 16.1795C35.7675 16.7256 34.3953 16.9228 32.8514 16.9228H32.8506ZM28.9436 2.54635C28.4199 2.54635 27.9117 2.68618 27.4631 2.97983C25.2864 4.40173 23.8623 9.43282 23.4176 13.7876C23.3673 14.2785 23.7316 14.7752 24.229 14.8952C28.8972 16.0198 34.3845 16.6468 36.121 15.5127C36.5735 15.2168 36.9231 14.8672 37.1606 14.4727C37.8034 13.4049 37.6085 11.9646 36.6393 10.6214C35.3707 8.86318 34.0503 8.79621 32.8135 8.98609L31.8752 9.1296L32.4221 8.31635C32.4321 8.30163 32.4422 8.28544 32.4515 8.26925C32.9952 7.31543 33.3828 6.10844 32.1359 4.38186C31.2842 3.2021 30.076 2.54708 28.9428 2.54708L28.9436 2.54635Z" fill="white"/>
<path d="M30.3712 10.1741C30.3712 10.1741 24.8607 12.8773 23.439 14.4707L30.3712 10.1741Z" fill="white"/>
<path d="M24.6636 31.2177C23.4298 31.2177 22.3144 30.7246 21.6198 29.762C19.3472 26.612 21.3769 19.0934 21.807 17.6185C22.0576 16.7596 22.9788 16.1693 23.904 16.2746C25.5717 16.4652 33.9852 17.5449 35.8354 20.109C36.585 21.1474 36.7845 22.2816 36.414 23.3892C36.0899 24.3585 35.3218 25.277 34.252 25.9762C32.4165 27.175 30.9809 27.0249 29.8701 26.573C29.8995 27.6615 29.5584 29.0422 27.6942 30.2602C26.7111 30.9027 25.6498 31.217 24.6643 31.217L24.6636 31.2177ZM23.6874 17.0724C23.2155 17.0724 22.7553 17.3955 22.6269 17.8348C21.3978 22.0512 20.8269 27.2332 22.3214 29.3042C23.2952 30.654 25.3984 30.7784 27.2123 29.5934C29.027 28.4078 29.1213 27.1486 28.9744 26.0733C28.972 26.0549 28.9682 26.0365 28.9643 26.0188L28.7609 25.0731L29.5823 25.5279C30.6653 26.1278 31.9222 26.5164 33.7701 25.3094C34.6852 24.7118 35.3357 23.9427 35.6034 23.1441C35.8958 22.2713 35.7372 21.4043 35.1339 20.5675C33.9411 18.9152 28.5837 17.6244 23.8026 17.0783C23.764 17.0739 23.7261 17.0716 23.6874 17.0716V17.0724Z" fill="white"/>
<path d="M20.0742 14.9563C20.0022 14.9563 19.9303 14.9526 19.8584 14.9438C18.1907 14.7532 9.77713 13.6735 7.92688 11.1094C7.17735 10.0709 6.97778 8.93681 7.34829 7.82918C7.6724 6.8599 8.4405 5.94141 9.51027 5.24224C11.345 4.04335 12.7815 4.19348 13.8922 4.64537C13.8628 3.55687 14.204 2.17619 16.0681 0.958157C17.1418 0.256777 18.3477 -0.07809 19.4631 0.0153783C20.5878 0.109582 21.5392 0.621082 22.1418 1.45714C24.4144 4.60636 22.3846 12.1258 21.9553 13.6007C21.7241 14.3933 20.9235 14.9563 20.0742 14.9563ZM12.2771 5.12154C11.6196 5.12154 10.8732 5.33424 9.99217 5.90977C9.0771 6.50737 8.42657 7.27646 8.15894 8.07499C7.86655 8.94785 8.02512 9.81482 8.62846 10.6516C9.82122 12.3039 15.1786 13.5948 19.9597 14.1409C20.4694 14.199 20.997 13.8597 21.1354 13.385C22.3645 9.16864 22.9354 3.98741 21.441 1.91639C20.9846 1.28346 20.2559 0.895599 19.3896 0.822738C18.4707 0.745461 17.462 1.03102 16.5508 1.62642C14.7361 2.81207 14.6418 4.07131 14.7887 5.14656C14.7911 5.16496 14.7949 5.18336 14.798 5.20103L14.9999 6.14601L14.18 5.69192C13.6138 5.3784 12.9988 5.12228 12.2779 5.12228L12.2771 5.12154Z" fill="white"/>
<path d="M16.0103 7.63501C16.0103 7.63501 20.1323 12.042 20.8571 14.0144L16.0103 7.63501Z" fill="white"/>
<path d="M14.8176 29.4845C13.4121 29.4845 11.9448 28.708 10.9245 27.295C9.64434 25.5213 9.84701 24.1163 10.2864 23.1103C9.0789 23.1515 7.68271 22.8011 6.42266 21.0554C5.68782 20.0376 5.31808 18.9174 5.3815 17.9025C5.45421 16.7419 6.06916 15.752 7.16059 15.0389C9.85551 13.2784 18.1151 15.1463 19.7434 15.5386C20.6468 15.7564 21.2834 16.6219 21.1929 17.5095C21.0374 19.033 20.0922 26.7437 16.7816 28.906C16.1829 29.2976 15.5076 29.4845 14.8176 29.4845ZM11.8868 22.0895L11.3407 22.902C11.3298 22.9182 11.3198 22.9336 11.3105 22.9506C10.7675 23.9029 10.38 25.1106 11.6261 26.8372C12.8714 28.5631 14.881 29.1658 16.2997 28.2392C18.4763 26.8173 19.9004 21.7862 20.3451 17.4315C20.3954 16.9406 20.0311 16.4438 19.5337 16.3239C14.8656 15.1993 9.37826 14.5723 7.64171 15.7064C6.76223 16.2805 6.28806 17.0356 6.23082 17.9504C6.179 18.7864 6.49537 19.727 7.12423 20.5969C8.3928 22.3544 9.71241 22.4214 10.95 22.2322L11.8875 22.0887L11.8868 22.0895Z" fill="white"/>
<path d="M13.3911 21.0444C13.3911 21.0444 18.9016 18.3412 20.3234 16.7478L13.3911 21.0444Z" fill="white"/>
<path d="M20.0063 25.1077C20.0063 25.1077 19.058 32.4092 13.2876 35.8013C13.2876 35.8013 14.0294 37.1187 15.267 37.0907C16.5046 37.0628 20.4534 31.7785 20.0241 25.5264L20.0063 25.1077Z" fill="white"/>
</g>
<path d="M57.4893 27H54.7891V19.2139H52.3486V17.0059H59.9229V19.2139H57.4893V27ZM64.6807 19.1182C65.4326 19.1182 66.082 19.2503 66.6289 19.5146C67.1758 19.7744 67.5973 20.1663 67.8936 20.6904C68.1898 21.2145 68.3379 21.8708 68.3379 22.6592V23.8486H63.5596C63.5824 24.2542 63.7327 24.5869 64.0107 24.8467C64.2933 25.1064 64.708 25.2363 65.2549 25.2363C65.738 25.2363 66.18 25.1885 66.5811 25.0928C66.9867 24.9971 67.4036 24.849 67.832 24.6484V26.5693C67.4583 26.7653 67.0505 26.9089 66.6084 27C66.1663 27.0911 65.6081 27.1367 64.9336 27.1367C64.1543 27.1367 63.457 26.9977 62.8418 26.7197C62.2266 26.4417 61.7412 26.0111 61.3857 25.4277C61.0348 24.8444 60.8594 24.0947 60.8594 23.1787C60.8594 22.249 61.0189 21.4857 61.3379 20.8887C61.6569 20.2871 62.1035 19.8428 62.6777 19.5557C63.252 19.264 63.9196 19.1182 64.6807 19.1182ZM64.7764 20.9365C64.4619 20.9365 64.1976 21.0368 63.9834 21.2373C63.7738 21.4333 63.6507 21.7432 63.6143 22.167H65.9111C65.9066 21.9391 65.861 21.7318 65.7744 21.5449C65.6878 21.3581 65.5602 21.21 65.3916 21.1006C65.2275 20.9912 65.0225 20.9365 64.7764 20.9365ZM73.6426 25.0244C73.8841 25.0244 74.1051 24.9993 74.3057 24.9492C74.5062 24.8991 74.7158 24.8353 74.9346 24.7578V26.7061C74.6429 26.8337 74.333 26.9362 74.0049 27.0137C73.6813 27.0957 73.2666 27.1367 72.7607 27.1367C72.2594 27.1367 71.8174 27.0592 71.4346 26.9043C71.0518 26.7448 70.7533 26.4714 70.5391 26.084C70.3294 25.6921 70.2246 25.1475 70.2246 24.4502V21.2578H69.2881V20.1709L70.4775 19.3301L71.168 17.7031H72.918V19.2549H74.8184V21.2578H72.918V24.2725C72.918 24.5231 72.9818 24.7122 73.1094 24.8398C73.237 24.9629 73.4147 25.0244 73.6426 25.0244ZM78.9609 16.3633V17.874C78.9609 18.4482 78.9473 18.9313 78.9199 19.3232C78.8971 19.7106 78.8743 20.0068 78.8516 20.2119H78.9746C79.1432 19.943 79.3346 19.7288 79.5488 19.5693C79.763 19.4098 80 19.2959 80.2598 19.2275C80.5195 19.1546 80.8021 19.1182 81.1074 19.1182C81.6178 19.1182 82.0781 19.2161 82.4883 19.4121C82.903 19.6081 83.2334 19.9157 83.4795 20.335C83.7256 20.7497 83.8486 21.292 83.8486 21.9619V27H81.1621V22.7754C81.1621 22.2604 81.0869 21.873 80.9365 21.6133C80.7861 21.349 80.5537 21.2168 80.2393 21.2168C79.9157 21.2168 79.6605 21.3102 79.4736 21.4971C79.2868 21.6794 79.1546 21.9482 79.0771 22.3037C78.9997 22.6546 78.9609 23.0853 78.9609 23.5957V27H76.2881V16.3633H78.9609ZM89.1533 19.1182C89.9053 19.1182 90.5547 19.2503 91.1016 19.5146C91.6484 19.7744 92.07 20.1663 92.3662 20.6904C92.6624 21.2145 92.8105 21.8708 92.8105 22.6592V23.8486H88.0322C88.055 24.2542 88.2054 24.5869 88.4834 24.8467C88.766 25.1064 89.1807 25.2363 89.7275 25.2363C90.2106 25.2363 90.6527 25.1885 91.0537 25.0928C91.4593 24.9971 91.8763 24.849 92.3047 24.6484V26.5693C91.931 26.7653 91.5231 26.9089 91.0811 27C90.639 27.0911 90.0807 27.1367 89.4062 27.1367C88.627 27.1367 87.9297 26.9977 87.3145 26.7197C86.6992 26.4417 86.2139 26.0111 85.8584 25.4277C85.5075 24.8444 85.332 24.0947 85.332 23.1787C85.332 22.249 85.4915 21.4857 85.8105 20.8887C86.1296 20.2871 86.5762 19.8428 87.1504 19.5557C87.7246 19.264 88.3923 19.1182 89.1533 19.1182ZM89.249 20.9365C88.9346 20.9365 88.6702 21.0368 88.4561 21.2373C88.2464 21.4333 88.1234 21.7432 88.0869 22.167H90.3838C90.3792 21.9391 90.3337 21.7318 90.2471 21.5449C90.1605 21.3581 90.0329 21.21 89.8643 21.1006C89.7002 20.9912 89.4951 20.9365 89.249 20.9365ZM98.9971 19.1182C99.1429 19.1182 99.2956 19.1296 99.4551 19.1523C99.6146 19.1706 99.7331 19.1865 99.8105 19.2002L99.5713 21.7227C99.4847 21.6999 99.373 21.6816 99.2363 21.668C99.0996 21.6497 98.9082 21.6406 98.6621 21.6406C98.4935 21.6406 98.3135 21.6566 98.1221 21.6885C97.9307 21.7204 97.7484 21.7887 97.5752 21.8936C97.4066 21.9938 97.2676 22.1488 97.1582 22.3584C97.0488 22.5635 96.9941 22.8415 96.9941 23.1924V27H94.3213V19.2549H96.3105L96.7275 20.4922H96.8574C96.9987 20.237 97.1787 20.0068 97.3975 19.8018C97.6208 19.5921 97.8691 19.4258 98.1426 19.3027C98.4206 19.1797 98.7054 19.1182 98.9971 19.1182ZM101.055 27V17.0059H103.755V24.8193H107.604V27H101.055ZM116.579 19.2549V27H114.562L114.228 26.0361H114.07C113.911 26.2959 113.708 26.5078 113.462 26.6719C113.22 26.8314 112.951 26.9476 112.655 27.0205C112.359 27.098 112.051 27.1367 111.732 27.1367C111.227 27.1367 110.769 27.0387 110.358 26.8428C109.953 26.6468 109.629 26.3392 109.388 25.9199C109.151 25.5007 109.032 24.9606 109.032 24.2998V19.2549H111.705V23.4863C111.705 23.9876 111.776 24.3704 111.917 24.6348C112.063 24.8945 112.3 25.0244 112.628 25.0244C112.965 25.0244 113.225 24.9333 113.407 24.751C113.594 24.5687 113.724 24.2998 113.797 23.9443C113.87 23.5889 113.906 23.1559 113.906 22.6455V19.2549H116.579ZM121.952 27.1367C121.168 27.1367 120.487 26.9977 119.908 26.7197C119.329 26.4372 118.881 26.0042 118.562 25.4209C118.247 24.833 118.09 24.0811 118.09 23.165C118.09 22.2262 118.265 21.4583 118.616 20.8613C118.972 20.2643 119.457 19.8245 120.072 19.542C120.688 19.2594 121.385 19.1182 122.164 19.1182C122.638 19.1182 123.087 19.1706 123.511 19.2754C123.939 19.3802 124.336 19.5238 124.7 19.7061L123.914 21.6816C123.595 21.5404 123.297 21.4287 123.019 21.3467C122.745 21.2601 122.46 21.2168 122.164 21.2168C121.895 21.2168 121.658 21.2874 121.453 21.4287C121.248 21.57 121.089 21.7842 120.975 22.0713C120.861 22.3538 120.804 22.7139 120.804 23.1514C120.804 23.598 120.861 23.958 120.975 24.2314C121.093 24.5049 121.255 24.7031 121.46 24.8262C121.67 24.9492 121.909 25.0107 122.178 25.0107C122.565 25.0107 122.95 24.9515 123.333 24.833C123.72 24.71 124.087 24.5413 124.434 24.3271V26.4531C124.115 26.6628 123.755 26.8291 123.354 26.9521C122.952 27.0752 122.485 27.1367 121.952 27.1367ZM128.658 16.3633V20.5469C128.658 20.8613 128.645 21.2122 128.617 21.5996C128.594 21.9824 128.558 22.3311 128.508 22.6455H128.562C128.667 22.486 128.799 22.2855 128.959 22.0439C129.118 21.8024 129.262 21.6019 129.39 21.4424L131.126 19.2549H134.106L131.42 22.5498L134.277 27H131.222L129.526 24.2246L128.658 24.8877V27H125.972V16.3633H128.658Z" fill="white"/>
<defs>
<clipPath id="clip0_506_213">
<rect width="40" height="40" fill="white"/>
</clipPath>
</defs>
</svg>
