<svg width="404" height="404" viewBox="0 0 404 404" fill="none" xmlns="http://www.w3.org/2000/svg">
<path d="M117.586 92.75V94.1719H111.992V98.4062H110.273V94.1719H104.711V92.75H117.586ZM116.383 85.9375V87.3125H112.023C112.188 88.7109 114.023 90.1719 116.852 90.5156L116.211 91.8906C113.875 91.5938 112.062 90.5625 111.148 89.2031C110.219 90.5781 108.391 91.5938 106.039 91.8906L105.414 90.5156C108.234 90.1719 110.086 88.7344 110.258 87.3125H105.898V85.9375H110.273V84.2812H111.992V85.9375H116.383ZM123.617 87.2812C123.617 88.8438 124.82 90.2969 127.039 90.9062L126.242 92.25C124.594 91.8047 123.414 90.8594 122.773 89.6406C122.148 90.9688 120.969 92.0078 119.289 92.5156L118.461 91.1562C120.695 90.5312 121.883 88.9531 121.883 87.2812V87.1406H118.93V85.7656H121.883V84.2031H123.633V85.7656H126.57V87.1406H123.617V87.2812ZM130.367 84.2656V92.5781H128.633V89.4688H126.195V88.0625H128.633V84.2656H130.367ZM130.367 93.2188V98.2188H120.977V93.2188H130.367ZM122.711 94.6094V96.8125H128.664V94.6094H122.711ZM145.242 91.5625V92.9531H132.367V91.5625H145.242ZM143.789 96.7031V98.1094H133.961V94H135.695V96.7031H143.789ZM138.789 84.7188C141.867 84.7188 143.867 85.7969 143.883 87.5781C143.867 89.375 141.867 90.4688 138.789 90.4688C135.711 90.4688 133.695 89.375 133.695 87.5781C133.695 85.7969 135.711 84.7188 138.789 84.7188ZM138.789 86.1094C136.742 86.1094 135.492 86.6406 135.508 87.5781C135.492 88.5312 136.742 89.0625 138.789 89.0469C140.852 89.0625 142.086 88.5312 142.086 87.5781C142.086 86.6406 140.852 86.1094 138.789 86.1094ZM162.18 84.2656V98.3906H160.508V91.1562H159.008V97.7031H157.367V84.5156H159.008V89.7188H160.508V84.2656H162.18ZM155.977 85.7969V94.75H150.43V85.7969H155.977ZM152.055 87.1719V93.375H154.352V87.1719H152.055ZM169.164 87.6562C169.148 90.25 170.508 92.8438 172.805 93.8281L171.773 95.2188C170.148 94.4688 168.953 92.9688 168.305 91.125C167.656 93.1172 166.445 94.7422 164.727 95.5469L163.664 94.0938C166.023 93.0781 167.398 90.375 167.398 87.6562V85.4062H169.164V87.6562ZM175.57 84.2656V98.4062H173.82V84.2656H175.57ZM193.273 84.2656V92.6562H191.539V89.2031H189.133V87.7812H191.539V84.2656H193.273ZM188.492 93.0156C191.492 93.0156 193.32 94 193.32 95.7031C193.32 97.4062 191.492 98.3906 188.492 98.3906C185.508 98.3906 183.68 97.4062 183.695 95.7031C183.68 94 185.508 93.0156 188.492 93.0156ZM188.492 94.3438C186.523 94.3438 185.414 94.8125 185.414 95.7031C185.414 96.5781 186.523 97.0469 188.492 97.0469C190.461 97.0469 191.586 96.5781 191.586 95.7031C191.586 94.8125 190.461 94.3438 188.492 94.3438ZM186.633 86.6875C186.633 88.4062 187.773 90.1406 189.961 90.875L189.086 92.25C187.516 91.7188 186.398 90.6406 185.789 89.3125C185.164 90.8203 183.984 92.0234 182.305 92.625L181.398 91.25C183.664 90.4688 184.867 88.5625 184.867 86.7031V86.5938H181.93V85.1875H189.555V86.5938H186.633V86.6875ZM206.414 84.2656V87.6719H208.383V89.125H206.414V92.5H204.68V84.2656H206.414ZM202.477 85.0938C202.477 88.7969 200.07 91.3438 195.852 92.4219L195.133 91.0938C198.438 90.2422 200.312 88.5547 200.617 86.5H195.836V85.0938H202.477ZM206.414 93.0938V98.3906H204.68V94.4844H197.008V93.0938H206.414ZM221.289 84.2656V98.3906H219.617V84.2656H221.289ZM218.383 84.5156V97.7031H216.727V90.9844H215.383C215.219 93.7344 214.039 95.4375 212.289 95.4219C210.445 95.4375 209.242 93.4844 209.242 90.375C209.242 87.2656 210.445 85.3438 212.289 85.3438C214 85.3438 215.164 86.9375 215.367 89.5781H216.727V84.5156H218.383ZM212.289 86.9844C211.398 86.9688 210.836 88.1719 210.852 90.375C210.836 92.5781 211.398 93.7812 212.289 93.7656C213.227 93.7812 213.789 92.5781 213.789 90.375C213.789 88.1719 213.227 86.9688 212.289 86.9844ZM232.086 87.1406C232.086 88.8906 233.289 90.6094 235.539 91.3125L234.648 92.6719C233.047 92.1484 231.883 91.0938 231.242 89.75C230.602 91.2109 229.406 92.375 227.727 92.9531L226.836 91.5781C229.102 90.8281 230.32 89 230.336 87.1406V86.7344H227.289V85.3438H235.055V86.7344H232.086V87.1406ZM238.492 84.2812V94.5312H236.742V84.2812H238.492ZM238.883 96.7031V98.1094H229.148V93.5938H230.898V96.7031H238.883ZM252.633 84.2656V93.1406H250.977V89.2969H249.602V92.6719H247.977V84.5469H249.602V87.8906H250.977V84.2656H252.633ZM247.508 85.7969V87.1562H240.477V85.7969H243.148V84.3906H244.867V85.7969H247.508ZM244.008 87.7344C245.805 87.7344 247.07 88.7031 247.086 90.1719C247.07 91.6406 245.805 92.6094 244.008 92.6094C242.242 92.6094 240.961 91.6406 240.977 90.1719C240.961 88.7031 242.242 87.7344 244.008 87.7344ZM244.008 88.9844C243.133 88.9844 242.523 89.4375 242.523 90.1719C242.523 90.9062 243.117 91.3594 244.008 91.3594C244.898 91.3594 245.508 90.9062 245.508 90.1719C245.508 89.4375 244.898 88.9844 244.008 88.9844ZM247.867 93.3125C250.883 93.3125 252.695 94.2344 252.711 95.8594C252.695 97.4531 250.883 98.375 247.867 98.375C244.852 98.375 243.023 97.4531 243.023 95.8594C243.023 94.2344 244.852 93.3125 247.867 93.3125ZM247.867 94.6406C245.852 94.625 244.758 95.0312 244.758 95.8594C244.758 96.6406 245.852 97.0469 247.867 97.0469C249.867 97.0469 250.961 96.6406 250.961 95.8594C250.961 95.0312 249.867 94.625 247.867 94.6406ZM266.18 84.2812V92.4219H264.43V84.2812H266.18ZM254.414 90.8281C255.547 90.8281 256.852 90.8203 258.211 90.7812V89.5312H255.633V84.9375H262.43V86.3281H257.383V88.1719H262.539V89.5312H259.945V90.7188C261.133 90.6562 262.328 90.5625 263.445 90.4219L263.539 91.625C260.508 92.1406 257.164 92.1875 254.648 92.2188L254.414 90.8281ZM258.398 93.0156V94.25H264.461V93.0156H266.18V98.2188H256.664V93.0156H258.398ZM258.398 96.8125H264.461V95.5469H258.398V96.8125ZM279.992 84.2656V98.3906H278.273V84.2656H279.992ZM270.742 85.6406V93.3594C272.727 93.3281 274.836 93.1484 277.008 92.7188L277.227 94.1719C274.742 94.6875 272.43 94.8438 270.242 94.8438H269.023V85.6406H270.742ZM293.102 84.2656V89.625H295.273V91.0469H293.102V98.4062H291.367V84.2656H293.102ZM289.227 85.6094V87.0156H284.352V93.5C286.547 93.5 288.281 93.3906 290.227 93.0469L290.43 94.5156C288.242 94.8906 286.336 94.9531 283.789 94.9531H282.617V85.6094H289.227ZM297.586 97.125C296.914 97.125 296.367 96.5781 296.367 95.9062C296.367 95.25 296.914 94.7031 297.586 94.7031C298.227 94.7031 298.789 95.25 298.789 95.9062C298.789 96.5781 298.227 97.125 297.586 97.125Z" fill="white"/>
<rect y="153" width="404" height="125" fill="url(#paint0_linear_572_250)"/>
<g filter="url(#filter0_d_572_250)">
<path d="M135.545 206.096L133.277 208.256H124.961L122.657 206.096L123.413 205.412H134.825L135.545 206.096ZM122.045 206.708L124.241 208.832V216.788L122.045 218.984L121.253 218.192V207.392L122.045 206.708ZM136.985 207.392V218.192L136.193 218.984L133.997 216.788V208.832L136.193 206.708L136.985 207.392ZM134.825 233.276H123.413L122.657 232.592L124.961 230.432H133.277L135.545 232.592L134.825 233.276ZM121.253 231.296V220.388L122.045 219.596L124.241 221.828V229.856L122.045 231.98L121.253 231.296ZM136.193 231.98L133.997 229.856V221.828L136.193 219.596L136.985 220.388V231.296L136.193 231.98ZM131.261 212.828L132.449 215.564L128.705 223.088L125.897 224.204L125.609 223.16L130.433 213.152L131.261 212.828ZM143.402 209.696V212.792L141.242 214.844H138.902V213.224L142.538 209.696H143.402ZM147.398 206.384V218.192L146.606 218.984L144.41 216.788V207.824L146.606 205.7L147.398 206.384ZM146.606 232.916L144.41 230.792V221.828L146.606 219.596L147.398 220.388V232.232L146.606 232.916ZM163.002 209.048H165.198V213.044H163.002L162.21 212.288V209.732L163.002 209.048ZM163.002 225.248H165.198V229.244H163.002L162.21 228.488V225.932L163.002 225.248ZM194.291 206.096L192.023 208.256H183.707L181.403 206.096L182.159 205.412H193.571L194.291 206.096ZM180.791 206.708L182.987 208.832V216.788L180.791 218.984L179.999 218.192V207.392L180.791 206.708ZM195.731 207.392V218.192L194.939 218.984L192.743 216.788V208.832L194.939 206.708L195.731 207.392ZM193.571 233.276H182.159L181.403 232.592L183.707 230.432H192.023L194.291 232.592L193.571 233.276ZM179.999 231.296V220.388L180.791 219.596L182.987 221.828V229.856L180.791 231.98L179.999 231.296ZM194.939 231.98L192.743 229.856V221.828L194.939 219.596L195.731 220.388V231.296L194.939 231.98ZM190.007 212.828L191.195 215.564L187.451 223.088L184.643 224.204L184.355 223.16L189.179 213.152L190.007 212.828ZM213.627 206.096L211.359 208.256H203.043L200.739 206.096L201.495 205.412H212.907L213.627 206.096ZM200.127 206.708L202.323 208.832V216.788L200.127 218.984L199.335 218.192V207.392L200.127 206.708ZM215.067 207.392V218.192L214.275 218.984L212.079 216.788V208.832L214.275 206.708L215.067 207.392ZM212.907 233.276H201.495L200.739 232.592L203.043 230.432H211.359L213.627 232.592L212.907 233.276ZM199.335 231.296V220.388L200.127 219.596L202.323 221.828V229.856L200.127 231.98L199.335 231.296ZM214.275 231.98L212.079 229.856V221.828L214.275 219.596L215.067 220.388V231.296L214.275 231.98ZM209.343 212.828L210.531 215.564L206.787 223.088L203.979 224.204L203.691 223.16L208.515 213.152L209.343 212.828ZM230.678 209.048H232.874V213.044H230.678L229.886 212.288V209.732L230.678 209.048ZM230.678 225.248H232.874V229.244H230.678L229.886 228.488V225.932L230.678 225.248ZM261.967 206.096L259.699 208.256H251.383L249.079 206.096L249.835 205.412H261.247L261.967 206.096ZM248.467 206.708L250.663 208.832V216.788L248.467 218.984L247.675 218.192V207.392L248.467 206.708ZM263.407 207.392V218.192L262.615 218.984L260.419 216.788V208.832L262.615 206.708L263.407 207.392ZM261.247 233.276H249.835L249.079 232.592L251.383 230.432H259.699L261.967 232.592L261.247 233.276ZM247.675 231.296V220.388L248.467 219.596L250.663 221.828V229.856L248.467 231.98L247.675 231.296ZM262.615 231.98L260.419 229.856V221.828L262.615 219.596L263.407 220.388V231.296L262.615 231.98ZM257.683 212.828L258.871 215.564L255.127 223.088L252.319 224.204L252.031 223.16L256.855 213.152L257.683 212.828ZM281.303 206.096L279.035 208.256H270.719L268.415 206.096L269.171 205.412H280.583L281.303 206.096ZM267.803 206.708L269.999 208.832V216.788L267.803 218.984L267.011 218.192V207.392L267.803 206.708ZM282.743 207.392V218.192L281.951 218.984L279.755 216.788V208.832L281.951 206.708L282.743 207.392ZM280.583 233.276H269.171L268.415 232.592L270.719 230.432H279.035L281.303 232.592L280.583 233.276ZM267.011 231.296V220.388L267.803 219.596L269.999 221.828V229.856L267.803 231.98L267.011 231.296ZM281.951 231.98L279.755 229.856V221.828L281.951 219.596L282.743 220.388V231.296L281.951 231.98ZM277.019 212.828L278.207 215.564L274.463 223.088L271.655 224.204L271.367 223.16L276.191 213.152L277.019 212.828Z" fill="#FF6363"/>
</g>
<g filter="url(#filter1_d_572_250)">
<path d="M165.82 186V184.715L169.32 181.338C170.318 180.34 170.838 179.752 170.838 178.918C170.838 178.002 170.113 177.414 169.143 177.414C168.117 177.414 167.461 178.057 167.475 179.055H165.779C165.766 177.182 167.174 175.965 169.156 175.965C171.18 175.965 172.547 177.168 172.547 178.836C172.547 179.957 172 180.859 170.059 182.691L168.295 184.441V184.51H172.697V186H165.82ZM177.906 186.137C175.527 186.137 174.105 184.291 174.105 181.051C174.105 177.824 175.527 175.965 177.906 175.965C180.271 175.965 181.707 177.824 181.707 181.051C181.707 184.291 180.285 186.137 177.906 186.137ZM177.906 184.646C179.15 184.646 179.916 183.43 179.916 181.051C179.916 178.686 179.137 177.441 177.906 177.441C176.676 177.441 175.896 178.686 175.896 181.051C175.896 183.43 176.662 184.646 177.906 184.646ZM183.197 186V184.715L186.697 181.338C187.695 180.34 188.215 179.752 188.215 178.918C188.215 178.002 187.49 177.414 186.52 177.414C185.494 177.414 184.838 178.057 184.852 179.055H183.156C183.143 177.182 184.551 175.965 186.533 175.965C188.557 175.965 189.924 177.168 189.924 178.836C189.924 179.957 189.377 180.859 187.436 182.691L185.672 184.441V184.51H190.074V186H183.197ZM195.146 186.137C193.164 186.137 191.715 184.961 191.66 183.32H193.396C193.451 184.127 194.203 184.701 195.146 184.701C196.254 184.701 197.047 183.895 197.047 182.801C197.047 181.666 196.227 180.859 195.092 180.859C194.326 180.846 193.766 181.119 193.451 181.707H191.797L192.398 176.102H198.25V177.592H193.861L193.561 180.217H193.656C194.039 179.779 194.764 179.465 195.57 179.465C197.416 179.465 198.77 180.846 198.77 182.746C198.77 184.729 197.279 186.137 195.146 186.137ZM201.039 186.109C200.451 186.109 199.973 185.631 199.973 185.043C199.973 184.469 200.451 183.99 201.039 183.99C201.6 183.99 202.092 184.469 202.092 185.043C202.092 185.631 201.6 186.109 201.039 186.109ZM207.014 186.137C204.635 186.137 203.213 184.291 203.213 181.051C203.213 177.824 204.635 175.965 207.014 175.965C209.379 175.965 210.814 177.824 210.814 181.051C210.814 184.291 209.393 186.137 207.014 186.137ZM207.014 184.646C208.258 184.646 209.023 183.43 209.023 181.051C209.023 178.686 208.244 177.441 207.014 177.441C205.783 177.441 205.004 178.686 205.004 181.051C205.004 183.43 205.77 184.646 207.014 184.646ZM212.4 186L216.693 177.66V177.592H211.717V176.102H218.539V177.619L214.246 186H212.4ZM219.359 186.109C218.771 186.109 218.293 185.631 218.293 185.043C218.293 184.469 218.771 183.99 219.359 183.99C219.92 183.99 220.412 184.469 220.412 185.043C220.412 185.631 219.92 186.109 219.359 186.109ZM222.08 186V184.715L225.58 181.338C226.578 180.34 227.098 179.752 227.098 178.918C227.098 178.002 226.373 177.414 225.402 177.414C224.377 177.414 223.721 178.057 223.734 179.055H222.039C222.025 177.182 223.434 175.965 225.416 175.965C227.439 175.965 228.807 177.168 228.807 178.836C228.807 179.957 228.26 180.859 226.318 182.691L224.555 184.441V184.51H228.957V186H222.08ZM234.111 186.137C231.992 186.137 230.488 184.988 230.447 183.32H232.238C232.293 184.113 233.086 184.633 234.111 184.633C235.205 184.633 235.984 184.031 235.984 183.156C235.984 182.268 235.219 181.625 233.934 181.625H233.045V180.258H233.934C234.986 180.258 235.725 179.67 235.711 178.809C235.725 177.975 235.096 177.414 234.125 177.414C233.195 177.414 232.389 177.934 232.361 178.768H230.652C230.693 177.1 232.197 175.965 234.139 175.965C236.148 175.965 237.447 177.195 237.434 178.713C237.447 179.82 236.709 180.627 235.629 180.846V180.928C237.023 181.119 237.816 182.008 237.803 183.252C237.816 184.92 236.258 186.137 234.111 186.137Z" fill="white"/>
</g>
<defs>
<filter id="filter0_d_572_250" x="117.254" y="205.412" width="169.488" height="35.8643" filterUnits="userSpaceOnUse" color-interpolation-filters="sRGB">
<feFlood flood-opacity="0" result="BackgroundImageFix"/>
<feColorMatrix in="SourceAlpha" type="matrix" values="0 0 0 0 0 0 0 0 0 0 0 0 0 0 0 0 0 0 127 0" result="hardAlpha"/>
<feOffset dy="4"/>
<feGaussianBlur stdDeviation="2"/>
<feComposite in2="hardAlpha" operator="out"/>
<feColorMatrix type="matrix" values="0 0 0 0 0 0 0 0 0 0 0 0 0 0 0 0 0 0 0.25 0"/>
<feBlend mode="normal" in2="BackgroundImageFix" result="effect1_dropShadow_572_250"/>
<feBlend mode="normal" in="SourceGraphic" in2="effect1_dropShadow_572_250" result="shape"/>
</filter>
<filter id="filter1_d_572_250" x="161.766" y="175.965" width="80.0508" height="18.1719" filterUnits="userSpaceOnUse" color-interpolation-filters="sRGB">
<feFlood flood-opacity="0" result="BackgroundImageFix"/>
<feColorMatrix in="SourceAlpha" type="matrix" values="0 0 0 0 0 0 0 0 0 0 0 0 0 0 0 0 0 0 127 0" result="hardAlpha"/>
<feOffset dy="4"/>
<feGaussianBlur stdDeviation="2"/>
<feComposite in2="hardAlpha" operator="out"/>
<feColorMatrix type="matrix" values="0 0 0 0 0 0 0 0 0 0 0 0 0 0 0 0 0 0 0.25 0"/>
<feBlend mode="normal" in2="BackgroundImageFix" result="effect1_dropShadow_572_250"/>
<feBlend mode="normal" in="SourceGraphic" in2="effect1_dropShadow_572_250" result="shape"/>
</filter>
<linearGradient id="paint0_linear_572_250" x1="182.501" y1="259.269" x2="185.353" y2="124.314" gradientUnits="userSpaceOnUse">
<stop stop-color="#D9D9D9" stop-opacity="0"/>
<stop offset="1" stop-color="#08369A"/>
</linearGradient>
</defs>
</svg>
