<svg width="404" height="404" viewBox="0 0 404 404" fill="none" xmlns="http://www.w3.org/2000/svg">
<path d="M143.945 178.219C143.945 179.844 145.211 181.344 147.352 181.953L146.664 183.109C145.047 182.633 143.852 181.648 143.227 180.375C142.617 181.781 141.391 182.867 139.727 183.375L139.008 182.219C141.148 181.594 142.477 179.984 142.477 178.219V178.078H139.43V176.891H142.477V175.266H143.961V176.891H146.992V178.078H143.945V178.219ZM150.039 175.328V178.797H152.07V180.031H150.039V183.594H148.555V175.328H150.039ZM150.039 184.219V189.156H141.102V184.219H150.039ZM142.555 185.391V187.953H148.57V185.391H142.555ZM156.664 176.375C157.938 176.375 158.992 177.109 159.617 178.375H163.07V175.328H164.539V189.359H163.07V183.984H159.711C159.109 185.391 158.008 186.203 156.664 186.203C154.57 186.203 153.102 184.297 153.117 181.281C153.102 178.281 154.57 176.375 156.664 176.375ZM156.664 177.703C155.398 177.703 154.523 179.078 154.523 181.281C154.523 183.5 155.398 184.875 156.664 184.875C157.93 184.875 158.805 183.5 158.805 181.281C158.805 179.078 157.93 177.703 156.664 177.703ZM160.039 179.594C160.141 180.109 160.211 180.672 160.211 181.281C160.211 181.812 160.164 182.305 160.07 182.766H163.07V179.594H160.039ZM171.57 179.453C171.57 181.672 173.023 184.141 175.148 185.141L174.305 186.297C172.734 185.539 171.492 183.961 170.867 182.125C170.219 184.133 168.906 185.859 167.305 186.656L166.43 185.484C168.555 184.469 170.102 181.828 170.102 179.453V177.969H166.945V176.734H174.617V177.969H171.57V179.453ZM177.602 175.328V180.875H179.852V182.125H177.602V189.328H176.117V175.328H177.602ZM191.43 175.328V180.906H193.602V182.141H191.43V189.312H189.945V175.328H191.43ZM187.773 176.797C187.758 180.844 185.977 184.453 181.367 186.734L180.539 185.578C184.047 183.828 185.953 181.297 186.258 178.031H181.242V176.797H187.773ZM236.102 175.328V189.359H234.617V175.328H236.102ZM228.617 176.375C230.695 176.375 232.227 178.281 232.227 181.281C232.227 184.297 230.695 186.203 228.617 186.203C226.508 186.203 224.992 184.297 224.992 181.281C224.992 178.281 226.508 176.375 228.617 176.375ZM228.617 177.703C227.32 177.703 226.43 179.078 226.43 181.281C226.43 183.5 227.32 184.875 228.617 184.875C229.898 184.875 230.789 183.5 230.789 181.281C230.789 179.078 229.898 177.703 228.617 177.703ZM249.242 175.328V180.797H251.492V182.047H249.242V189.359H247.773V175.328H249.242ZM245.289 176.594V181.734H240.383V184.766C242.789 184.758 244.57 184.672 246.617 184.297L246.758 185.5C244.57 185.906 242.68 186 240.055 186.016H238.914V180.531H243.82V177.797H238.883V176.594H245.289ZM259.305 176.516V177.703H262.352V175.344H263.836V185.547H262.352V181.922H259.305V183.141H252.805V176.516H259.305ZM254.273 177.719V181.969H257.852V177.719H254.273ZM264.148 187.828V189.031H254.695V184.609H256.195V187.828H264.148ZM259.305 180.703H262.352V178.922H259.305V180.703ZM126.297 223.766V224.984H120.641V229.344H119.172V224.984H113.531V223.766H126.297ZM125.078 217.016V218.219H120.656C120.742 219.766 122.852 221.273 125.516 221.609L124.984 222.797C122.734 222.484 120.82 221.43 119.922 220C119.008 221.445 117.078 222.484 114.828 222.797L114.281 221.609C116.945 221.273 119.07 219.797 119.172 218.219H114.734V217.016H119.172V215.328H120.641V217.016H125.078ZM132.266 218.297C132.266 219.953 133.625 221.422 135.75 222.016L135.062 223.188C133.422 222.719 132.188 221.727 131.547 220.438C130.938 221.844 129.719 222.93 128.047 223.453L127.328 222.281C129.469 221.656 130.797 220.062 130.797 218.297V218.078H127.75V216.891H130.797V215.266H132.281V216.891H135.312V218.078H132.266V218.297ZM139.031 215.328V223.594H137.547V220.391H134.922V219.172H137.547V215.328H139.031ZM139.031 224.266V229.156H129.797V224.266H139.031ZM131.266 225.469V227.953H137.578V225.469H131.266ZM153.953 222.641V223.828H141.188V222.641H153.953ZM152.516 227.828V229.031H142.797V224.969H144.297V227.828H152.516ZM147.562 215.797C150.594 215.781 152.562 216.844 152.562 218.594C152.562 220.359 150.594 221.422 147.562 221.438C144.516 221.422 142.562 220.359 142.562 218.594C142.562 216.844 144.516 215.781 147.562 215.797ZM147.562 216.984C145.422 216.984 144.078 217.594 144.094 218.594C144.078 219.625 145.422 220.219 147.562 220.219C149.703 220.219 151.031 219.625 151.031 218.594C151.031 217.594 149.703 216.984 147.562 216.984ZM163.797 219.453C163.797 221.672 165.25 224.141 167.375 225.141L166.531 226.297C164.961 225.539 163.719 223.961 163.094 222.125C162.445 224.133 161.133 225.859 159.531 226.656L158.656 225.484C160.781 224.469 162.328 221.828 162.328 219.453V217.969H159.172V216.734H166.844V217.969H163.797V219.453ZM169.828 215.328V220.875H172.078V222.125H169.828V229.328H168.344V215.328H169.828ZM185.531 222.141V223.328H172.75V222.141H178.422V220.656H174.344V215.969H183.953V217.141H175.812V219.469H184.047V220.656H179.859V222.141H185.531ZM179.125 224.234C182.141 224.234 183.953 225.156 183.953 226.781C183.953 228.406 182.141 229.312 179.125 229.328C176.094 229.312 174.266 228.406 174.266 226.781C174.266 225.156 176.094 224.234 179.125 224.234ZM179.125 225.391C176.984 225.391 175.766 225.891 175.766 226.781C175.766 227.672 176.984 228.172 179.125 228.156C181.234 228.172 182.469 227.672 182.469 226.781C182.469 225.891 181.234 225.391 179.125 225.391ZM192.953 216.172C195.891 216.172 198.125 217.719 198.125 220.078C198.125 222.438 195.891 224 192.953 223.984C190.016 224 187.797 222.438 187.797 220.078C187.797 217.719 190.016 216.172 192.953 216.172ZM192.953 217.375C190.812 217.359 189.203 218.453 189.219 220.078C189.203 221.719 190.812 222.766 192.953 222.766C195.094 222.766 196.688 221.719 196.688 220.078C196.688 218.453 195.094 217.359 192.953 217.375ZM199.391 226.281V227.516H186.578V226.281H199.391ZM213.219 226.406V227.656H200.406V226.406H206.047V223.953H201.969V219.5H210.188V217.531H201.938V216.312H211.656V220.688H203.438V222.734H211.984V223.953H207.516V226.406H213.219ZM223.547 218.031C223.547 219.359 224.797 220.5 226.844 220.938L226.234 222.094C224.625 221.734 223.445 220.93 222.828 219.859C222.227 221.023 221.023 221.898 219.359 222.281L218.734 221.125C220.797 220.688 222.062 219.422 222.062 218.031H219.047V216.859H222.062V215.359H223.547V216.859H226.547V218.031H223.547ZM229.781 215.344V229.328H228.312V215.344H229.781ZM218.125 223.141C220.781 223.141 224.297 223.125 227.344 222.734L227.453 223.812C226.172 224.023 224.852 224.156 223.562 224.234V228.906H222.078V224.312C220.734 224.367 219.453 224.375 218.328 224.375L218.125 223.141ZM244.781 226.328V227.547H231.969V226.328H237.578V223H239.047V226.328H244.781ZM239.078 217.281C239.078 219.5 241.516 221.578 244.219 222.031L243.578 223.25C241.312 222.797 239.227 221.398 238.297 219.469C237.375 221.391 235.312 222.812 233.062 223.25L232.406 222.031C235.094 221.578 237.516 219.5 237.516 217.281V216.219H239.078V217.281ZM257.438 215.344V223.406H255.938V215.344H257.438ZM245.828 221.922C246.984 221.922 248.336 221.914 249.734 221.875V220.5H247.078V216H253.766V217.219H248.562V219.328H253.891V220.5H251.203V221.812C252.453 221.75 253.703 221.656 254.875 221.5L254.953 222.547C251.922 223.062 248.562 223.109 246.047 223.125L245.828 221.922ZM249.578 224.016V225.359H255.969V224.016H257.438V229.156H248.094V224.016H249.578ZM249.578 227.953H255.969V226.5H249.578V227.953ZM271.25 215.328V229.328H269.766V215.328H271.25ZM261.953 216.688V224.484C263.992 224.469 266.141 224.305 268.391 223.844L268.594 225.094C266.109 225.594 263.859 225.766 261.656 225.766H260.484V216.688H261.953ZM284.359 215.328V220.75H286.609V221.969H284.359V229.359H282.875V215.328H284.359ZM280.594 216.672V217.875H275.531V224.641C277.883 224.633 279.648 224.531 281.641 224.172L281.828 225.422C279.641 225.812 277.781 225.891 275.172 225.875H274.047V216.672H280.594ZM288.875 228.109C288.266 228.109 287.75 227.609 287.766 227C287.75 226.391 288.266 225.891 288.875 225.891C289.469 225.891 289.984 226.391 289.984 227C289.984 227.609 289.469 228.109 288.875 228.109Z" fill="white"/>
<path d="M204.363 173.859V188H202.195V176.008H202.117L198.738 178.215V176.164L202.254 173.859H204.363ZM221.941 172.16V182.492H220.086V179.895H216.277V181.32H208.152V173.469H216.277V174.914H220.086V172.16H221.941ZM209.988 174.953V179.836H214.461V174.953H209.988ZM216.082 182.98C219.754 182.98 222 184.191 222 186.32C222 188.43 219.754 189.641 216.082 189.621C212.41 189.641 210.145 188.43 210.164 186.32C210.145 184.191 212.41 182.98 216.082 182.98ZM216.082 184.406C213.523 184.426 212 185.09 212 186.32C212 187.492 213.523 188.195 216.082 188.195C218.641 188.195 220.164 187.492 220.164 186.32C220.164 185.09 218.641 184.426 216.082 184.406ZM216.277 178.391H220.086V176.398H216.277V178.391Z" fill="#FFFFA5"/>
</svg>
