<svg width="404" height="404" viewBox="0 0 404 404" fill="none" xmlns="http://www.w3.org/2000/svg">
<rect x="114.5" y="207.5" width="174.488" height="41.925" rx="20.5" fill="black" stroke="white"/>
<path d="M178.062 225.453C178.062 227.797 179.594 230.219 181.75 231.141L180.938 232.297C179.289 231.57 177.977 230.031 177.328 228.156C176.68 230.156 175.359 231.859 173.734 232.656L172.875 231.484C174.984 230.5 176.547 227.859 176.562 225.453V223.969H173.359V222.734H181.25V223.969H178.062V225.453ZM184.5 221.328V235.328H183.016V221.328H184.5ZM197.734 221.328V224.562H199.766V225.781H197.734V228.906H196.234V221.328H197.734ZM193.891 222.156C193.891 225.719 191.469 228.094 187.281 229.078L186.734 227.875C190.125 227.102 192.023 225.422 192.266 223.344H187.391V222.156H193.891ZM190.219 229.516V231.156H196.25V229.516H197.734V235.156H188.734V229.516H190.219ZM190.219 233.938H196.25V232.328H190.219V233.938ZM216.141 221.344V231.656H214.656V228.016H211.188C210.523 228.805 209.508 229.281 208.344 229.281C206.234 229.281 204.672 227.812 204.672 225.75C204.672 223.672 206.234 222.203 208.344 222.188C209.5 222.195 210.508 222.672 211.172 223.453H214.656V221.344H216.141ZM216.516 233.828V235.031H207.047V230.578H208.531V233.828H216.516ZM208.344 223.516C207.031 223.516 206.094 224.422 206.094 225.75C206.094 227.078 207.031 227.969 208.344 227.969C209.609 227.969 210.562 227.078 210.562 225.75C210.562 224.422 209.609 223.516 208.344 223.516ZM211.828 224.656C211.922 224.992 211.984 225.359 211.984 225.75C211.984 226.125 211.93 226.484 211.828 226.812H214.656V224.656H211.828ZM231.078 228.141V229.328H218.297V228.141H223.969V226.656H219.891V221.969H229.5V223.141H221.359V225.469H229.594V226.656H225.406V228.141H231.078ZM224.672 230.234C227.688 230.234 229.5 231.156 229.5 232.781C229.5 234.406 227.688 235.312 224.672 235.328C221.641 235.312 219.812 234.406 219.812 232.781C219.812 231.156 221.641 230.234 224.672 230.234ZM224.672 231.391C222.531 231.391 221.312 231.891 221.312 232.781C221.312 233.672 222.531 234.172 224.672 234.156C226.781 234.172 228.016 233.672 228.016 232.781C228.016 231.891 226.781 231.391 224.672 231.391Z" fill="white"/>
<path d="M96.0391 158.975H97.4453V166.459C97.4453 168.787 95.7109 170.49 93.0391 170.49C90.3672 170.49 88.6328 168.787 88.6328 166.459V158.975H90.0391V166.35C90.0391 167.99 91.1797 169.178 93.0391 169.178C94.9141 169.178 96.0391 167.99 96.0391 166.35V158.975ZM106.117 161.818C105.992 160.709 104.977 160.068 103.617 160.068C102.117 160.068 101.133 160.85 101.133 161.928C101.133 163.115 102.461 163.553 103.32 163.771L104.445 164.084C105.664 164.396 107.648 165.1 107.648 167.209C107.648 169.053 106.164 170.49 103.539 170.49C101.102 170.49 99.5859 169.225 99.4609 167.35H100.898C101.023 168.615 102.195 169.209 103.539 169.209C105.102 169.209 106.273 168.412 106.273 167.178C106.273 166.084 105.227 165.662 104.039 165.318L102.648 164.943C100.867 164.428 99.7734 163.521 99.7734 161.99C99.7734 160.084 101.477 158.818 103.664 158.818C105.852 158.818 107.43 160.1 107.492 161.818H106.117ZM113.18 170.287H109.664V158.975H113.32C116.617 158.975 118.57 161.1 118.57 164.615C118.57 168.146 116.617 170.287 113.18 170.287ZM111.07 169.037H113.086C115.867 169.037 117.195 167.365 117.195 164.615C117.195 161.881 115.867 160.225 113.227 160.225H111.07V169.037ZM119.539 160.225V158.975H128.07V160.225H124.523V170.287H123.102V160.225H119.539ZM130.117 165.975C130.133 163.021 130.93 160.568 132.367 158.49H133.555C132.492 160.037 131.508 163.193 131.508 165.975C131.508 168.756 132.492 171.928 133.555 173.475H132.367C130.93 171.381 130.133 168.928 130.117 165.975ZM135.398 170.287V158.975H139.367C141.742 158.975 142.852 160.303 142.852 161.975C142.852 163.428 141.992 164.084 141.008 164.35V164.459C142.055 164.521 143.305 165.49 143.305 167.287C143.305 168.99 142.18 170.287 139.508 170.287H135.398ZM139.492 169.037C141.258 169.037 141.945 168.256 141.945 167.271C141.945 166.115 141.023 165.146 139.57 165.146H136.805V169.037H139.492ZM139.32 163.928C140.539 163.928 141.508 163.178 141.508 161.99C141.508 161.006 140.852 160.225 139.367 160.225H136.805V163.928H139.32ZM145.305 170.287V158.975H152.164V160.225H146.711V164.006H151.805V165.24H146.711V169.037H152.242V170.287H145.305ZM154.383 170.287V158.975H158.227C160.883 158.975 162.086 160.553 162.086 162.568C162.086 164.568 160.883 166.178 158.242 166.178H155.789V170.287H154.383ZM155.789 164.928H158.18C159.977 164.928 160.695 163.912 160.695 162.568C160.695 161.209 159.977 160.225 158.164 160.225H155.789V164.928ZM168.055 164.021V165.256H163.102V164.021H168.055ZM169.586 170.287L169.57 169.256L173.43 165.193C174.773 163.771 175.414 163.006 175.414 161.959C175.414 160.803 174.43 160.037 173.164 160.037C171.82 160.037 170.961 160.896 170.961 162.162H169.633C169.617 160.162 171.164 158.818 173.211 158.818C175.258 158.818 176.727 160.193 176.727 161.959C176.727 163.225 176.133 164.209 174.133 166.271L171.539 168.943V169.037H176.93V170.287H169.586ZM182.68 170.443C180.164 170.443 178.727 168.334 178.727 164.631C178.727 160.959 180.195 158.818 182.68 158.818C185.164 158.818 186.633 160.959 186.633 164.631C186.633 168.334 185.18 170.443 182.68 170.443ZM182.68 169.193C184.305 169.193 185.258 167.553 185.258 164.631C185.258 161.709 184.305 160.037 182.68 160.037C181.055 160.037 180.086 161.709 180.086 164.631C180.086 167.553 181.039 169.193 182.68 169.193ZM191.477 165.975C191.461 168.928 190.664 171.381 189.227 173.475H188.039C189.102 171.928 190.086 168.756 190.086 165.975C190.086 163.193 189.102 160.037 188.039 158.49H189.227C190.664 160.568 191.461 163.021 191.477 165.975ZM202.445 161.928C202.445 164.287 204.164 166.678 206.211 167.568L205.523 168.537C203.898 167.795 202.492 166.193 201.852 164.271C201.195 166.311 199.797 168.084 198.211 168.881L197.477 167.912C199.461 166.959 201.195 164.334 201.211 161.928V160.115H197.93V159.1H205.758V160.115H202.445V161.928ZM208.93 157.662V171.553H207.695V157.662H208.93ZM222.164 157.662V160.975H224.258V162.006H222.164V165.178H220.93V157.662H222.164ZM218.383 158.521C218.383 161.99 215.898 164.35 211.805 165.365L211.336 164.35C214.773 163.521 216.812 161.764 217.039 159.521H211.945V158.521H218.383ZM214.57 165.818V167.584H220.945V165.818H222.164V171.365H213.336V165.818H214.57ZM214.57 170.365H220.945V168.568H214.57V170.365ZM231.461 157.912C234.555 157.912 236.367 158.756 236.367 160.303C236.367 161.881 234.555 162.725 231.461 162.74C228.367 162.725 226.539 161.881 226.539 160.303C226.539 158.756 228.367 157.912 231.461 157.912ZM231.461 158.834C229.148 158.834 227.805 159.396 227.82 160.303C227.805 161.271 229.148 161.803 231.461 161.803C233.758 161.803 235.117 161.271 235.117 160.303C235.117 159.396 233.758 158.834 231.461 158.834ZM237.789 163.678V164.678H225.133V163.678H237.789ZM236.164 165.881V168.99H227.914V170.428H236.586V171.396H226.695V168.084H234.961V166.818H226.664V165.881H236.164ZM254.492 157.678V167.943H253.258V164.193H249.664C249.023 165.014 247.992 165.506 246.805 165.506C244.727 165.506 243.195 164.068 243.195 162.037C243.195 160.006 244.727 158.568 246.805 158.553C247.984 158.561 248.992 159.045 249.648 159.85H253.258V157.678H254.492ZM254.883 170.225V171.256H245.57V166.865H246.805V170.225H254.883ZM246.805 159.646C245.383 159.662 244.367 160.646 244.367 162.037C244.367 163.428 245.383 164.412 246.805 164.412C248.164 164.412 249.211 163.428 249.211 162.037C249.211 160.646 248.164 159.662 246.805 159.646ZM250.211 160.865C250.328 161.225 250.398 161.615 250.398 162.037C250.398 162.443 250.328 162.826 250.211 163.178H253.258V160.865H250.211ZM269.477 164.537V165.521H256.805V164.537H262.539V162.912H258.414V158.318H267.898V159.303H259.617V161.912H267.992V162.912H263.727V164.537H269.477ZM263.133 166.537C266.117 166.537 267.898 167.443 267.914 169.037C267.898 170.646 266.117 171.537 263.133 171.553C260.133 171.537 258.336 170.646 258.336 169.037C258.336 167.443 260.133 166.537 263.133 166.537ZM263.133 167.506C260.898 167.506 259.57 168.084 259.586 169.037C259.57 170.006 260.898 170.568 263.133 170.568C265.336 170.568 266.68 170.006 266.68 169.037C266.68 168.084 265.336 167.506 263.133 167.506ZM281.383 157.662V163.396H283.711V164.412H281.383V171.553H280.164V157.662H281.383ZM278.82 159.896V160.912H270.555V159.896H274.133V157.834H275.352V159.896H278.82ZM274.758 162.068C276.727 162.068 278.148 163.381 278.164 165.256C278.148 167.131 276.727 168.443 274.758 168.443C272.773 168.443 271.336 167.131 271.352 165.256C271.336 163.381 272.773 162.068 274.758 162.068ZM274.758 163.1C273.461 163.1 272.508 164.006 272.523 165.256C272.508 166.521 273.461 167.412 274.758 167.396C276.039 167.412 276.977 166.521 276.992 165.256C276.977 164.006 276.039 163.1 274.758 163.1ZM288.586 161.615C288.586 163.818 289.664 166.209 291.508 167.303L290.805 168.256C289.469 167.443 288.508 165.959 288.023 164.271C287.508 166.115 286.477 167.701 285.086 168.553L284.305 167.631C286.227 166.506 287.398 164.037 287.398 161.662V158.975H288.586V161.615ZM296.367 157.662V171.553H295.18V157.662H296.367ZM293.492 157.959V170.85H292.336V163.693H289.977V162.646H292.336V157.959H293.492ZM311.008 168.74V169.771H298.289V168.74H301.445V164.99C300.258 164.373 299.539 163.373 299.539 162.115C299.539 159.959 301.648 158.553 304.617 158.537C307.586 158.553 309.695 159.959 309.695 162.115C309.695 163.35 309 164.342 307.852 164.959V168.74H311.008ZM304.617 159.553C302.336 159.537 300.727 160.568 300.727 162.115C300.727 163.662 302.336 164.709 304.617 164.709C306.883 164.709 308.508 163.662 308.508 162.115C308.508 160.568 306.883 159.537 304.617 159.553ZM302.648 168.74H306.617V165.428C306.016 165.592 305.344 165.678 304.617 165.678C303.906 165.678 303.242 165.6 302.648 165.443V168.74ZM313.586 170.381C313.039 170.381 312.57 169.928 312.586 169.365C312.57 168.818 313.039 168.365 313.586 168.365C314.133 168.365 314.586 168.818 314.586 169.365C314.586 169.928 314.133 170.381 313.586 170.381Z" fill="white"/>
<g clip-path="url(#clip0_572_207)" filter="url(#filter0_d_572_207)">
<path d="M265.264 237.583L246.299 236.887L250.665 255.355L254.886 250.216L265.63 259.042L271.787 251.547L261.043 242.721L265.264 237.583Z" fill="white"/>
</g>
<defs>
<filter id="filter0_d_572_207" x="235" y="228" width="45.0078" height="44.1807" filterUnits="userSpaceOnUse" color-interpolation-filters="sRGB">
<feFlood flood-opacity="0" result="BackgroundImageFix"/>
<feColorMatrix in="SourceAlpha" type="matrix" values="0 0 0 0 0 0 0 0 0 0 0 0 0 0 0 0 0 0 127 0" result="hardAlpha"/>
<feOffset dy="4"/>
<feGaussianBlur stdDeviation="2"/>
<feComposite in2="hardAlpha" operator="out"/>
<feColorMatrix type="matrix" values="0 0 0 0 0 0 0 0 0 0 0 0 0 0 0 0 0 0 0.25 0"/>
<feBlend mode="normal" in2="BackgroundImageFix" result="effect1_dropShadow_572_207"/>
<feBlend mode="normal" in="SourceGraphic" in2="effect1_dropShadow_572_207" result="shape"/>
</filter>
<clipPath id="clip0_572_207">
<rect width="23" height="29" fill="white" transform="translate(239 245.772) rotate(-50.5972)"/>
</clipPath>
</defs>
</svg>
