<svg width="192" height="153" viewBox="0 0 192 153" fill="none" xmlns="http://www.w3.org/2000/svg">
<g filter="url(#filter0_i_699_38)">
<path d="M149.297 65.6688C149.586 64.9331 149.822 64.1787 150.003 63.4052C150.518 61.2071 150.554 58.8982 150.108 56.7309C149.535 53.9452 148.201 51.3789 146.251 49.3146C144.837 47.8185 143.2 46.627 141.429 45.796C141.589 44.8704 141.639 43.9361 141.578 43.0019C141.559 42.6876 141.525 42.369 141.48 42.0466C141.216 40.1828 140.545 38.2637 139.433 36.1804C139.152 35.6553 138.849 35.1293 138.506 34.5749C136.162 30.782 132.495 28.3548 128.185 27.7441C124.24 27.1852 119.966 28.2254 116.147 30.6711C115.918 30.8193 115.69 30.9789 115.468 31.1439C113.921 30.5725 112.346 30.0649 110.745 29.6281C107.817 24.8922 103.417 21.79 98.6737 21.1181C95.2791 20.6371 91.9106 21.3925 88.9319 23.3025C88.3997 23.6448 87.8889 23.9923 87.4157 24.3407C85.526 25.7277 84.1062 27.1633 83.0791 28.7267C82.9837 28.8735 82.8877 29.0247 82.7957 29.1787C75.3251 30.9806 68.238 34.3404 61.9272 39.1579C49.8871 48.3493 42.1191 61.74 40.0531 76.8642C37.987 91.9884 41.8713 107.028 50.9904 119.219C60.1061 131.403 73.359 139.282 88.3121 141.4C103.265 143.519 118.128 139.626 130.162 130.436C142.202 121.245 149.97 107.854 152.036 92.7299C153.301 83.468 152.33 74.237 149.295 65.6707L149.297 65.6688ZM44.8355 77.5395C46.9263 62.2337 55.4229 49.4 67.2105 41.4077C66.8294 42.3154 66.5251 43.2611 66.3196 44.2299C65.8793 46.3009 65.8416 48.4267 66.2076 50.551C66.5694 52.6408 67.2974 54.5816 68.3721 56.3209C69.3834 57.9565 70.7307 59.3394 72.313 60.5275C69.8852 60.9037 67.8664 61.6133 66.2338 62.6597C62.361 65.1429 59.5732 68.6739 58.387 72.6033C57.1252 76.7771 57.7044 81.1372 60.0175 84.8784C60.3536 85.4204 60.6948 85.9406 61.0369 86.4225C62.3989 88.347 63.8085 89.7929 65.3437 90.8389C65.599 91.0151 65.8688 91.182 66.146 91.3432C66.9416 91.799 67.7928 92.1567 68.6867 92.412C68.655 94.3964 69.002 96.4164 69.7157 98.3642C70.7013 101.048 72.3933 103.381 74.6128 105.113C76.3395 106.461 78.4001 107.426 80.567 107.905C80.9501 107.988 81.3416 108.06 81.7309 108.115C83.3989 108.351 85.0947 108.318 86.772 108.016C87.1493 107.948 87.5222 107.863 87.8895 107.77C84.2095 114.101 78.4149 121.03 70.1554 122.7C68.2016 123.096 66.7523 124.78 66.6285 126.806C66.6121 127.072 66.6141 127.366 66.6379 127.678C51.1427 116.773 42.0854 97.6711 44.8358 77.5373L44.8355 77.5395ZM88.9782 136.524C86.5861 136.185 84.2564 135.681 81.9951 135.033C85.8592 133.084 92.3557 127.816 99.1989 113.567C99.2171 113.532 99.2335 113.493 99.252 113.455C99.5646 112.757 100.323 110.968 100.994 108.672C101.764 109.544 102.628 110.339 103.592 111.043C105.206 112.222 107.061 113.103 109.101 113.665C109.501 113.776 109.913 113.875 110.329 113.961C110.792 114.058 111.264 114.141 111.732 114.207C119.602 115.322 127.953 112.135 135.879 104.989C137.247 103.756 138.478 102.415 139.54 101.001C142.521 97.0347 144.065 92.6414 144.003 88.2913C143.932 83.231 141.661 78.4664 137.898 75.4093C139.698 75.0345 141.445 74.4038 143.012 73.3999C144.054 72.7326 145.009 71.9378 145.873 71.0308C147.696 77.6802 148.24 84.7986 147.249 92.0495C143.353 120.573 117.212 140.524 88.9739 136.523L88.9782 136.524Z" fill="url(#paint0_linear_699_38)"/>
</g>
<g filter="url(#filter1_di_699_38)">
<path d="M145.878 71.029C145.013 71.9382 144.058 72.7307 143.016 73.3981C141.449 74.4019 139.702 75.0326 137.902 75.4075C141.665 78.4646 143.934 83.2289 144.007 88.2895C144.07 92.6373 142.525 97.0329 139.544 100.999C138.482 102.413 137.251 103.754 135.883 104.987C127.955 112.133 119.604 115.32 111.736 114.206C111.268 114.139 110.796 114.057 110.333 113.959C109.917 113.873 109.505 113.772 109.105 113.664C107.063 113.103 105.208 112.22 103.596 111.041C102.632 110.338 101.765 109.542 100.998 108.67C100.327 110.966 99.5687 112.755 99.256 113.453C99.2397 113.492 99.2215 113.527 99.203 113.565C92.3597 127.814 85.8633 133.082 81.9992 135.031C84.2605 135.679 86.5902 136.183 88.9823 136.522C117.218 140.522 143.362 120.571 147.258 92.0483C148.249 84.7952 147.705 77.679 145.882 71.0296L145.878 71.029Z" fill="#04463A"/>
</g>
<g filter="url(#filter2_di_699_38)">
<path d="M86.7731 108.016C85.0959 108.318 83.4 108.351 81.732 108.115C81.3428 108.06 80.9513 107.988 80.5681 107.905C78.399 107.426 76.3406 106.461 74.614 105.113C72.3944 103.381 70.7003 101.048 69.7169 98.3643C69.0028 96.4187 68.6559 94.3987 68.6879 92.412C67.7939 92.1567 66.9428 91.7991 66.1471 91.3432C65.8677 91.1817 65.6001 91.0151 65.3448 90.839C63.8099 89.7907 62.4025 88.3451 61.038 86.4225C60.696 85.9406 60.3547 85.4204 60.0187 84.8784C57.7056 81.1373 57.1285 76.7774 58.3881 72.6033C59.5744 68.6739 62.3622 65.143 66.2349 62.6598C67.8675 61.6133 69.8864 60.9037 72.3141 60.5275C70.7318 59.3394 69.3845 57.9565 68.3732 56.321C67.2985 54.5817 66.5705 52.6409 66.2087 50.551C65.8403 48.4286 65.8782 46.3006 66.3207 44.2299C66.5262 43.2612 66.8305 42.3155 67.2117 41.4078C55.424 49.4001 46.9275 62.2338 44.8366 77.5395C42.0862 97.6734 51.1436 116.776 66.6387 127.681C66.6149 127.368 66.6129 127.074 66.6294 126.808C66.7553 124.783 68.2027 123.096 70.1563 122.702C78.4157 121.032 84.21 114.105 87.8904 107.773C87.5231 107.865 87.1501 107.95 86.7728 108.018L86.7731 108.016Z" fill="url(#paint1_linear_699_38)"/>
</g>
<g filter="url(#filter3_i_699_38)">
<path d="M107.03 32.014C103.151 25.7347 96.5959 23.6727 91.2684 27.0854C90.8309 27.3665 90.401 27.6578 89.982 27.9664C88.7476 28.8729 87.5733 29.9234 86.7203 31.218C86.6085 31.3873 86.5051 31.56 86.4055 31.7378C85.4488 33.467 85.2801 35.5133 85.6236 37.4447C85.6325 37.4934 85.6205 37.5165 85.5997 37.5226C85.5535 37.5364 85.4579 37.4732 85.416 37.456C84.7185 37.1901 84.0184 36.9441 83.2869 36.7976C83.2652 36.7945 83.2437 36.7892 83.2223 36.7839C81.2206 36.3942 79.1252 36.6414 77.2216 37.3673C75.3698 38.0712 73.7474 39.2862 72.5425 40.8854C71.5919 42.1481 70.938 43.6245 70.6064 45.1759C70.2851 46.6836 70.2656 48.2543 70.5282 49.7725C70.7819 51.242 71.3025 52.6725 72.0852 53.937C77.1646 62.1585 96.2795 62.923 103.726 67.089C107.163 55.2563 111.112 38.6268 107.026 32.0156L107.03 32.014Z" fill="url(#paint2_linear_699_38)"/>
</g>
<g filter="url(#filter4_di_699_38)">
<path d="M68.5744 66.4429C62.4085 70.3937 60.3838 77.0692 63.7348 82.4948C64.0109 82.9402 64.2969 83.3781 64.5999 83.8048C65.49 85.062 66.5215 86.2579 67.7927 87.1265C67.959 87.2404 68.1286 87.3457 68.3031 87.4472C70.0033 88.4217 72.0104 88.5932 73.907 88.2434C73.9548 88.2343 73.9775 88.2466 73.9834 88.2678C73.997 88.3148 73.9349 88.4121 73.918 88.4549C73.6569 89.1652 73.4154 89.8782 73.2715 90.6231C73.2685 90.6453 73.2633 90.6671 73.2581 90.6889C72.8754 92.7275 73.1182 94.8614 73.8309 96.8C74.5221 98.686 75.7151 100.338 77.2854 101.565C78.5254 102.533 79.975 103.199 81.4984 103.537C82.9788 103.864 84.5212 103.884 86.0119 103.617C87.4548 103.358 88.8595 102.828 90.1012 102.031C98.1744 96.8559 98.9247 77.3914 103.015 69.8077C91.3966 66.3081 75.0677 62.2856 68.576 66.4476L68.5744 66.4429Z" fill="url(#paint3_linear_699_38)" shape-rendering="crispEdges"/>
</g>
<g filter="url(#filter5_di_699_38)">
<path d="M145.808 57.6455C145.402 55.6734 144.454 53.8641 143.085 52.4126C141.677 50.9218 139.894 49.7752 137.923 49.2431C137.902 49.2378 137.88 49.2325 137.859 49.2272C137.135 49.0367 136.4 48.9506 135.658 48.8838C135.612 48.8795 135.501 48.8954 135.463 48.863C135.448 48.8473 135.446 48.8245 135.474 48.7833C136.602 47.1935 137.321 45.2748 137.193 43.2926C137.181 43.0899 137.16 42.8883 137.13 42.6854C136.91 41.1418 136.299 39.678 135.572 38.3175C135.324 37.8558 135.06 37.403 134.786 36.9578C131.435 31.5344 124.648 30.5052 118.483 34.456C111.991 38.6158 108.488 55.3492 106.558 67.5329C115.04 67.0573 132.597 74.7914 140.671 69.6163C141.912 68.8192 142.988 67.7616 143.843 66.5485C144.726 65.2964 145.375 63.8713 145.726 62.3702C146.088 60.8253 146.125 59.2052 145.804 57.6493L145.808 57.6455Z" fill="url(#paint4_linear_699_38)"/>
</g>
<g filter="url(#filter6_di_699_38)">
<path d="M134.793 78.6127C132.305 76.7635 129.389 75.5262 126.502 74.4875C119.623 72.0115 112.37 70.6159 105.182 69.435C105.649 78.0732 98.055 95.9539 103.137 104.176C103.919 105.44 104.958 106.536 106.149 107.406C107.381 108.306 108.77 108.94 110.244 109.346C110.565 109.434 110.887 109.511 111.21 109.58C119.309 111.271 127.085 106.943 132.97 101.639C134.098 100.623 135.14 99.5014 136.056 98.2812C138.196 95.4351 139.667 91.9862 139.615 88.3555C139.561 84.5664 137.789 80.8432 134.79 78.6146L134.793 78.6127Z" fill="url(#paint5_linear_699_38)" shape-rendering="crispEdges"/>
</g>
<g filter="url(#filter7_i_699_38)">
<path d="M71.0124 127.085C71.0124 127.085 70.7322 131.604 78.1506 131.709C78.1506 131.709 86.0493 130.765 95.2534 111.599C95.2534 111.599 99.3869 102.355 97.1624 97.6245C97.1624 97.6245 89.7722 123.293 71.0124 127.085Z" fill="url(#paint6_linear_699_38)"/>
</g>
<g filter="url(#filter8_d_699_38)">
<path d="M103.73 67.0893C103.73 67.0893 104.549 53.6961 94.3906 46.8726C94.3906 46.8726 103.352 64.0806 103.73 67.0893Z" fill="url(#paint7_linear_699_38)"/>
</g>
<path d="M106.672 67.5064C106.672 67.5064 112.605 55.524 124.756 54.8548C124.756 54.8548 108.49 65.1023 106.672 67.5064Z" fill="url(#paint8_linear_699_38)"/>
<path d="M103.009 69.8609C103.009 69.8609 89.997 71.9839 85.6851 83.5728C85.6851 83.5728 100.207 70.8975 103.009 69.8609Z" fill="url(#paint9_linear_699_38)"/>
<g filter="url(#filter9_d_699_38)">
<path d="M129.106 91.7954C129.534 90.1561 124.872 88.2268 121.238 87.0776L121.907 84.5175L127.848 86.1245L128.861 82.2406L113.168 77.9944L112.154 81.8783L118.095 83.4853L117.426 86.0454C113.712 85.2077 108.723 84.5256 108.297 86.163C107.872 87.8004 112.531 89.7316 116.165 90.8808L113.996 99.1951L117.81 100.228L119.979 91.9132C123.693 92.751 128.683 93.4331 129.108 91.7957L129.106 91.7954ZM125.442 92.0212C123.462 91.9056 120.905 91.4462 118.243 90.726C115.58 90.0054 113.137 89.113 111.363 88.2114C109.296 87.1623 108.952 86.5131 108.994 86.352C109.036 86.1909 109.65 85.8016 111.957 85.9365C113.455 86.0245 115.285 86.3086 117.239 86.7548L116.564 89.339L120.378 90.3714L121.052 87.7873C122.967 88.3882 124.693 89.0661 126.036 89.7463C128.103 90.7954 128.447 91.4446 128.405 91.6057C128.363 91.7668 127.749 92.1562 125.444 92.0215L125.442 92.0212Z" fill="white"/>
</g>
<path d="M52.5054 65.3881C50.8002 69.0395 47.6336 79.0529 48.6092 89.895" stroke="white" stroke-width="2" stroke-linecap="round"/>
<ellipse cx="3.29458" cy="3.3529" rx="3.29458" ry="3.3529" transform="matrix(0.990112 0.140279 -0.135348 0.990798 55.6895 91.5591)" fill="#FFFFA5"/>
<ellipse cx="2.19639" cy="2.23527" rx="2.19639" ry="2.23527" transform="matrix(0.990112 0.140279 -0.135348 0.990798 70.2246 110.099)" fill="#FFFFA5"/>
<g clip-path="url(#paint10_diamond_699_38_clip_path)" data-figma-skip-parse="true"><g transform="matrix(0.0957144 0 0 0.0166963 95.7144 126.684)"><rect x="0" y="0" width="1010.45" height="1059.89" fill="url(#paint10_diamond_699_38)" opacity="1" shape-rendering="crispEdges"/><rect x="0" y="0" width="1010.45" height="1059.89" transform="scale(1 -1)" fill="url(#paint10_diamond_699_38)" opacity="1" shape-rendering="crispEdges"/><rect x="0" y="0" width="1010.45" height="1059.89" transform="scale(-1 1)" fill="url(#paint10_diamond_699_38)" opacity="1" shape-rendering="crispEdges"/><rect x="0" y="0" width="1010.45" height="1059.89" transform="scale(-1)" fill="url(#paint10_diamond_699_38)" opacity="1" shape-rendering="crispEdges"/></g></g><path d="M191.294 120.014C190.923 118.852 189.858 118.065 188.659 118.065L182.422 118.063C181.818 118.063 181.233 118.263 180.751 118.632L178.6 120.286L180.86 114.163C181.18 113.296 181.063 112.324 180.544 111.561C180.025 110.799 179.174 110.344 178.265 110.344L173.208 110.342C172.052 110.342 171.019 111.072 170.611 112.174L167.901 119.519C166.212 118.221 164.037 117.524 161.557 117.524C158.061 117.524 154.446 118.926 151.432 121.199C151.407 120.588 151.225 119.995 150.882 119.491C150.288 118.619 149.296 118.097 148.227 118.097H144.221C142.716 118.097 141.292 119.106 140.757 120.556L136.471 132.171C136.443 132.199 136.415 132.226 136.386 132.254C135.871 132.743 135.237 133.093 134.676 133.212L138.614 122.54C138.996 121.506 138.868 120.362 138.27 119.484C137.677 118.613 136.684 118.091 135.615 118.091H131.887C130.382 118.091 128.956 119.102 128.423 120.549L124.054 132.389C123.913 132.367 123.77 132.349 123.625 132.349H117.45L124.026 114.528C124.346 113.661 124.229 112.69 123.71 111.927C123.191 111.164 122.34 110.709 121.431 110.709L116.071 110.707C114.915 110.707 113.882 111.438 113.474 112.54L111.417 118.113C111.242 118.03 111.056 117.965 110.864 117.921C110.394 117.815 109.897 117.76 109.389 117.76C109.193 117.76 108.994 117.769 108.789 117.784C107.607 117.88 106.313 118.217 105.05 118.773C104.555 118.35 103.923 118.108 103.261 118.108L98.1904 118.106C97.0336 118.106 96.0006 118.836 95.593 119.938L94.6539 122.486C93.1449 119.636 89.952 117.787 86.0484 117.787C85.1755 117.787 84.2663 117.884 83.3507 118.078C80.0938 118.762 76.8326 120.588 74.3739 122.934C74.1626 121.979 73.7592 121.09 73.168 120.323C71.8106 118.56 69.6422 117.589 67.0533 117.587C66.3554 117.587 65.6382 117.656 64.9147 117.793L66.3852 113.809C66.7054 112.942 66.588 111.97 66.0694 111.207C65.5507 110.444 64.6992 109.99 63.7899 109.99L58.4713 109.988C57.3145 109.988 56.2815 110.718 55.8739 111.82L53.5005 118.254C53.2743 118.193 53.0374 118.16 52.7984 118.16H51.7142L52.3929 116.322C52.7343 115.398 52.5764 114.361 51.9809 113.585C51.3833 112.809 50.4314 112.405 49.471 112.522L44.1865 113.159C43.1557 113.283 42.2806 113.983 41.9156 114.972L40.7418 118.156H39.6768C38.52 118.156 37.487 118.886 37.0793 119.988L36.9406 120.364C35.2268 118.739 32.7659 117.765 29.9316 117.763C29.0587 117.763 28.1495 117.86 27.2339 118.054C27.1293 118.076 27.0247 118.102 26.9201 118.126L28.2092 114.633C28.5294 113.765 28.412 112.794 27.8934 112.031C27.3747 111.268 26.5232 110.814 25.6139 110.814L4.84306 110.803C3.68628 110.803 2.65328 111.533 2.24563 112.635L0.440024 117.48C0.119881 118.347 0.237267 119.319 0.755899 120.082C1.27453 120.845 2.12611 121.299 3.03532 121.299H6.70202L0.177507 138.983C-0.142636 139.85 -0.0252506 140.824 0.493381 141.585C1.01201 142.348 1.86359 142.802 2.7728 142.802L8.04876 142.804C9.20554 142.804 10.2385 142.074 10.6462 140.972L12.9619 134.699C13.011 136.327 13.4976 137.864 14.4153 139.207C16.2124 141.841 19.4608 143.354 23.3303 143.356H23.3388C26.8454 143.356 30.6359 142.1 33.7328 139.911C34.2237 139.566 34.5716 139.083 34.7594 138.546C34.9899 139.203 35.3314 139.82 35.7817 140.379C37.1989 142.141 39.4825 143.115 42.2102 143.115H42.2144C43.7469 143.115 45.3305 142.802 46.8352 142.207C47.3026 142.55 47.866 142.743 48.4572 142.743L53.7759 142.746C54.9327 142.746 55.9657 142.015 56.3733 140.913L60.8852 128.687C61.6258 127.887 62.5585 127.448 63.2073 127.398L58.9515 138.929C58.6314 139.796 58.7488 140.768 59.2674 141.531C59.786 142.294 60.6376 142.748 61.5468 142.748L66.4109 142.75C67.5676 142.75 68.6006 142.02 69.0083 140.918L69.9794 138.288C70.1437 138.612 70.3273 138.927 70.5364 139.231C72.3335 141.865 75.5819 143.378 79.4514 143.38H79.4599C82.4799 143.38 85.7091 142.448 88.5263 140.789C88.6096 141.055 88.7248 141.311 88.8849 141.546C89.4035 142.309 90.2551 142.763 91.1643 142.763L96.2354 142.765C97.3922 142.765 98.4252 142.035 98.8328 140.933L102.248 131.682C102.416 131.224 102.734 130.741 103.17 130.285C104.265 129.13 105.991 128.276 107.468 128.159C107.524 128.154 107.579 128.152 107.63 128.152C107.656 128.152 107.677 128.152 107.701 128.152L103.742 138.877C103.422 139.744 103.539 140.716 104.058 141.478C104.576 142.241 105.428 142.696 106.337 142.696L111.696 142.698C111.76 142.698 111.824 142.696 111.886 142.691L121.877 142.696C123.034 142.696 124.067 141.965 124.474 140.863L124.5 140.792C125.855 142.302 127.981 143.133 130.533 143.135H130.54C132.185 143.135 133.884 142.796 135.427 142.178C135.946 142.52 136.563 142.709 137.207 142.711H141.216C142.72 142.711 144.144 141.7 144.679 140.253L145.418 138.253C145.576 138.555 145.747 138.851 145.939 139.135C147.695 141.722 150.623 143.146 154.181 143.148H154.188C156.424 143.148 158.779 142.565 161.026 141.481C161.034 141.494 161.041 141.507 161.049 141.518C161.568 142.281 162.42 142.735 163.329 142.735L168.385 142.737C169.542 142.737 170.575 142.007 170.982 140.905L171.911 138.39L172.779 140.868C173.174 141.991 174.22 142.741 175.39 142.741L181.626 142.743C182.518 142.743 183.357 142.307 183.878 141.568C184.399 140.829 184.539 139.881 184.256 139.018L181.248 129.885L190.291 123.155C191.26 122.434 191.664 121.16 191.292 119.997L191.294 120.014ZM16.699 124.577L17.9049 121.308C17.9049 121.308 18.94 121.308 20.1416 121.308C18.8333 122.271 17.6573 123.381 16.699 124.575V124.577ZM33.784 134.677C33.784 134.677 34.2685 134.677 34.642 134.677C34.627 134.73 34.6078 134.782 34.595 134.834C34.5758 134.916 34.5502 135.025 34.5289 135.151C34.4798 135.41 34.4478 135.669 34.4264 135.925L33.784 134.677ZM40.0759 136.799C40.0204 136.729 39.9201 136.605 39.9649 136.286L40.2338 135.56C40.3768 136.21 40.6585 136.79 41.079 137.299C41.0918 137.314 41.1046 137.329 41.1174 137.344C40.5796 137.214 40.2338 136.997 40.0759 136.801V136.799ZM46.3336 132.465C46.4168 132.243 46.5022 132.019 46.5855 131.793C46.7306 131.4 46.8522 131.084 46.9654 130.804C47.405 129.724 47.1382 128.526 46.3827 127.742H49.9896L47.9237 133.338C47.4498 133.149 46.9312 133.088 46.4147 133.184C46.2909 133.206 46.1671 133.225 46.0412 133.241C46.1309 132.993 46.229 132.73 46.3315 132.462L46.3336 132.465ZM43.8301 123.531C43.7917 123.599 43.7575 123.67 43.7255 123.74C43.7042 123.694 43.6828 123.649 43.6615 123.605C43.7191 123.583 43.7767 123.557 43.8301 123.531ZM43.3541 127.107L43.7276 126.096C43.8621 126.396 44.0478 126.668 44.274 126.9C43.956 126.916 43.6465 126.987 43.3563 127.109L43.3541 127.107ZM45.0744 122.355C45.1128 122.288 45.1469 122.218 45.179 122.147C45.2003 122.192 45.2216 122.238 45.243 122.282C45.1854 122.305 45.1299 122.329 45.0744 122.355ZM90.1377 134.706L90.0417 134.966L89.9072 134.706C89.9072 134.706 90.0011 134.706 90.1377 134.706ZM156.358 133.119C155.84 133.119 155.443 132.989 155.293 132.769C155.157 132.567 155.093 132.069 155.364 131.332C156.091 129.359 158.535 127.563 160.49 127.563C161 127.563 161.395 127.692 161.545 127.905C161.997 128.55 162.697 128.972 163.47 129.067C163.581 129.08 163.692 129.087 163.801 129.087C163.999 129.087 164.195 129.063 164.387 129.02L162.97 132.858C162.599 132.321 162.055 131.926 161.423 131.752C161.186 131.687 160.945 131.656 160.706 131.656C160.164 131.656 159.626 131.819 159.165 132.132C158.241 132.76 157.218 133.119 156.356 133.119H156.358Z" data-figma-gradient-fill="{&#34;type&#34;:&#34;GRADIENT_DIAMOND&#34;,&#34;stops&#34;:[{&#34;color&#34;:{&#34;r&#34;:0.055126663297414780,&#34;g&#34;:0.065110713243484497,&#34;b&#34;:0.25480768084526062,&#34;a&#34;:1.0},&#34;position&#34;:0.0},{&#34;color&#34;:{&#34;r&#34;:0.18202200531959534,&#34;g&#34;:0.19690157473087311,&#34;b&#34;:0.36057692766189575,&#34;a&#34;:1.0},&#34;position&#34;:0.20192307233810425},{&#34;color&#34;:{&#34;r&#34;:0.11568509787321091,&#34;g&#34;:0.13208633661270142,&#34;b&#34;:0.31250,&#34;a&#34;:1.0},&#34;position&#34;:0.38942307233810425},{&#34;color&#34;:{&#34;r&#34;:0.18670333921909332,&#34;g&#34;:0.061482988297939301,&#34;b&#34;:0.63942307233810425,&#34;a&#34;:1.0},&#34;position&#34;:0.99519228935241699}],&#34;stopsVar&#34;:[{&#34;color&#34;:{&#34;r&#34;:0.055126663297414780,&#34;g&#34;:0.065110713243484497,&#34;b&#34;:0.25480768084526062,&#34;a&#34;:1.0},&#34;position&#34;:0.0},{&#34;color&#34;:{&#34;r&#34;:0.18202200531959534,&#34;g&#34;:0.19690157473087311,&#34;b&#34;:0.36057692766189575,&#34;a&#34;:1.0},&#34;position&#34;:0.20192307233810425},{&#34;color&#34;:{&#34;r&#34;:0.11568509787321091,&#34;g&#34;:0.13208633661270142,&#34;b&#34;:0.31250,&#34;a&#34;:1.0},&#34;position&#34;:0.38942307233810425},{&#34;color&#34;:{&#34;r&#34;:0.18670333921909332,&#34;g&#34;:0.061482988297939301,&#34;b&#34;:0.63942307233810425,&#34;a&#34;:1.0},&#34;position&#34;:0.99519228935241699}],&#34;transform&#34;:{&#34;m00&#34;:191.42883300781250,&#34;m01&#34;:0.0,&#34;m02&#34;:0.0,&#34;m10&#34;:0.0,&#34;m11&#34;:33.392543792724609,&#34;m12&#34;:109.987792968750},&#34;opacity&#34;:1.0,&#34;blendMode&#34;:&#34;NORMAL&#34;,&#34;visible&#34;:true}"/>
<path d="M25.7032 113.626L4.93227 113.615L3.13947 118.475L10.8122 118.478L2.87695 139.976L8.15291 139.978L16.0861 118.482L23.9104 118.484L25.7032 113.626Z" fill="url(#paint11_linear_699_38)"/>
<path d="M36.785 126.055C36.6548 122.944 34.0425 120.579 30.0257 120.577C29.3257 120.577 28.6043 120.658 27.8829 120.81C23.5738 121.714 19.1131 125.116 17.5274 128.63C17.4484 128.802 17.378 128.976 17.3161 129.148L16.3215 131.843C14.5692 136.64 17.7472 140.528 23.4351 140.533C26.5148 140.533 29.6992 139.398 32.2539 137.592L30.6916 134.564C29.1635 135.807 27.4859 136.596 25.7401 136.572C24.3763 136.555 23.3582 136.362 22.6326 135.992C21.2197 135.27 20.9209 133.888 21.3584 131.847L35.1715 131.854L36.356 128.643C36.625 127.917 36.7658 127.204 36.7914 126.524M22.8118 128.252C23.7872 125.607 26.3356 124.007 28.7473 124.007C31.159 124.007 32.525 125.611 31.5475 128.256C31.5005 128.385 31.4472 128.513 31.3917 128.639L22.6859 128.635C22.7201 128.511 22.7649 128.382 22.8118 128.252Z" fill="url(#paint12_linear_699_38)"/>
<path d="M92.912 126.083C92.7818 122.972 90.1694 120.608 86.1527 120.605C85.4526 120.605 84.7313 120.686 84.0099 120.838C79.7007 121.742 75.2401 125.144 73.6543 128.659C73.5753 128.83 73.5049 129.004 73.443 129.176L72.4484 131.871C70.6962 136.668 73.8741 140.557 79.562 140.561C82.6418 140.561 85.8261 139.426 88.3809 137.62L86.8186 134.592C85.2904 135.836 83.6129 136.625 81.867 136.601C80.5032 136.583 79.4852 136.39 78.7595 136.02C77.3466 135.299 77.0478 133.916 77.4854 131.875L91.2985 131.882L92.483 128.672C92.7519 127.946 92.8928 127.233 92.9184 126.552M78.9388 128.28C79.9142 125.635 82.4625 124.035 84.8743 124.035C87.286 124.035 88.6519 125.639 87.6744 128.285C87.6275 128.413 87.5741 128.541 87.5186 128.667L78.8129 128.663C78.847 128.539 78.8918 128.411 78.9388 128.28Z" fill="url(#paint13_linear_699_38)"/>
<path d="M44.5054 129.722C44.3646 130.069 44.228 130.428 44.0914 130.798C43.6944 131.871 43.2739 132.889 43.0947 133.738C42.7724 135.238 43.1928 136.225 45.7988 136.105C46.2043 136.086 46.6098 136.04 47.0154 135.964L46.486 139.342C45.1799 139.944 43.7349 140.292 42.3156 140.292C38.9115 140.292 36.8455 138.272 37.362 135.656C37.3684 135.606 37.3812 135.56 37.3918 135.51L41.3019 124.914H38.3139L39.7673 120.973H42.7553L44.6057 115.959L49.8902 115.322L47.8029 120.977H52.891L51.4376 124.92H46.3495" fill="url(#paint14_linear_699_38)"/>
<path d="M71.5212 126.372L66.5184 139.929H61.6544L66.3392 127.233C66.2751 125.67 65.1802 124.572 63.4323 124.57C61.6843 124.568 59.7826 125.666 58.564 127.228L53.8792 139.922H48.5605L58.5682 112.805H63.8869L60.0665 123.16C62.0258 121.545 64.7342 120.406 67.1545 120.406C70.7145 120.406 72.4027 122.873 71.724 125.692C71.6727 125.918 71.6045 126.144 71.5212 126.372Z" fill="url(#paint15_linear_699_38)"/>
<path d="M110.354 120.677L108.602 125.429C108.224 125.342 107.806 125.316 107.353 125.35C105.232 125.52 102.865 126.659 101.279 128.33C100.605 129.035 100.073 129.834 99.7553 130.697L96.3404 139.948H91.2715L98.289 120.931H103.358L101.508 125.95C102.581 123.042 106.092 120.847 109.108 120.603C109.56 120.566 109.979 120.595 110.356 120.682L110.354 120.677Z" fill="url(#paint16_linear_699_38)"/>
<path d="M123.72 135.173L113.54 135.166L121.526 113.533L116.167 113.531L106.443 139.881L111.8 139.883L111.803 139.877L121.981 139.881L123.72 135.173Z" fill="url(#paint17_linear_699_38)"/>
<path d="M148.726 121.547L142.184 139.27C142.056 139.618 141.667 139.898 141.317 139.898H137.311C136.961 139.896 136.78 139.613 136.908 139.268C137.106 138.729 136.579 138.448 136.035 138.792C134.552 139.727 132.588 140.324 130.637 140.324C127.208 140.324 125.513 138.442 125.951 136.197C125.968 136.108 125.987 136.018 126.006 135.931C126.181 135.088 126.373 134.393 126.584 133.819L131.116 121.54C131.244 121.192 131.632 120.912 131.982 120.912H135.711C136.061 120.912 136.242 121.197 136.114 121.542L131.634 133.68C131.596 133.782 131.583 133.882 131.598 133.973C131.816 135.227 132.84 136.079 134.377 136.079C135.773 136.079 137.26 135.379 138.379 134.314C138.554 134.147 138.72 133.971 138.876 133.788C138.946 133.706 139 133.612 139.034 133.521L143.452 121.547C143.58 121.199 143.968 120.919 144.318 120.919H148.324C148.674 120.921 148.856 121.203 148.728 121.549L148.726 121.547Z" fill="url(#paint18_linear_699_38)"/>
<path d="M162.299 137.553C159.849 139.276 156.995 140.335 154.285 140.335C148.714 140.333 145.85 135.855 147.886 130.336C149.924 124.816 156.09 120.345 161.661 120.347C164.329 120.347 166.378 121.377 167.562 123.053L163.904 126.261C163.24 125.315 162.09 124.737 160.594 124.737C157.469 124.737 154.009 127.243 152.868 130.339C151.726 133.434 153.333 135.944 156.457 135.944C157.924 135.944 159.467 135.392 160.807 134.481L162.297 137.553H162.299Z" fill="url(#paint19_linear_699_38)"/>
<path d="M178.088 128.878L181.729 139.933H175.493L172.43 131.21C172.097 131.356 171.785 131.491 171.561 131.589L168.484 139.927H163.43L173.305 113.166H178.359L172.735 128.404L182.519 120.888H188.755L177.947 128.935L178.086 128.878H178.088Z" fill="url(#paint20_linear_699_38)"/>
<g clip-path="url(#clip0_699_38)" filter="url(#filter10_f_699_38)">
<path d="M159.943 14.2575C151.23 14.3229 151.202 14.3814 157.322 20.6984C151.119 14.4656 151.062 14.4913 150.998 23.367C150.933 14.4937 150.876 14.4656 144.673 20.6984C150.793 14.3814 150.768 14.3229 142.053 14.2575C150.766 14.192 150.793 14.1335 144.673 7.81649C150.876 14.0493 150.933 14.0236 150.998 5.14795C151.062 14.0212 151.119 14.0493 157.322 7.81649C151.202 14.1335 151.227 14.192 159.943 14.2575Z" fill="white"/>
<path d="M159.943 14.2575C151.23 14.3229 151.202 14.3814 157.322 20.6984C151.119 14.4656 151.062 14.4913 150.998 23.367C150.933 14.4937 150.876 14.4656 144.673 20.6984C150.793 14.3814 150.768 14.3229 142.053 14.2575C150.766 14.192 150.793 14.1335 144.673 7.81649C150.876 14.0493 150.933 14.0236 150.998 5.14795C151.062 14.0212 151.119 14.0493 157.322 7.81649C151.202 14.1335 151.227 14.192 159.943 14.2575Z" stroke="white" stroke-width="0.5" stroke-linecap="round" stroke-linejoin="round"/>
</g>
<defs>
<filter id="filter0_i_699_38" x="39.5117" y="20.9771" width="113.064" height="125.987" filterUnits="userSpaceOnUse" color-interpolation-filters="sRGB">
<feFlood flood-opacity="0" result="BackgroundImageFix"/>
<feBlend mode="normal" in="SourceGraphic" in2="BackgroundImageFix" result="shape"/>
<feColorMatrix in="SourceAlpha" type="matrix" values="0 0 0 0 0 0 0 0 0 0 0 0 0 0 0 0 0 0 127 0" result="hardAlpha"/>
<feOffset dy="5"/>
<feGaussianBlur stdDeviation="4.8"/>
<feComposite in2="hardAlpha" operator="arithmetic" k2="-1" k3="1"/>
<feColorMatrix type="matrix" values="0 0 0 0 0 0 0 0 0 0 0 0 0 0 0 0 0 0 0.25 0"/>
<feBlend mode="normal" in2="shape" result="effect1_innerShadow_699_38"/>
</filter>
<filter id="filter1_di_699_38" x="78" y="62.0288" width="76.7461" height="80.0034" filterUnits="userSpaceOnUse" color-interpolation-filters="sRGB">
<feFlood flood-opacity="0" result="BackgroundImageFix"/>
<feColorMatrix in="SourceAlpha" type="matrix" values="0 0 0 0 0 0 0 0 0 0 0 0 0 0 0 0 0 0 127 0" result="hardAlpha"/>
<feOffset dy="-5"/>
<feGaussianBlur stdDeviation="2"/>
<feComposite in2="hardAlpha" operator="out"/>
<feColorMatrix type="matrix" values="0 0 0 0 0 0 0 0 0 0 0 0 0 0 0 0 0 0 0.25 0"/>
<feBlend mode="normal" in2="BackgroundImageFix" result="effect1_dropShadow_699_38"/>
<feBlend mode="normal" in="SourceGraphic" in2="effect1_dropShadow_699_38" result="shape"/>
<feColorMatrix in="SourceAlpha" type="matrix" values="0 0 0 0 0 0 0 0 0 0 0 0 0 0 0 0 0 0 127 0" result="hardAlpha"/>
<feOffset dx="7" dy="5"/>
<feGaussianBlur stdDeviation="6.2"/>
<feComposite in2="hardAlpha" operator="arithmetic" k2="-1" k3="1"/>
<feColorMatrix type="matrix" values="0 0 0 0 0 0 0 0 0 0 0 0 0 0 0 0 0 0 0.25 0"/>
<feBlend mode="normal" in2="shape" result="effect2_innerShadow_699_38"/>
</filter>
<filter id="filter2_di_699_38" x="40.3477" y="38.9077" width="51.543" height="96.7729" filterUnits="userSpaceOnUse" color-interpolation-filters="sRGB">
<feFlood flood-opacity="0" result="BackgroundImageFix"/>
<feColorMatrix in="SourceAlpha" type="matrix" values="0 0 0 0 0 0 0 0 0 0 0 0 0 0 0 0 0 0 127 0" result="hardAlpha"/>
<feOffset dy="4"/>
<feGaussianBlur stdDeviation="2"/>
<feComposite in2="hardAlpha" operator="out"/>
<feColorMatrix type="matrix" values="0 0 0 0 0 0 0 0 0 0 0 0 0 0 0 0 0 0 0.25 0"/>
<feBlend mode="normal" in2="BackgroundImageFix" result="effect1_dropShadow_699_38"/>
<feBlend mode="normal" in="SourceGraphic" in2="effect1_dropShadow_699_38" result="shape"/>
<feColorMatrix in="SourceAlpha" type="matrix" values="0 0 0 0 0 0 0 0 0 0 0 0 0 0 0 0 0 0 127 0" result="hardAlpha"/>
<feOffset dx="2" dy="-5"/>
<feGaussianBlur stdDeviation="1.25"/>
<feComposite in2="hardAlpha" operator="arithmetic" k2="-1" k3="1"/>
<feColorMatrix type="matrix" values="0 0 0 0 1 0 0 0 0 1 0 0 0 0 0.647059 0 0 0 1 0"/>
<feBlend mode="normal" in2="shape" result="effect2_innerShadow_699_38"/>
</filter>
<filter id="filter3_i_699_38" x="70.3477" y="25.4497" width="40.718" height="41.6392" filterUnits="userSpaceOnUse" color-interpolation-filters="sRGB">
<feFlood flood-opacity="0" result="BackgroundImageFix"/>
<feBlend mode="normal" in="SourceGraphic" in2="BackgroundImageFix" result="shape"/>
<feColorMatrix in="SourceAlpha" type="matrix" values="0 0 0 0 0 0 0 0 0 0 0 0 0 0 0 0 0 0 127 0" result="hardAlpha"/>
<feOffset dx="6"/>
<feGaussianBlur stdDeviation="1.15"/>
<feComposite in2="hardAlpha" operator="arithmetic" k2="-1" k3="1"/>
<feColorMatrix type="matrix" values="0 0 0 0 0.514423 0 0 0 0 1 0 0 0 0 0.546795 0 0 0 0.85 0"/>
<feBlend mode="normal" in2="shape" result="effect1_innerShadow_699_38"/>
</filter>
<filter id="filter4_di_699_38" x="58.1289" y="63.1763" width="48.8867" height="48.625" filterUnits="userSpaceOnUse" color-interpolation-filters="sRGB">
<feFlood flood-opacity="0" result="BackgroundImageFix"/>
<feColorMatrix in="SourceAlpha" type="matrix" values="0 0 0 0 0 0 0 0 0 0 0 0 0 0 0 0 0 0 127 0" result="hardAlpha"/>
<feOffset dy="4"/>
<feGaussianBlur stdDeviation="2"/>
<feComposite in2="hardAlpha" operator="out"/>
<feColorMatrix type="matrix" values="0 0 0 0 0 0 0 0 0 0 0 0 0 0 0 0 0 0 0.25 0"/>
<feBlend mode="normal" in2="BackgroundImageFix" result="effect1_dropShadow_699_38"/>
<feBlend mode="normal" in="SourceGraphic" in2="effect1_dropShadow_699_38" result="shape"/>
<feColorMatrix in="SourceAlpha" type="matrix" values="0 0 0 0 0 0 0 0 0 0 0 0 0 0 0 0 0 0 127 0" result="hardAlpha"/>
<feOffset dx="5" dy="-3"/>
<feGaussianBlur stdDeviation="0.75"/>
<feComposite in2="hardAlpha" operator="arithmetic" k2="-1" k3="1"/>
<feColorMatrix type="matrix" values="0 0 0 0 0.514423 0 0 0 0 1 0 0 0 0 0.546795 0 0 0 0.53 0"/>
<feBlend mode="normal" in2="shape" result="effect2_innerShadow_699_38"/>
</filter>
<filter id="filter5_di_699_38" x="102.559" y="26.0674" width="47.4648" height="47.6398" filterUnits="userSpaceOnUse" color-interpolation-filters="sRGB">
<feFlood flood-opacity="0" result="BackgroundImageFix"/>
<feColorMatrix in="SourceAlpha" type="matrix" values="0 0 0 0 0 0 0 0 0 0 0 0 0 0 0 0 0 0 127 0" result="hardAlpha"/>
<feOffset dy="-2"/>
<feGaussianBlur stdDeviation="2"/>
<feComposite in2="hardAlpha" operator="out"/>
<feColorMatrix type="matrix" values="0 0 0 0 0 0 0 0 0 0 0 0 0 0 0 0 0 0 0.25 0"/>
<feBlend mode="normal" in2="BackgroundImageFix" result="effect1_dropShadow_699_38"/>
<feBlend mode="normal" in="SourceGraphic" in2="effect1_dropShadow_699_38" result="shape"/>
<feColorMatrix in="SourceAlpha" type="matrix" values="0 0 0 0 0 0 0 0 0 0 0 0 0 0 0 0 0 0 127 0" result="hardAlpha"/>
<feOffset dx="-1" dy="4"/>
<feGaussianBlur stdDeviation="1.15"/>
<feComposite in2="hardAlpha" operator="arithmetic" k2="-1" k3="1"/>
<feColorMatrix type="matrix" values="0 0 0 0 0.514423 0 0 0 0 1 0 0 0 0 0.546795 0 0 0 0.68 0"/>
<feBlend mode="normal" in2="shape" result="effect2_innerShadow_699_38"/>
</filter>
<filter id="filter6_di_699_38" x="97.377" y="69.4351" width="46.2402" height="48.5166" filterUnits="userSpaceOnUse" color-interpolation-filters="sRGB">
<feFlood flood-opacity="0" result="BackgroundImageFix"/>
<feColorMatrix in="SourceAlpha" type="matrix" values="0 0 0 0 0 0 0 0 0 0 0 0 0 0 0 0 0 0 127 0" result="hardAlpha"/>
<feOffset dy="4"/>
<feGaussianBlur stdDeviation="2"/>
<feComposite in2="hardAlpha" operator="out"/>
<feColorMatrix type="matrix" values="0 0 0 0 0 0 0 0 0 0 0 0 0 0 0 0 0 0 0.25 0"/>
<feBlend mode="normal" in2="BackgroundImageFix" result="effect1_dropShadow_699_38"/>
<feBlend mode="normal" in="SourceGraphic" in2="effect1_dropShadow_699_38" result="shape"/>
<feColorMatrix in="SourceAlpha" type="matrix" values="0 0 0 0 0 0 0 0 0 0 0 0 0 0 0 0 0 0 127 0" result="hardAlpha"/>
<feOffset dx="8" dy="10"/>
<feGaussianBlur stdDeviation="1.15"/>
<feComposite in2="hardAlpha" operator="arithmetic" k2="-1" k3="1"/>
<feColorMatrix type="matrix" values="0 0 0 0 0.514423 0 0 0 0 1 0 0 0 0 0.546795 0 0 0 0.25 0"/>
<feBlend mode="normal" in2="shape" result="effect2_innerShadow_699_38"/>
</filter>
<filter id="filter7_i_699_38" x="71.0117" y="97.6245" width="29.1086" height="36.3845" filterUnits="userSpaceOnUse" color-interpolation-filters="sRGB">
<feFlood flood-opacity="0" result="BackgroundImageFix"/>
<feBlend mode="normal" in="SourceGraphic" in2="BackgroundImageFix" result="shape"/>
<feColorMatrix in="SourceAlpha" type="matrix" values="0 0 0 0 0 0 0 0 0 0 0 0 0 0 0 0 0 0 127 0" result="hardAlpha"/>
<feOffset dx="8" dy="10"/>
<feGaussianBlur stdDeviation="1.15"/>
<feComposite in2="hardAlpha" operator="arithmetic" k2="-1" k3="1"/>
<feColorMatrix type="matrix" values="0 0 0 0 0.514423 0 0 0 0 1 0 0 0 0 0.546795 0 0 0 0.25 0"/>
<feBlend mode="normal" in2="shape" result="effect1_innerShadow_699_38"/>
</filter>
<filter id="filter8_d_699_38" x="90.3906" y="46.8726" width="17.3555" height="28.2168" filterUnits="userSpaceOnUse" color-interpolation-filters="sRGB">
<feFlood flood-opacity="0" result="BackgroundImageFix"/>
<feColorMatrix in="SourceAlpha" type="matrix" values="0 0 0 0 0 0 0 0 0 0 0 0 0 0 0 0 0 0 127 0" result="hardAlpha"/>
<feOffset dy="4"/>
<feGaussianBlur stdDeviation="2"/>
<feComposite in2="hardAlpha" operator="out"/>
<feColorMatrix type="matrix" values="0 0 0 0 0 0 0 0 0 0 0 0 0 0 0 0 0 0 0.25 0"/>
<feBlend mode="normal" in2="BackgroundImageFix" result="effect1_dropShadow_699_38"/>
<feBlend mode="normal" in="SourceGraphic" in2="effect1_dropShadow_699_38" result="shape"/>
</filter>
<filter id="filter9_d_699_38" x="104.27" y="77.9946" width="28.8633" height="30.2329" filterUnits="userSpaceOnUse" color-interpolation-filters="sRGB">
<feFlood flood-opacity="0" result="BackgroundImageFix"/>
<feColorMatrix in="SourceAlpha" type="matrix" values="0 0 0 0 0 0 0 0 0 0 0 0 0 0 0 0 0 0 127 0" result="hardAlpha"/>
<feOffset dy="4"/>
<feGaussianBlur stdDeviation="2"/>
<feComposite in2="hardAlpha" operator="out"/>
<feColorMatrix type="matrix" values="0 0 0 0 0.0999584 0 0 0 0 0.100962 0 0 0 0 0.0859144 0 0 0 0.33 0"/>
<feBlend mode="normal" in2="BackgroundImageFix" result="effect1_dropShadow_699_38"/>
<feBlend mode="normal" in="SourceGraphic" in2="effect1_dropShadow_699_38" result="shape"/>
</filter>
<clipPath id="paint10_diamond_699_38_clip_path"><path d="M191.294 120.014C190.923 118.852 189.858 118.065 188.659 118.065L182.422 118.063C181.818 118.063 181.233 118.263 180.751 118.632L178.6 120.286L180.86 114.163C181.18 113.296 181.063 112.324 180.544 111.561C180.025 110.799 179.174 110.344 178.265 110.344L173.208 110.342C172.052 110.342 171.019 111.072 170.611 112.174L167.901 119.519C166.212 118.221 164.037 117.524 161.557 117.524C158.061 117.524 154.446 118.926 151.432 121.199C151.407 120.588 151.225 119.995 150.882 119.491C150.288 118.619 149.296 118.097 148.227 118.097H144.221C142.716 118.097 141.292 119.106 140.757 120.556L136.471 132.171C136.443 132.199 136.415 132.226 136.386 132.254C135.871 132.743 135.237 133.093 134.676 133.212L138.614 122.54C138.996 121.506 138.868 120.362 138.27 119.484C137.677 118.613 136.684 118.091 135.615 118.091H131.887C130.382 118.091 128.956 119.102 128.423 120.549L124.054 132.389C123.913 132.367 123.77 132.349 123.625 132.349H117.45L124.026 114.528C124.346 113.661 124.229 112.69 123.71 111.927C123.191 111.164 122.34 110.709 121.431 110.709L116.071 110.707C114.915 110.707 113.882 111.438 113.474 112.54L111.417 118.113C111.242 118.03 111.056 117.965 110.864 117.921C110.394 117.815 109.897 117.76 109.389 117.76C109.193 117.76 108.994 117.769 108.789 117.784C107.607 117.88 106.313 118.217 105.05 118.773C104.555 118.35 103.923 118.108 103.261 118.108L98.1904 118.106C97.0336 118.106 96.0006 118.836 95.593 119.938L94.6539 122.486C93.1449 119.636 89.952 117.787 86.0484 117.787C85.1755 117.787 84.2663 117.884 83.3507 118.078C80.0938 118.762 76.8326 120.588 74.3739 122.934C74.1626 121.979 73.7592 121.09 73.168 120.323C71.8106 118.56 69.6422 117.589 67.0533 117.587C66.3554 117.587 65.6382 117.656 64.9147 117.793L66.3852 113.809C66.7054 112.942 66.588 111.97 66.0694 111.207C65.5507 110.444 64.6992 109.99 63.7899 109.99L58.4713 109.988C57.3145 109.988 56.2815 110.718 55.8739 111.82L53.5005 118.254C53.2743 118.193 53.0374 118.16 52.7984 118.16H51.7142L52.3929 116.322C52.7343 115.398 52.5764 114.361 51.9809 113.585C51.3833 112.809 50.4314 112.405 49.471 112.522L44.1865 113.159C43.1557 113.283 42.2806 113.983 41.9156 114.972L40.7418 118.156H39.6768C38.52 118.156 37.487 118.886 37.0793 119.988L36.9406 120.364C35.2268 118.739 32.7659 117.765 29.9316 117.763C29.0587 117.763 28.1495 117.86 27.2339 118.054C27.1293 118.076 27.0247 118.102 26.9201 118.126L28.2092 114.633C28.5294 113.765 28.412 112.794 27.8934 112.031C27.3747 111.268 26.5232 110.814 25.6139 110.814L4.84306 110.803C3.68628 110.803 2.65328 111.533 2.24563 112.635L0.440024 117.48C0.119881 118.347 0.237267 119.319 0.755899 120.082C1.27453 120.845 2.12611 121.299 3.03532 121.299H6.70202L0.177507 138.983C-0.142636 139.85 -0.0252506 140.824 0.493381 141.585C1.01201 142.348 1.86359 142.802 2.7728 142.802L8.04876 142.804C9.20554 142.804 10.2385 142.074 10.6462 140.972L12.9619 134.699C13.011 136.327 13.4976 137.864 14.4153 139.207C16.2124 141.841 19.4608 143.354 23.3303 143.356H23.3388C26.8454 143.356 30.6359 142.1 33.7328 139.911C34.2237 139.566 34.5716 139.083 34.7594 138.546C34.9899 139.203 35.3314 139.82 35.7817 140.379C37.1989 142.141 39.4825 143.115 42.2102 143.115H42.2144C43.7469 143.115 45.3305 142.802 46.8352 142.207C47.3026 142.55 47.866 142.743 48.4572 142.743L53.7759 142.746C54.9327 142.746 55.9657 142.015 56.3733 140.913L60.8852 128.687C61.6258 127.887 62.5585 127.448 63.2073 127.398L58.9515 138.929C58.6314 139.796 58.7488 140.768 59.2674 141.531C59.786 142.294 60.6376 142.748 61.5468 142.748L66.4109 142.75C67.5676 142.75 68.6006 142.02 69.0083 140.918L69.9794 138.288C70.1437 138.612 70.3273 138.927 70.5364 139.231C72.3335 141.865 75.5819 143.378 79.4514 143.38H79.4599C82.4799 143.38 85.7091 142.448 88.5263 140.789C88.6096 141.055 88.7248 141.311 88.8849 141.546C89.4035 142.309 90.2551 142.763 91.1643 142.763L96.2354 142.765C97.3922 142.765 98.4252 142.035 98.8328 140.933L102.248 131.682C102.416 131.224 102.734 130.741 103.17 130.285C104.265 129.13 105.991 128.276 107.468 128.159C107.524 128.154 107.579 128.152 107.63 128.152C107.656 128.152 107.677 128.152 107.701 128.152L103.742 138.877C103.422 139.744 103.539 140.716 104.058 141.478C104.576 142.241 105.428 142.696 106.337 142.696L111.696 142.698C111.76 142.698 111.824 142.696 111.886 142.691L121.877 142.696C123.034 142.696 124.067 141.965 124.474 140.863L124.5 140.792C125.855 142.302 127.981 143.133 130.533 143.135H130.54C132.185 143.135 133.884 142.796 135.427 142.178C135.946 142.52 136.563 142.709 137.207 142.711H141.216C142.72 142.711 144.144 141.7 144.679 140.253L145.418 138.253C145.576 138.555 145.747 138.851 145.939 139.135C147.695 141.722 150.623 143.146 154.181 143.148H154.188C156.424 143.148 158.779 142.565 161.026 141.481C161.034 141.494 161.041 141.507 161.049 141.518C161.568 142.281 162.42 142.735 163.329 142.735L168.385 142.737C169.542 142.737 170.575 142.007 170.982 140.905L171.911 138.39L172.779 140.868C173.174 141.991 174.22 142.741 175.39 142.741L181.626 142.743C182.518 142.743 183.357 142.307 183.878 141.568C184.399 140.829 184.539 139.881 184.256 139.018L181.248 129.885L190.291 123.155C191.26 122.434 191.664 121.16 191.292 119.997L191.294 120.014ZM16.699 124.577L17.9049 121.308C17.9049 121.308 18.94 121.308 20.1416 121.308C18.8333 122.271 17.6573 123.381 16.699 124.575V124.577ZM33.784 134.677C33.784 134.677 34.2685 134.677 34.642 134.677C34.627 134.73 34.6078 134.782 34.595 134.834C34.5758 134.916 34.5502 135.025 34.5289 135.151C34.4798 135.41 34.4478 135.669 34.4264 135.925L33.784 134.677ZM40.0759 136.799C40.0204 136.729 39.9201 136.605 39.9649 136.286L40.2338 135.56C40.3768 136.21 40.6585 136.79 41.079 137.299C41.0918 137.314 41.1046 137.329 41.1174 137.344C40.5796 137.214 40.2338 136.997 40.0759 136.801V136.799ZM46.3336 132.465C46.4168 132.243 46.5022 132.019 46.5855 131.793C46.7306 131.4 46.8522 131.084 46.9654 130.804C47.405 129.724 47.1382 128.526 46.3827 127.742H49.9896L47.9237 133.338C47.4498 133.149 46.9312 133.088 46.4147 133.184C46.2909 133.206 46.1671 133.225 46.0412 133.241C46.1309 132.993 46.229 132.73 46.3315 132.462L46.3336 132.465ZM43.8301 123.531C43.7917 123.599 43.7575 123.67 43.7255 123.74C43.7042 123.694 43.6828 123.649 43.6615 123.605C43.7191 123.583 43.7767 123.557 43.8301 123.531ZM43.3541 127.107L43.7276 126.096C43.8621 126.396 44.0478 126.668 44.274 126.9C43.956 126.916 43.6465 126.987 43.3563 127.109L43.3541 127.107ZM45.0744 122.355C45.1128 122.288 45.1469 122.218 45.179 122.147C45.2003 122.192 45.2216 122.238 45.243 122.282C45.1854 122.305 45.1299 122.329 45.0744 122.355ZM90.1377 134.706L90.0417 134.966L89.9072 134.706C89.9072 134.706 90.0011 134.706 90.1377 134.706ZM156.358 133.119C155.84 133.119 155.443 132.989 155.293 132.769C155.157 132.567 155.093 132.069 155.364 131.332C156.091 129.359 158.535 127.563 160.49 127.563C161 127.563 161.395 127.692 161.545 127.905C161.997 128.55 162.697 128.972 163.47 129.067C163.581 129.08 163.692 129.087 163.801 129.087C163.999 129.087 164.195 129.063 164.387 129.02L162.97 132.858C162.599 132.321 162.055 131.926 161.423 131.752C161.186 131.687 160.945 131.656 160.706 131.656C160.164 131.656 159.626 131.819 159.165 132.132C158.241 132.76 157.218 133.119 156.356 133.119H156.358Z"/></clipPath><filter id="filter10_f_699_38" x="140" y="3.0918" width="22" height="22.3311" filterUnits="userSpaceOnUse" color-interpolation-filters="sRGB">
<feFlood flood-opacity="0" result="BackgroundImageFix"/>
<feBlend mode="normal" in="SourceGraphic" in2="BackgroundImageFix" result="shape"/>
<feGaussianBlur stdDeviation="1" result="effect1_foregroundBlur_699_38"/>
</filter>
<linearGradient id="paint0_linear_699_38" x1="45.7656" y1="87.2204" x2="141.555" y2="97.6867" gradientUnits="userSpaceOnUse">
<stop offset="0.00480769" stop-color="#51FADA"/>
<stop offset="0.173077" stop-color="#054438"/>
<stop offset="0.552885" stop-color="#1C232D"/>
<stop offset="0.759615" stop-color="#237C6B"/>
</linearGradient>
<linearGradient id="paint1_linear_699_38" x1="73.2475" y1="42.2629" x2="61.2536" y2="126.918" gradientUnits="userSpaceOnUse">
<stop stop-color="#FFC73B"/>
<stop offset="1" stop-color="#DD9F50"/>
</linearGradient>
<linearGradient id="paint2_linear_699_38" x1="70.9386" y1="42.5068" x2="98.2079" y2="51.3184" gradientUnits="userSpaceOnUse">
<stop stop-color="#37A54F"/>
<stop offset="0.373852" stop-color="#E7FF30"/>
<stop offset="0.865385" stop-color="#44E868"/>
</linearGradient>
<linearGradient id="paint3_linear_699_38" x1="100.686" y1="86.8585" x2="61.4452" y2="81.2807" gradientUnits="userSpaceOnUse">
<stop stop-color="#37A54F"/>
<stop offset="0.67464" stop-color="#E7FF30" stop-opacity="0.77"/>
<stop offset="0.865385" stop-color="#44E868"/>
</linearGradient>
<linearGradient id="paint4_linear_699_38" x1="146.892" y1="54.2078" x2="109.112" y2="48.8461" gradientUnits="userSpaceOnUse">
<stop stop-color="#37A54F"/>
<stop offset="0.67464" stop-color="#E7FF30"/>
<stop offset="0.865385" stop-color="#44E868"/>
</linearGradient>
<linearGradient id="paint5_linear_699_38" x1="139.023" y1="93.7882" x2="102.115" y2="88.5573" gradientUnits="userSpaceOnUse">
<stop stop-color="#37A54F"/>
<stop offset="0.67464" stop-color="#E7FF30" stop-opacity="0.52"/>
<stop offset="0.865385" stop-color="#44E868"/>
</linearGradient>
<linearGradient id="paint6_linear_699_38" x1="86.9356" y1="96.1756" x2="81.8094" y2="132.356" gradientUnits="userSpaceOnUse">
<stop stop-color="#37A54F"/>
<stop offset="1" stop-color="#44E868"/>
</linearGradient>
<linearGradient id="paint7_linear_699_38" x1="93.6013" y1="58.1819" x2="103.749" y2="59.3783" gradientUnits="userSpaceOnUse">
<stop stop-color="#054438"/>
<stop offset="0.552885" stop-color="#0DAA8C"/>
<stop offset="1" stop-color="#1F8C77"/>
</linearGradient>
<linearGradient id="paint8_linear_699_38" x1="108.48" y1="61.7456" x2="122.209" y2="63.1908" gradientUnits="userSpaceOnUse">
<stop stop-color="#054438"/>
<stop offset="0.552885" stop-color="#0DAA8C"/>
<stop offset="1" stop-color="#1F8C77"/>
</linearGradient>
<linearGradient id="paint9_linear_699_38" x1="87.4883" y1="77.4345" x2="100.454" y2="78.8444" gradientUnits="userSpaceOnUse">
<stop stop-color="#054438"/>
<stop offset="0.552885" stop-color="#0DAA8C"/>
<stop offset="1" stop-color="#1F8C77"/>
</linearGradient>
<linearGradient id="paint10_diamond_699_38" x1="0" y1="0" x2="500" y2="500" gradientUnits="userSpaceOnUse">
<stop stop-color="#0E1141"/>
<stop offset="0.201923" stop-color="#2E325C"/>
<stop offset="0.389423" stop-color="#1D2250"/>
<stop offset="0.995192" stop-color="#3010A3"/>
</linearGradient>
<linearGradient id="paint11_linear_699_38" x1="2.87695" y1="126.797" x2="25.7032" y2="126.797" gradientUnits="userSpaceOnUse">
<stop stop-color="#538C9C"/>
<stop offset="0.432692" stop-color="#17BE9B"/>
<stop offset="1" stop-color="#FFF700"/>
</linearGradient>
<linearGradient id="paint12_linear_699_38" x1="15.8398" y1="130.555" x2="36.7914" y2="130.555" gradientUnits="userSpaceOnUse">
<stop stop-color="#538C9C"/>
<stop offset="0.432692" stop-color="#17BE9B"/>
<stop offset="1" stop-color="#FFF700"/>
</linearGradient>
<linearGradient id="paint13_linear_699_38" x1="71.9668" y1="130.583" x2="92.9184" y2="130.583" gradientUnits="userSpaceOnUse">
<stop stop-color="#538C9C"/>
<stop offset="0.432692" stop-color="#17BE9B"/>
<stop offset="1" stop-color="#FFF700"/>
</linearGradient>
<linearGradient id="paint14_linear_699_38" x1="37.2832" y1="127.807" x2="52.891" y2="127.807" gradientUnits="userSpaceOnUse">
<stop stop-color="#538C9C"/>
<stop offset="0.432692" stop-color="#17BE9B"/>
<stop offset="1" stop-color="#FFF700"/>
</linearGradient>
<linearGradient id="paint15_linear_699_38" x1="48.5605" y1="126.367" x2="71.8714" y2="126.367" gradientUnits="userSpaceOnUse">
<stop stop-color="#538C9C"/>
<stop offset="0.432692" stop-color="#17BE9B"/>
<stop offset="1" stop-color="#FFF700"/>
</linearGradient>
<linearGradient id="paint16_linear_699_38" x1="91.2715" y1="130.268" x2="110.356" y2="130.268" gradientUnits="userSpaceOnUse">
<stop stop-color="#538C9C"/>
<stop offset="0.432692" stop-color="#17BE9B"/>
<stop offset="1" stop-color="#FFF700"/>
</linearGradient>
<linearGradient id="paint17_linear_699_38" x1="106.443" y1="126.707" x2="123.72" y2="126.707" gradientUnits="userSpaceOnUse">
<stop stop-color="#FBE8B5"/>
<stop offset="1" stop-color="#D1EB08"/>
</linearGradient>
<linearGradient id="paint18_linear_699_38" x1="125.883" y1="130.618" x2="148.769" y2="130.618" gradientUnits="userSpaceOnUse">
<stop stop-color="#FBE8B5"/>
<stop offset="1" stop-color="#D1EB08"/>
</linearGradient>
<linearGradient id="paint19_linear_699_38" x1="147.23" y1="130.341" x2="167.562" y2="130.341" gradientUnits="userSpaceOnUse">
<stop stop-color="#FBE8B5"/>
<stop offset="1" stop-color="#D1EB08"/>
</linearGradient>
<linearGradient id="paint20_linear_699_38" x1="163.43" y1="126.549" x2="188.755" y2="126.549" gradientUnits="userSpaceOnUse">
<stop stop-color="#FBE8B5"/>
<stop offset="1" stop-color="#D1EB08"/>
</linearGradient>
<clipPath id="clip0_699_38">
<rect width="18" height="18.3313" fill="white" transform="translate(142 5.0918)"/>
</clipPath>
</defs>
</svg>
