<svg width="134" height="50" viewBox="0 0 134 50" fill="none" xmlns="http://www.w3.org/2000/svg">
<path d="M127.101 29.6995C122.171 25.9048 119.545 23.8695 119.446 23.1217C120.508 23.5385 122.241 24.3919 124.713 25.6148C122.236 24.3692 120.505 23.4949 119.539 22.8934C120.114 22.4618 123.351 23.308 129.499 24.9302C123.441 23.2854 120.221 22.3978 119.866 21.7421C121.004 21.7151 122.933 21.8357 125.69 22.0103C122.928 21.8131 121.001 21.6715 119.875 21.4912C120.277 20.8813 123.577 20.4304 129.807 19.6008C123.488 20.3994 120.177 20.8082 119.69 20.3098C120.721 19.8437 122.549 19.2091 125.172 18.3054C122.571 19.1827 120.746 19.7931 119.643 20.0653C119.887 19.3452 122.746 17.7197 128.06 14.7134C122.536 17.7884 119.641 19.3864 119.007 19.0953C119.781 18.2818 121.235 17.0078 123.328 15.1839C121.248 16.9754 119.789 18.2267 118.875 18.8884C118.825 18.1291 120.836 15.5586 124.578 10.803C120.733 15.6202 118.681 18.169 117.931 18.2179C118.341 17.1746 119.2 15.4487 120.439 12.971C119.181 15.4399 118.302 17.1571 117.701 18.1062C117.284 17.4912 118.108 14.3349 119.674 8.3966C118.085 14.2466 117.219 17.3811 116.554 17.774C116.516 16.65 116.629 14.7311 116.792 11.9796C116.606 14.7499 116.473 16.6742 116.293 17.779C115.66 17.4167 115.158 14.18 114.224 8.02525C115.098 14.0817 115.556 17.3209 115.108 17.9005C114.632 16.8733 113.982 15.0643 113.053 12.4629C113.968 15.0782 114.599 16.9003 114.874 17.9914C114.163 17.8544 112.46 15.0278 109.254 9.67053C112.395 14.9997 114.06 17.8482 113.862 18.5449C113.038 17.767 111.75 16.3297 109.911 14.2696C111.739 16.3445 113.012 17.7958 113.685 18.708C112.98 18.844 110.32 16.839 105.301 13.0275C110.231 16.8222 112.857 18.8575 112.956 19.6086C111.893 19.1919 110.161 18.3384 107.689 17.1156C110.165 18.3611 111.896 19.2354 112.862 19.837C112.288 20.2685 109.05 19.4224 102.903 17.8002C108.961 19.4449 112.18 20.3325 112.536 20.9882C111.398 21.0153 109.468 20.8946 106.712 20.72C109.473 20.9173 111.4 21.0589 112.526 21.2391C112.124 21.849 108.825 22.2999 102.595 23.1295C108.914 22.331 112.224 21.9221 112.712 22.4205C111.68 22.8866 109.852 23.5212 107.229 24.4249C109.83 23.5476 111.656 22.9372 112.758 22.665C112.515 23.3851 109.655 25.0107 104.341 28.017C109.865 24.942 112.761 23.3439 113.394 23.6351C112.62 24.4486 111.166 25.7225 109.073 27.5464C111.154 25.7549 112.612 24.5037 113.527 23.8419C113.576 24.6012 111.565 27.1717 107.824 31.9273C111.668 27.1101 113.72 24.5614 114.471 24.5125C114.061 25.5558 113.201 27.2817 111.963 29.7593C113.22 27.2904 114.1 25.5733 114.701 24.6241C115.118 25.2392 114.293 28.3954 112.728 34.3337C114.317 28.4838 115.182 25.3492 115.847 24.9563C115.886 26.0804 115.772 27.9992 115.61 30.7507C115.796 27.9804 115.928 26.0561 116.109 24.9514C116.741 25.3137 117.243 28.5504 118.177 34.7051C117.304 28.6486 116.846 25.4095 117.294 24.8298C117.77 25.857 118.419 27.666 119.348 30.2674C118.434 27.6521 117.802 25.83 117.527 24.739C118.239 24.876 119.941 27.7026 123.148 33.0598C120.006 27.7306 118.342 24.8822 118.539 24.1854C119.364 24.9633 120.651 26.4007 122.491 28.4607C120.663 26.3858 119.39 24.9345 118.717 24.0223C119.421 23.8863 122.081 25.8913 127.1 29.7029L127.101 29.6995Z" fill="url(#paint0_linear_749_7)"/>
<path d="M119.704 8.31504C119.751 8.32768 119.778 8.37425 119.765 8.42088C118.368 13.7188 117.49 17.0465 117.723 17.919C118.306 16.9687 119.122 15.3809 120.367 12.9302C120.389 12.8896 120.444 12.8722 120.482 12.8931C120.526 12.9157 120.542 12.9662 120.52 13.0068C119.291 15.4621 118.498 17.0595 118.078 18.0892C118.927 17.7384 121.08 15.0418 124.511 10.7455C124.543 10.7076 124.594 10.7036 124.634 10.732C124.673 10.7604 124.68 10.8158 124.648 10.8537C121.429 14.939 119.232 17.7343 118.984 18.6996C119.873 18.0382 121.222 16.8861 123.271 15.1182C123.307 15.0888 123.361 15.0924 123.395 15.1265C123.425 15.1631 123.425 15.2167 123.387 15.2494C121.307 17.066 119.957 18.2499 119.18 19.045C120.047 19.0737 123.278 17.2763 128.02 14.6379C128.062 14.6137 128.116 14.6281 128.138 14.6696C128.162 14.7119 128.148 14.7652 128.106 14.7861C123.542 17.3685 120.417 19.1337 119.821 19.9306C120.912 19.6448 122.587 19.0867 125.149 18.2203C125.193 18.2036 125.244 18.2281 125.26 18.2752C125.277 18.3224 125.253 18.3697 125.206 18.3855C122.595 19.2852 120.901 19.8773 119.871 20.3225C120.678 20.6564 124.37 20.1964 129.795 19.5118C129.843 19.5068 129.886 19.5361 129.895 19.5849C129.9 19.6327 129.871 19.6748 129.822 19.683C124.27 20.4229 120.785 20.8887 120.059 21.4294C121.16 21.5925 122.952 21.7264 125.699 21.9234C125.745 21.9284 125.785 21.9677 125.779 22.0162C125.777 22.0622 125.735 22.1007 125.686 22.0947C122.954 21.9198 121.174 21.8104 120.044 21.8217C120.734 22.4563 124.125 23.3757 129.523 24.8435C129.57 24.8561 129.597 24.9027 129.585 24.9493C129.572 24.9959 129.525 25.0226 129.478 25.01C124.188 23.6139 120.589 22.6602 119.722 22.8994C120.674 23.4722 122.284 24.2889 124.754 25.5326C124.795 25.5543 124.814 25.6058 124.791 25.6497C124.769 25.6903 124.717 25.7085 124.676 25.6868C122.233 24.4787 120.637 23.6941 119.589 23.2634C120.021 24.1323 122.913 26.3604 127.158 29.6252C127.197 29.6536 127.204 29.709 127.172 29.7469C127.143 29.7856 127.088 29.7921 127.049 29.7604C122.744 26.4935 119.805 24.2637 118.895 24.1019C119.565 24.9847 120.745 26.3363 122.559 28.3967C122.589 28.4332 122.586 28.4859 122.552 28.5196C122.514 28.5523 122.461 28.5487 122.427 28.5113C120.608 26.4708 119.41 25.1432 118.613 24.3692C118.683 25.3089 120.526 28.4338 123.223 33.0118C123.248 33.0541 123.234 33.1041 123.192 33.1284C123.149 33.1526 123.098 33.1391 123.074 33.0967C120.322 28.4968 118.445 25.3629 117.656 24.8803C117.945 25.9608 118.53 27.6455 119.434 30.233C119.451 30.2768 119.426 30.3274 119.379 30.3432C119.335 30.3599 119.283 30.3355 119.267 30.2883C118.351 27.7223 117.747 26.0506 117.289 25.0246C116.996 25.9279 117.511 29.4821 118.262 34.6882C118.267 34.736 118.237 34.7781 118.188 34.7864C118.14 34.7913 118.097 34.762 118.089 34.7133C117.284 29.4107 116.74 25.8057 116.17 25.114C116.006 26.2124 115.881 27.9995 115.696 30.7523C115.695 30.7983 115.652 30.8368 115.603 30.8309C115.558 30.8258 115.517 30.7865 115.523 30.7381C115.684 28.0216 115.786 26.2533 115.763 25.137C115.12 25.8677 114.183 29.308 112.81 34.352C112.798 34.3986 112.751 34.4253 112.703 34.4127C112.656 34.4 112.629 34.3535 112.642 34.3068C114.039 29.0089 114.917 25.6813 114.684 24.8087C114.101 25.759 113.285 27.3468 112.04 29.7976C112.018 29.8381 111.963 29.8555 111.925 29.8346C111.881 29.812 111.865 29.7615 111.887 29.7209C113.116 27.2656 113.909 25.6682 114.329 24.6385C113.48 24.9893 111.327 27.6859 107.896 31.9822C107.868 32.021 107.813 32.0241 107.773 31.9957C107.734 31.9673 107.727 31.9119 107.759 31.8741C110.978 27.7887 113.175 24.9934 113.423 24.0281C112.522 24.6968 111.18 25.8474 109.136 27.6095C109.1 27.6389 109.046 27.6354 109.012 27.6012C108.982 27.5646 108.982 27.511 109.02 27.4783C111.1 25.6617 112.446 24.4802 113.227 23.6827C112.36 23.654 109.134 25.449 104.387 28.0898C104.345 28.114 104.291 28.0996 104.269 28.0582C104.245 28.0158 104.259 27.9625 104.301 27.9416C108.865 25.3592 111.99 23.594 112.586 22.7971C111.491 23.082 109.816 23.6435 107.258 24.5074C107.214 24.5241 107.163 24.4997 107.147 24.4525C107.129 24.4086 107.154 24.358 107.201 24.3422C109.817 23.4401 111.518 22.8465 112.533 22.4043C111.724 22.0662 108.034 22.5304 102.608 23.2151C102.56 23.22 102.517 23.1907 102.509 23.1419C102.504 23.0941 102.533 23.052 102.582 23.0438C107.943 22.3277 111.596 21.8427 112.345 21.2974C111.226 21.1332 109.445 20.9986 106.705 20.8035C106.659 20.7984 106.619 20.7591 106.625 20.7107C106.626 20.6646 106.669 20.6261 106.718 20.6321C109.456 20.8089 111.244 20.9167 112.36 20.9051C111.67 20.2705 108.28 19.3477 102.881 17.8834C102.834 17.8707 102.807 17.8241 102.819 17.7775C102.832 17.7309 102.878 17.7042 102.926 17.7168C108.216 19.1129 111.815 20.0666 112.681 19.8274C111.714 19.2435 110.118 18.4337 107.65 17.1942C107.609 17.1725 107.59 17.1211 107.613 17.0771C107.634 17.0365 107.686 17.0183 107.727 17.04C110.171 18.2481 111.767 19.0327 112.815 19.4634C112.383 18.5945 109.49 16.3665 105.246 13.1016C105.207 13.0732 105.2 13.0178 105.232 12.98C105.26 12.9412 105.316 12.9347 105.355 12.9665C109.659 16.2367 112.594 18.4655 113.509 18.6249C112.831 17.7294 111.656 16.3863 109.844 14.3302C109.814 14.2936 109.818 14.2409 109.852 14.2073C109.89 14.1745 109.943 14.1781 109.976 14.2155C111.793 16.2517 112.981 17.5766 113.79 18.3576C113.721 17.4179 111.877 14.293 109.181 9.71503C109.156 9.67269 109.169 9.62273 109.212 9.59845C109.255 9.57418 109.305 9.58773 109.33 9.63006C112.082 14.23 113.959 17.3639 114.747 17.8465C114.459 16.766 113.877 15.0822 112.97 12.4938C112.953 12.45 112.977 12.3994 113.025 12.3836C113.072 12.3678 113.12 12.3913 113.136 12.4385C114.053 15.0045 114.653 16.6753 115.115 17.7022C115.407 16.7989 114.893 13.2447 114.142 8.03858C114.137 7.99077 114.166 7.94866 114.215 7.94042C114.26 7.9346 114.306 7.9648 114.315 8.01352C115.119 13.3161 115.664 16.9211 116.233 17.6128C116.398 16.5111 116.522 14.7273 116.707 11.9745C116.709 11.9285 116.752 11.89 116.8 11.8959C116.846 11.901 116.886 11.9403 116.88 11.9888C116.72 14.7052 116.618 16.4736 116.639 17.5931C117.283 16.8624 118.219 13.4221 119.593 8.37815C119.605 8.33152 119.652 8.30482 119.699 8.31746L119.704 8.31504ZM117.683 18.187C117.663 18.1815 117.645 18.1695 117.631 18.1516C117.396 17.803 117.508 16.7907 117.937 14.8956C117.373 16.7043 116.973 17.629 116.604 17.8477C116.578 17.8623 116.545 17.8641 116.517 17.8494C116.488 17.8346 116.474 17.8058 116.471 17.7765C116.465 17.6106 116.463 17.4281 116.463 17.228C116.436 17.4351 116.411 17.6246 116.383 17.7957C116.376 17.8223 116.362 17.8472 116.334 17.8575C116.309 17.8687 116.277 17.8673 116.252 17.8534C115.891 17.6496 115.587 16.6794 115.226 14.7655C115.429 16.6369 115.429 17.633 115.18 17.9554C115.163 17.9793 115.131 17.9921 115.103 17.9882C115.075 17.9843 115.048 17.9662 115.034 17.9375C114.97 17.7989 114.899 17.6444 114.829 17.4756C114.882 17.6541 114.924 17.819 114.963 17.9721C114.969 18.0023 114.961 18.0323 114.941 18.052C114.922 18.0717 114.89 18.0811 114.862 18.0772C114.458 17.9973 113.831 17.2225 112.79 15.6192C113.685 17.269 114.061 18.1837 113.95 18.5716C113.942 18.6016 113.918 18.6237 113.89 18.6307C113.86 18.6368 113.83 18.6287 113.806 18.6082C113.699 18.5081 113.588 18.3996 113.468 18.2784C113.573 18.4136 113.669 18.5393 113.756 18.6591C113.776 18.6821 113.778 18.7147 113.767 18.7405C113.76 18.7671 113.733 18.7884 113.702 18.7944C113.306 18.8704 112.416 18.375 110.827 17.2565C112.287 18.4654 112.986 19.1881 113.042 19.5993C113.045 19.6287 113.033 19.6611 113.01 19.6799C112.987 19.6987 112.953 19.7039 112.923 19.6924C112.786 19.6378 112.636 19.5763 112.478 19.5087C112.634 19.6005 112.777 19.6854 112.907 19.7666C112.932 19.7805 112.947 19.8059 112.95 19.8352C112.95 19.8637 112.936 19.8885 112.916 19.9082C112.586 20.1554 111.548 20.0379 109.58 19.5892C111.462 20.1718 112.414 20.5806 112.616 20.9486C112.63 20.974 112.629 21.0058 112.614 21.034C112.6 21.0588 112.571 21.0758 112.542 21.0753C112.382 21.0788 112.209 21.0788 112.017 21.0775C112.21 21.1006 112.384 21.1257 112.543 21.1506C112.574 21.1588 112.598 21.176 112.609 21.2005C112.62 21.2283 112.62 21.2568 112.602 21.2807C112.377 21.6237 111.395 21.9032 109.48 22.229C111.468 22.0478 112.496 22.0696 112.773 22.3546C112.793 22.3743 112.8 22.4045 112.796 22.4321C112.789 22.4587 112.772 22.4827 112.747 22.4939C112.603 22.5589 112.448 22.6245 112.277 22.6965C112.441 22.6511 112.593 22.6098 112.736 22.5766C112.766 22.5705 112.8 22.5795 112.82 22.5991C112.842 22.623 112.848 22.6566 112.84 22.6866C112.707 23.0757 111.942 23.6634 110.403 24.6076C112.152 23.7161 113.066 23.3791 113.429 23.5477C113.455 23.5583 113.474 23.5813 113.477 23.6106C113.485 23.6376 113.473 23.6666 113.457 23.6872C113.351 23.7982 113.232 23.9197 113.101 24.0452C113.232 23.9448 113.359 23.8502 113.475 23.7671C113.502 23.7492 113.535 23.744 113.564 23.7588C113.593 23.7736 113.611 23.7999 113.613 23.8326C113.639 24.2466 113.144 25.0957 112.066 26.5737C113.308 25.1324 114.044 24.4479 114.462 24.4243C114.492 24.4215 114.52 24.4363 114.54 24.4593C114.559 24.4823 114.561 24.515 114.55 24.5407C114.492 24.6894 114.423 24.8529 114.347 25.0289C114.446 24.8626 114.537 24.712 114.624 24.5748C114.638 24.55 114.667 24.5363 114.697 24.5335C114.725 24.5341 114.754 24.5489 114.77 24.571C115.005 24.9196 114.893 25.9319 114.464 27.827C115.029 26.0183 115.428 25.0936 115.797 24.8749C115.823 24.8603 115.856 24.8584 115.885 24.8732C115.913 24.888 115.927 24.9167 115.93 24.9461C115.936 25.112 115.938 25.2945 115.938 25.4945C115.965 25.2875 115.99 25.098 116.018 24.9269C116.025 24.9003 116.039 24.8754 116.067 24.8651C116.095 24.8548 116.124 24.8553 116.149 24.8692C116.51 25.073 116.814 26.0432 117.175 27.9571C116.972 26.0857 116.971 25.0929 117.221 24.7672C117.238 24.7432 117.27 24.7305 117.298 24.7344C117.329 24.7392 117.354 24.7564 117.368 24.7851C117.432 24.9236 117.501 25.0815 117.573 25.247C117.52 25.0652 117.478 24.9003 117.438 24.7505C117.432 24.7202 117.44 24.6903 117.46 24.6706C117.479 24.6509 117.511 24.6414 117.539 24.6453C117.94 24.7243 118.57 25.5001 119.611 27.1034C118.717 25.4536 118.34 24.5388 118.451 24.1509C118.46 24.121 118.484 24.0988 118.511 24.0918C118.538 24.0848 118.572 24.0905 118.595 24.1144C118.702 24.2145 118.814 24.3229 118.933 24.4441C118.825 24.3081 118.728 24.1823 118.641 24.0626C118.622 24.0396 118.62 24.0069 118.631 23.9812C118.638 23.9545 118.665 23.9333 118.696 23.9272C119.092 23.8513 119.981 24.3467 121.571 25.4652C120.11 24.2563 119.411 23.5369 119.356 23.1224C119.353 23.093 119.365 23.0606 119.388 23.0418C119.411 23.023 119.444 23.0211 119.475 23.0293C119.612 23.0839 119.761 23.1454 119.92 23.2129C119.764 23.1212 119.617 23.0354 119.487 22.9542C119.462 22.9403 119.447 22.9149 119.444 22.8855C119.445 22.8571 119.459 22.8323 119.478 22.8125C119.808 22.5654 120.846 22.6828 122.814 23.1316C120.933 22.5489 119.98 22.1402 119.779 21.7721C119.764 21.7467 119.765 21.7149 119.78 21.6868C119.794 21.6619 119.824 21.6449 119.853 21.6455C120.012 21.6419 120.19 21.6396 120.377 21.6432C120.184 21.6202 120.011 21.595 119.848 21.5692C119.816 21.5644 119.793 21.5439 119.782 21.5194C119.771 21.4916 119.771 21.4631 119.789 21.4392C120.013 21.0995 120.984 20.8206 122.877 20.4961C120.882 20.6755 119.895 20.6502 119.614 20.3643C119.594 20.3447 119.588 20.3144 119.592 20.2869C119.599 20.2602 119.616 20.2363 119.641 20.2251C119.785 20.1601 119.939 20.0945 120.114 20.0234C119.95 20.0687 119.795 20.1092 119.652 20.1424C119.621 20.1485 119.588 20.1395 119.568 20.1198C119.545 20.096 119.54 20.0624 119.548 20.0324C119.681 19.6433 120.458 19.0483 122.015 18.0911C120.271 18.9802 119.323 19.3332 118.963 19.1688C118.937 19.1582 118.918 19.1353 118.915 19.1059C118.907 19.079 118.919 19.0499 118.935 19.0293C119.041 18.9184 119.16 18.7968 119.291 18.6713C119.16 18.7717 119.033 18.8663 118.917 18.9494C118.89 18.9673 118.856 18.9725 118.828 18.9577C118.799 18.9429 118.781 18.9166 118.779 18.8839C118.753 18.4699 119.248 17.6208 120.326 16.1428C119.084 17.5841 118.349 18.2653 117.93 18.2922C117.9 18.295 117.871 18.2802 117.852 18.2572C117.833 18.2343 117.831 18.2016 117.842 18.1758C117.9 18.0271 117.969 17.8636 118.045 17.6876C117.946 17.8539 117.855 18.0045 117.768 18.1417C117.754 18.1666 117.725 18.1802 117.695 18.183C117.688 18.1812 117.682 18.1794 117.672 18.1767L117.683 18.187Z" fill="url(#paint1_linear_749_7)"/>
<g filter="url(#filter0_i_749_7)">
<path d="M26.631 49.9476C26.0911 49.9825 25.547 50 25 50C24.4531 50 23.9094 49.9825 23.3696 49.9476L24.1556 37.7775C24.4339 37.7955 24.7155 37.8049 25 37.8049C25.2845 37.8049 25.5661 37.7955 25.8444 37.7775L26.631 49.9476ZM20.8812 37.1296C21.4041 37.3071 21.9427 37.4516 22.4943 37.5607L20.1279 49.5242C19.0466 49.3103 17.9895 49.0266 16.9624 48.6781L20.8812 37.1296ZM33.0376 48.6781C32.0105 49.0266 30.9534 49.3103 29.8721 49.5242L27.5057 37.5607C28.0573 37.4516 28.5959 37.3071 29.1188 37.1296L33.0376 48.6781ZM17.8896 35.6517C18.3528 35.9618 18.837 36.2421 19.3389 36.4901L13.9369 47.4234C12.9542 46.9379 12.0087 46.39 11.1054 45.7853L17.8896 35.6517ZM38.8946 45.7853C37.9913 46.39 37.0458 46.9379 36.0631 47.4234L30.6611 36.4901C31.163 36.2421 31.6472 35.9618 32.1104 35.6517L38.8946 45.7853ZM15.3707 33.4413C15.7405 33.8626 16.1374 34.2595 16.5587 34.6293L8.51455 43.7947C7.69562 43.0759 6.9241 42.3044 6.20534 41.4854L15.3707 33.4413ZM43.7947 41.4854C43.0759 42.3044 42.3044 43.0759 41.4854 43.7947L33.4413 34.6293C33.8626 34.2595 34.2595 33.8626 34.6293 33.4413L43.7947 41.4854ZM13.5099 30.6611C13.7579 31.163 14.0382 31.6472 14.3483 32.1104L4.2147 38.8946C3.60999 37.9913 3.06211 37.0458 2.57658 36.0631L13.5099 30.6611ZM47.4234 36.0631C46.9379 37.0458 46.39 37.9913 45.7853 38.8946L35.6517 32.1104C35.9618 31.6472 36.2421 31.163 36.4901 30.6611L47.4234 36.0631ZM12.4393 27.5057C12.5484 28.0573 12.6929 28.5959 12.8704 29.1188L1.32193 33.0376C0.973374 32.0105 0.6897 30.9534 0.475776 29.8721L12.4393 27.5057ZM49.5242 29.8721C49.3103 30.9534 49.0266 32.0105 48.6781 33.0376L37.1296 29.1188C37.3071 28.5959 37.4516 28.0573 37.5607 27.5057L49.5242 29.8721ZM0 25C0 24.4531 0.0175255 23.9094 0.0524009 23.3696L12.2225 24.1556C12.2045 24.4339 12.1951 24.7155 12.1951 25C12.1951 25.2845 12.2045 25.5661 12.2225 25.8444L0.0524009 26.631C0.0175124 26.0911 0 25.547 0 25ZM37.8049 25C37.8049 24.7155 37.7955 24.4339 37.7775 24.1556L49.9476 23.369C49.9825 23.9089 50 24.453 50 25C50 25.5469 49.9825 26.0906 49.9476 26.6304L37.7775 25.8444C37.7955 25.5661 37.8049 25.2845 37.8049 25ZM12.8704 20.8812C12.6929 21.4041 12.5484 21.9427 12.4393 22.4943L0.475776 20.1279C0.6897 19.0466 0.973374 17.9895 1.32193 16.9624L12.8704 20.8812ZM48.6781 16.9624C49.0266 17.9895 49.3103 19.0466 49.5242 20.1279L37.5607 22.4943C37.4516 21.9427 37.3071 21.4041 37.1296 20.8812L48.6781 16.9624ZM14.3483 17.8896C14.0382 18.3528 13.7579 18.837 13.5099 19.3389L2.57658 13.9369C3.06211 12.9542 3.60999 12.0087 4.2147 11.1054L14.3483 17.8896ZM45.7853 11.1054C46.39 12.0087 46.9379 12.9542 47.4234 13.9369L36.4901 19.3389C36.2421 18.837 35.9618 18.3528 35.6517 17.8896L45.7853 11.1054ZM16.5587 15.3707C16.1374 15.7405 15.7405 16.1374 15.3707 16.5587L6.20534 8.51455C6.9241 7.69562 7.69562 6.9241 8.51455 6.20534L16.5587 15.3707ZM41.4854 6.20534C42.3044 6.9241 43.0759 7.69562 43.7947 8.51455L34.6293 16.5587C34.2595 16.1374 33.8626 15.7405 33.4413 15.3707L41.4854 6.20534ZM19.3389 13.5099C18.837 13.7579 18.3528 14.0382 17.8896 14.3483L11.1054 4.2147C12.0087 3.60999 12.9542 3.06211 13.9369 2.57658L19.3389 13.5099ZM36.0631 2.57658C37.0458 3.06211 37.9913 3.60999 38.8946 4.2147L32.1104 14.3483C31.6472 14.0382 31.163 13.7579 30.6611 13.5099L36.0631 2.57658ZM22.4943 12.4393C21.9427 12.5484 21.4041 12.6929 20.8812 12.8704L16.9624 1.32193C17.9895 0.973374 19.0466 0.6897 20.1279 0.475776L22.4943 12.4393ZM29.8721 0.475776C30.9534 0.6897 32.0105 0.973374 33.0376 1.32193L29.1188 12.8704C28.5959 12.6929 28.0573 12.5484 27.5057 12.4393L29.8721 0.475776ZM25 0C25.5469 0 26.0906 0.0175255 26.6304 0.0524009L25.8444 12.2225C25.5661 12.2045 25.2845 12.1951 25 12.1951C24.7155 12.1951 24.4339 12.2045 24.1556 12.2225L23.369 0.0524009C23.9089 0.0175124 24.453 0 25 0Z" fill="white"/>
</g>
<g filter="url(#filter1_i_749_7)">
<path d="M26.3222 45.2278C25.8844 45.2561 25.4433 45.2703 24.9998 45.2703C24.5563 45.2703 24.1155 45.2561 23.6778 45.2278L24.3151 35.3601C24.5408 35.3747 24.7691 35.3823 24.9998 35.3823C25.2304 35.3823 25.4588 35.3747 25.6844 35.3601L26.3222 45.2278ZM21.6602 34.8348C22.0841 34.9787 22.5209 35.0959 22.9681 35.1844L21.0494 44.8845C20.1726 44.7111 19.3156 44.4811 18.4828 44.1984L21.6602 34.8348ZM31.5167 44.1984C30.684 44.4811 29.8269 44.7111 28.9501 44.8845L27.0314 35.1844C27.4787 35.0959 27.9154 34.9787 28.3394 34.8348L31.5167 44.1984ZM19.2345 33.6365C19.6102 33.888 20.0027 34.1152 20.4097 34.3163L16.0296 43.1812C15.2329 42.7875 14.4663 42.3433 13.7339 41.853L19.2345 33.6365ZM36.2656 41.853C35.5333 42.3433 34.7667 42.7875 33.9699 43.1812L29.5898 34.3163C29.9968 34.1152 30.3894 33.888 30.765 33.6365L36.2656 41.853ZM17.1923 31.8443C17.492 32.1859 17.8139 32.5077 18.1555 32.8075L11.6332 40.2389C10.9692 39.6561 10.3436 39.0306 9.76085 38.3666L17.1923 31.8443ZM40.2387 38.3666C39.6559 39.0306 39.0303 39.6561 38.3663 40.2389L31.8441 32.8075C32.1856 32.5077 32.5075 32.1859 32.8073 31.8443L40.2387 38.3666ZM15.6835 29.5901C15.8845 29.997 16.1118 30.3896 16.3633 30.7652L8.14682 36.2659C7.65651 35.5335 7.21229 34.7669 6.81861 33.9701L15.6835 29.5901ZM43.1809 33.9701C42.7872 34.7669 42.343 35.5335 41.8527 36.2659L33.6363 30.7652C33.8877 30.3896 34.115 29.997 34.3161 29.5901L43.1809 33.9701ZM14.8154 27.0317C14.9039 27.4789 15.021 27.9156 15.1649 28.3396L5.80133 31.517C5.51871 30.6842 5.28871 29.8271 5.11526 28.9504L14.8154 27.0317ZM44.8843 28.9504C44.7108 29.8271 44.4808 30.6842 44.1982 31.517L34.8346 28.3396C34.9785 27.9156 35.0957 27.4789 35.1841 27.0317L44.8843 28.9504ZM4.72949 25C4.72949 24.5565 4.7437 24.1157 4.77198 23.6781L14.6396 24.3154C14.6251 24.541 14.6174 24.7693 14.6174 25C14.6174 25.2307 14.6251 25.459 14.6396 25.6846L4.77198 26.3224C4.74369 25.8847 4.72949 25.4435 4.72949 25ZM35.3821 25C35.3821 24.7693 35.3745 24.541 35.3599 24.3154L45.2275 23.6776C45.2558 24.1153 45.27 24.5565 45.27 25C45.27 25.4435 45.2558 25.8843 45.2275 26.3219L35.3599 25.6846C35.3745 25.459 35.3821 25.2307 35.3821 25ZM15.1649 21.6604C15.021 22.0844 14.9039 22.5211 14.8154 22.9683L5.11526 21.0497C5.28871 20.1729 5.51871 19.3158 5.80133 18.483L15.1649 21.6604ZM44.1982 18.483C44.4808 19.3158 44.7108 20.1729 44.8843 21.0497L35.1841 22.9683C35.0957 22.5211 34.9785 22.0844 34.8346 21.6604L44.1982 18.483ZM16.3633 19.2348C16.1118 19.6104 15.8845 20.003 15.6835 20.4099L6.81861 16.0299C7.21229 15.2331 7.65651 14.4665 8.14682 13.7341L16.3633 19.2348ZM41.8527 13.7341C42.343 14.4665 42.7872 15.2331 43.1809 16.0299L34.3161 20.4099C34.115 20.003 33.8877 19.6104 33.6363 19.2348L41.8527 13.7341ZM18.1555 17.1925C17.8139 17.4923 17.492 17.8141 17.1923 18.1557L9.76085 11.6334C10.3436 10.9694 10.9692 10.3439 11.6332 9.76109L18.1555 17.1925ZM38.3663 9.76109C39.0303 10.3439 39.6559 10.9694 40.2387 11.6334L32.8073 18.1557C32.5075 17.8141 32.1856 17.4923 31.8441 17.1925L38.3663 9.76109ZM20.4097 15.6837C20.0027 15.8848 19.6102 16.112 19.2345 16.3635L13.7339 8.14706C14.4663 7.65675 15.2329 7.21253 16.0296 6.81885L20.4097 15.6837ZM33.9699 6.81885C34.7667 7.21253 35.5333 7.65675 36.2656 8.14706L30.765 16.3635C30.3894 16.112 29.9968 15.8848 29.5898 15.6837L33.9699 6.81885ZM22.9681 14.8156C22.5209 14.9041 22.0841 15.0213 21.6602 15.1652L18.4828 5.80157C19.3156 5.51896 20.1726 5.28895 21.0494 5.1155L22.9681 14.8156ZM28.9501 5.1155C29.8269 5.28895 30.684 5.51896 31.5167 5.80157L28.3394 15.1652C27.9154 15.0213 27.4787 14.9041 27.0314 14.8156L28.9501 5.1155ZM24.9998 4.72974C25.4432 4.72974 25.884 4.74395 26.3217 4.77222L25.6844 14.6399C25.4588 14.6253 25.2304 14.6177 24.9998 14.6177C24.7691 14.6177 24.5408 14.6253 24.3151 14.6399L23.6773 4.77222C24.1151 4.74394 24.5562 4.72974 24.9998 4.72974Z" fill="url(#paint2_linear_749_7)"/>
</g>
<path d="M107.255 18.5651C108.679 18.5651 109.947 18.8914 111.041 19.5612L111.245 19.6901C112.252 20.3478 113.034 21.2444 113.589 22.3688L113.696 22.5924C114.216 23.7228 114.469 25.0075 114.469 26.4352V28.2975H104.744C104.954 28.8623 105.303 29.2904 105.791 29.6022C106.455 30.026 107.42 30.2653 108.739 30.2653C109.903 30.2652 111.07 30.0862 112.241 29.7272L112.888 29.5289V33.4039L112.556 33.5221C111.355 33.9509 109.974 34.1598 108.423 34.1598C105.72 34.1598 103.595 33.4922 102.139 32.0719C100.694 30.6624 99.9932 28.7632 99.9932 26.4352C99.9932 24.9277 100.282 23.5761 100.873 22.3932L100.874 22.3903C101.482 21.1924 102.339 20.2527 103.445 19.5856C104.568 18.9017 105.843 18.5651 107.255 18.5651ZM107.255 22.5573C106.509 22.5573 105.912 22.7853 105.429 23.2281C105.07 23.5571 104.822 23.9603 104.688 24.4518H109.839C109.697 23.9508 109.444 23.5499 109.088 23.233L109.082 23.2281C108.599 22.7852 108.001 22.5573 107.255 22.5573Z" fill="#7F0606" stroke="#800505"/>
<path d="M95.3838 15.3785V19.027H99.3486V23.0924H95.3838V25.9977C95.3838 26.9538 95.4946 27.7023 95.6953 28.2614C95.882 28.7653 96.2008 29.141 96.6641 29.4059C97.14 29.6687 97.8496 29.8188 98.8408 29.8033L99.3486 29.7946V33.819H98.8486C96.9286 33.8189 95.3632 33.5388 94.1934 32.9362L94.1904 32.9352C93.0329 32.3297 92.2037 31.4208 91.7207 30.2223L91.7197 30.2194C91.2498 29.0358 91.0273 27.5149 91.0273 25.6813V15.3785H95.3838Z" fill="#7F0606" stroke="#800505"/>
<path d="M85.8115 15.3785V19.027H89.7764V23.0924H85.8115V25.9977C85.8115 26.9538 85.9224 27.7023 86.123 28.2614C86.3097 28.7653 86.6286 29.141 87.0918 29.4059C87.5677 29.6687 88.2774 29.8188 89.2686 29.8033L89.7764 29.7946V33.819H89.2764C87.3563 33.8189 85.7909 33.5388 84.6211 32.9362L84.6182 32.9352C83.4606 32.3297 82.6315 31.4208 82.1484 30.2223L82.1475 30.2194C81.6776 29.0358 81.4551 27.5149 81.4551 25.6813V15.3785H85.8115Z" fill="#7F0606" stroke="#800505"/>
<path d="M73.167 18.5651C74.5906 18.5651 75.8591 18.8914 76.9531 19.5612L77.1572 19.6901C78.1645 20.3478 78.9464 21.2444 79.501 22.3688L79.6084 22.5924C80.1278 23.7228 80.3808 25.0075 80.3809 26.4352V28.2975H70.6562C70.8656 28.8623 71.2151 29.2904 71.7031 29.6022C72.3667 30.026 73.3326 30.2653 74.6514 30.2653C75.8156 30.2652 76.9825 30.0862 78.1533 29.7272L78.7998 29.5289V33.4039L78.4678 33.5221C77.2671 33.9509 75.8865 34.1598 74.335 34.1598C71.632 34.1598 69.5067 33.4922 68.0508 32.0719C66.606 30.6624 65.9053 28.7632 65.9053 26.4352C65.9053 24.9277 66.1937 23.5761 66.7852 22.3932L66.7861 22.3903C67.3937 21.1924 68.2515 20.2527 69.3574 19.5856C70.4804 18.9017 71.7553 18.5651 73.167 18.5651ZM73.167 22.5573C72.4214 22.5573 71.824 22.7853 71.3408 23.2281C70.982 23.5571 70.7337 23.9604 70.6006 24.4518H75.751C75.6096 23.9508 75.3565 23.5499 75 23.233L74.9941 23.2281C74.5108 22.7852 73.9129 22.5573 73.167 22.5573Z" fill="#7F0606" stroke="#800505"/>
<path d="M63.3643 11.838V27.6759C63.3643 28.5554 63.5396 28.9282 63.6533 29.0587C63.7706 29.1754 64.0459 29.3298 64.709 29.3038L65.748 29.2628V34.3917H64.748C63.3034 34.3917 62.0426 34.1872 61.0215 33.7159L61.0146 33.713C59.9685 33.2207 59.1878 32.422 58.6875 31.3615L58.6777 31.3419C58.2094 30.2882 58.0078 28.9559 58.0078 27.4083V11.838H63.3643Z" fill="#7F0606" stroke="#800505" stroke-width="2"/>
<path d="M47.374 19.0273V27.3594C47.374 28.3195 47.5987 29.0011 47.9844 29.4668C48.3715 29.9 48.9331 30.1435 49.7441 30.1436C50.56 30.1436 51.1119 29.8979 51.4814 29.4668L51.4824 29.4658C51.8833 29.0001 52.1152 28.3191 52.1152 27.3594V19.0273H56.4717V27.165C56.4717 28.56 56.1994 29.7957 55.6348 30.8545L55.6338 30.8535C55.0859 31.8953 54.2956 32.7044 53.2695 33.2705C52.2439 33.8363 51.0633 34.1113 49.7441 34.1113C48.44 34.1113 47.2678 33.8358 46.2432 33.2705V33.2695C45.2154 32.7186 44.4171 31.9094 43.8545 30.8545C43.2898 29.7957 43.0176 28.56 43.0176 27.165V19.0273H47.374Z" fill="#7F0606" stroke="#800505"/>
<path d="M34.3291 18.7354C35.7227 18.7354 36.9804 19.063 38.0869 19.7295C39.2055 20.3936 40.079 21.3215 40.7041 22.501C41.3314 23.6684 41.6406 24.9844 41.6406 26.4355C41.6406 27.8867 41.3318 29.2086 40.7061 30.3906L40.7051 30.3936C40.0797 31.5575 39.2056 32.4751 38.0889 33.1387L38.0898 33.1396C36.9827 33.8073 35.7239 34.1357 34.3291 34.1357C32.934 34.1357 31.6686 33.8067 30.5469 33.1406L30.5439 33.1396C29.4429 32.4755 28.5788 31.5562 27.9541 30.3936L27.9521 30.3906C27.3265 29.2087 27.0186 27.8866 27.0186 26.4355C27.0186 24.9844 27.3268 23.6684 27.9541 22.501C28.5782 21.3234 29.442 20.3961 30.5439 19.7314L30.5469 19.7295C31.6686 19.0634 32.934 18.7354 34.3291 18.7354ZM34.3291 22.7764C33.474 22.7764 32.7979 23.0977 32.2607 23.7588L32.2578 23.7627C31.7166 24.4149 31.4238 25.2904 31.4238 26.4355C31.4239 27.5595 31.7137 28.4366 32.2568 29.1074L32.3623 29.2285C32.8984 29.8136 33.5448 30.0947 34.3291 30.0947C35.1653 30.0947 35.835 29.7757 36.374 29.1123L36.3779 29.1074C36.9374 28.4361 37.2343 27.5591 37.2344 26.4355C37.2344 25.2904 36.9425 24.4149 36.4014 23.7627L36.3984 23.7588C35.8612 23.0976 35.1844 22.7764 34.3291 22.7764Z" fill="#7F0606" stroke="#800505"/>
<path d="M26.416 23.0051L25.8604 22.9436C25.7422 22.9305 25.5532 22.9221 25.2832 22.9221C23.7512 22.9222 22.6565 23.3802 21.915 24.2336L21.9121 24.2366C21.1612 25.0866 20.7481 26.3533 20.748 28.1135V33.8196H16.3916V19.0276H20.748V20.1565C22.0491 19.0079 23.7995 18.506 25.9414 18.6145L26.416 18.6389V23.0051Z" fill="#7F0606" stroke="#800505"/>
<path d="M107.555 17.3937C109.045 17.4372 110.425 17.8089 111.646 18.5538H111.646C112.775 19.2343 113.674 20.1571 114.341 21.2902H114.364L114.641 21.8429C115.328 23.2172 115.643 24.7632 115.644 26.4347V29.4738H114.063V34.2325L113.399 34.4698L112.951 34.63H112.95C111.595 35.1137 110.075 35.3351 108.422 35.3351C105.541 35.335 103.07 34.6231 101.317 32.9132C99.6019 31.2396 98.8175 29.013 98.8174 26.4357V26.4347L98.8213 26.1251C98.8588 24.5846 99.1783 23.1534 99.8213 21.8673L99.8232 21.8634L99.8252 21.8585C100.483 20.5622 101.408 19.5059 102.599 18.7296L102.605 18.7247L102.612 18.7208L102.822 18.588L102.828 18.5841L102.835 18.5812C104.159 17.775 105.649 17.3898 107.255 17.3898L107.555 17.3937ZM107.251 20.0656C106.089 20.0662 105.09 20.3403 104.225 20.8673L104.053 20.9747C103.281 21.4799 102.668 22.1705 102.212 23.0695L102.211 23.0685L102.121 23.2589C101.711 24.1578 101.493 25.21 101.493 26.4357L101.5 26.8077L101.519 27.1437C101.644 28.7953 102.217 30.0533 103.186 30.9982C104.196 31.9837 105.738 32.5813 107.969 32.6525H107.968L108.422 32.6593C109.543 32.6593 110.528 32.538 111.388 32.3116V31.4904C110.839 31.6033 110.289 31.682 109.738 31.7247V31.7648H107.738V31.7189C106.681 31.6201 105.747 31.3537 104.983 30.8663C103.951 30.2069 103.331 29.2102 103.108 27.9757L102.896 26.798H112.969V26.4357C112.969 25.1858 112.748 24.12 112.333 23.2179H112.332L112.244 23.0343L112.06 22.6866C111.607 21.9017 111.009 21.2944 110.266 20.8458L110.26 20.8419C109.484 20.3665 108.566 20.1002 107.477 20.0685V20.0675L107.251 20.0656ZM107.266 21.0568L107.275 21.0577L107.436 21.0607H107.445L107.454 21.0616C108.463 21.1018 109.362 21.4497 110.096 22.1222H110.095C110.881 22.8258 111.315 23.7596 111.436 24.8419L111.559 25.9523H102.994L103.097 24.8575C103.192 23.8465 103.576 22.9591 104.274 22.257L104.292 22.2394L104.398 22.1368L104.406 22.13L104.414 22.1222C105.199 21.4029 106.169 21.0568 107.255 21.0568H107.266Z" stroke="#800505" stroke-width="2"/>
<path d="M96.5596 14.2028V17.8512H100.524V24.2682H96.5596V25.9977C96.5596 26.8659 96.6605 27.463 96.7969 27.8502L96.874 28.0201C96.9597 28.173 97.0761 28.2846 97.2393 28.3795C97.4657 28.5023 97.9416 28.6413 98.8223 28.6276H98.8232L99.5088 28.6168L100.524 28.6012V34.9948H98.8486C96.8363 34.9947 95.0585 34.7054 93.6543 33.9821V33.9811H93.6533L93.6445 33.9772C92.2436 33.2443 91.219 32.1235 90.6299 30.6617L90.6289 30.6598L90.6279 30.6559L90.627 30.6539C90.0815 29.2801 89.8516 27.5946 89.8516 25.6813V14.2028H96.5596ZM92.5273 25.6735L92.5303 26.0074H92.5293C92.5544 27.579 92.7634 28.7829 93.1113 29.6617L93.2529 29.9742C93.6077 30.6792 94.143 31.2165 94.8828 31.6041C95.5818 31.9635 96.5554 32.2052 97.8486 32.2867V31.2614C97.1305 31.1895 96.4804 31.0199 95.9307 30.7145L95.9209 30.7086C95.1485 30.2673 94.5943 29.6121 94.2861 28.776L94.2832 28.7682C94.0379 28.0848 93.9165 27.2825 93.8896 26.3903V26.3746L93.8838 26.0123V21.5924H97.8486V20.527H93.8838V16.8785H92.5273V25.6735Z" stroke="#800505" stroke-width="2"/>
<path d="M86.9873 14.2028V17.8512H90.9521V24.2682H86.9873V25.9977C86.9873 26.8659 87.0882 27.463 87.2246 27.8502L87.3018 28.0201C87.3875 28.173 87.5038 28.2846 87.667 28.3795C87.8935 28.5023 88.3693 28.6413 89.25 28.6276H89.251L89.9365 28.6168L90.9521 28.6012V34.9948H89.2764C87.264 34.9947 85.4862 34.7054 84.082 33.9821V33.9811H84.0811L84.0723 33.9772C82.6714 33.2443 81.6467 32.1235 81.0576 30.6617L81.0566 30.6598L81.0557 30.6559L81.0547 30.6539C80.5092 29.2801 80.2793 27.5946 80.2793 25.6813V14.2028H86.9873ZM82.9551 25.6735L82.958 26.0074H82.957C82.9822 27.579 83.1911 28.7829 83.5391 29.6617L83.6807 29.9742C84.0355 30.6792 84.5707 31.2165 85.3105 31.6041C86.0095 31.9635 86.9831 32.2052 88.2764 32.2867V31.2614C87.5583 31.1895 86.9082 31.0199 86.3584 30.7145L86.3486 30.7086C85.5763 30.2673 85.022 29.6121 84.7139 28.776L84.7109 28.7682C84.4657 28.0848 84.3442 27.2825 84.3174 26.3903V26.3746L84.3115 26.0123V21.5924H88.2764V20.527H84.3115V16.8785H82.9551V25.6735Z" stroke="#800505" stroke-width="2"/>
<path d="M73.4668 17.3937C74.9572 17.4372 76.3371 17.8089 77.5576 18.5538H77.5586C78.6867 19.2343 79.5865 20.1571 80.2529 21.2902H80.2764L80.5527 21.8429C81.2398 23.2172 81.5556 24.7632 81.5557 26.4347V29.4738H79.9756V34.2325L79.3115 34.4698L78.8633 34.63H78.8623C77.5075 35.1137 75.9875 35.3351 74.334 35.3351C71.4529 35.335 68.9822 34.6231 67.2295 32.9132C65.514 31.2396 64.7296 29.013 64.7295 26.4357V26.4347L64.7334 26.1251C64.7709 24.5846 65.0904 23.1534 65.7334 21.8673L65.7354 21.8634L65.7373 21.8585C66.3949 20.5622 67.3206 19.5059 68.5107 18.7296L68.5176 18.7247L68.5244 18.7208L68.7344 18.588L68.7402 18.5841L68.7471 18.5812C70.0714 17.775 71.5613 17.3898 73.167 17.3898L73.4668 17.3937ZM73.1631 20.0656C72.0009 20.0662 71.0019 20.3403 70.1367 20.8673L69.9648 20.9747C69.1931 21.4799 68.58 22.1705 68.124 23.0695L68.123 23.0685L68.0332 23.2589C67.6229 24.1578 67.4053 25.21 67.4053 26.4357L67.4121 26.8077L67.4307 27.1437C67.556 28.7953 68.1292 30.0533 69.0977 30.9982C70.1079 31.9837 71.6505 32.5813 73.8809 32.6525H73.8799L74.334 32.6593C75.455 32.6593 76.4406 32.538 77.2998 32.3116V31.4904C76.7511 31.6033 76.2014 31.682 75.6504 31.7247V31.7648H73.6504V31.7189C72.5927 31.6201 71.6587 31.3537 70.8955 30.8663C69.863 30.2069 69.2433 29.2102 69.0205 27.9757L68.8076 26.798H78.8809V26.4357C78.8808 25.1858 78.6596 24.12 78.2451 23.2179H78.2441L78.1562 23.0343L77.9717 22.6866C77.5187 21.9017 76.9214 21.2944 76.1777 20.8458L76.1719 20.8419C75.3961 20.3665 74.478 20.1002 73.3887 20.0685V20.0675L73.1631 20.0656ZM73.1777 21.0568L73.1875 21.0577L73.3477 21.0607H73.3574L73.3662 21.0616C74.3749 21.1018 75.2741 21.4497 76.0078 22.1222H76.0068C76.7928 22.8258 77.2274 23.7596 77.3477 24.8419L77.4707 25.9523H68.9062L69.0088 24.8575C69.1042 23.8465 69.4883 22.9591 70.1865 22.257L70.2041 22.2394L70.3105 22.1368L70.3184 22.13L70.3262 22.1222C71.1109 21.4029 72.081 21.0568 73.167 21.0568H73.1777Z" stroke="#800505" stroke-width="2"/>
<path d="M63.54 11.6621V27.6758C63.5401 28.52 63.7069 28.844 63.7812 28.9355C63.8538 29.0059 64.0742 29.1525 64.7021 29.1279H64.7031L65.4043 29.1006L65.9238 29.0811V34.5674H64.748C63.2888 34.5674 61.9997 34.3607 60.9473 33.875L60.9336 33.8691L60.9316 33.8672C59.8525 33.357 59.0459 32.5316 58.5303 31.4404L58.5264 31.4326L58.5225 31.4238L58.5186 31.417L58.5176 31.4131C58.0354 30.3282 57.832 28.9684 57.832 27.4082V11.6621H63.54ZM59.5078 27.3994L59.5166 27.9297C59.5577 29.1145 59.7422 30.0391 60.0459 30.7256C60.4032 31.4811 60.9351 32.0173 61.6494 32.3545C62.3055 32.6572 63.1659 32.8385 64.248 32.8809V30.792C63.6222 30.7461 63.078 30.5629 62.6641 30.1875L62.6582 30.1816L62.6523 30.1768L62.5762 30.1035L62.5664 30.0928L62.5557 30.082C62.0531 29.5356 61.8643 28.6865 61.8643 27.6758V13.3379H59.5078V27.3994Z" stroke="#800505"/>
<path d="M48.5498 17.8516V27.3594C48.5498 28.1242 48.7239 28.5067 48.8779 28.7012C48.998 28.8273 49.2148 28.9677 49.7441 28.9678C50.2985 28.9678 50.4886 28.8144 50.585 28.7031L50.5908 28.6982C50.7532 28.5096 50.9395 28.1349 50.9395 27.3594V17.8516H57.6465V27.165C57.6465 28.7134 57.3444 30.1473 56.6719 31.4082L56.6709 31.4072C56.0168 32.648 55.0641 33.6232 53.8379 34.2998C52.6119 34.9762 51.2295 35.2861 49.7441 35.2861C48.8435 35.2861 47.981 35.1687 47.167 34.9238V35.0967L45.6953 34.3105C44.4519 33.6459 43.4869 32.6633 42.8174 31.4082C42.1449 30.1473 41.8418 28.7134 41.8418 27.165V17.8516H48.5498ZM44.5176 27.1543L44.5205 27.4014C44.5494 28.4939 44.7787 29.4003 45.1777 30.1484C45.5532 30.8525 46.0519 31.3937 46.6797 31.79L46.9561 31.9512L46.9678 31.957C47.7395 32.3828 48.6553 32.6113 49.7441 32.6113C50.653 32.6113 51.4375 32.4564 52.1143 32.167L52.3984 32.0342L52.5449 31.957C53.3128 31.5334 53.8953 30.9388 54.3076 30.1543L54.3105 30.1484C54.7377 29.3475 54.9717 28.3644 54.9717 27.165V20.5273H53.6143V27.373L53.6123 27.5654V27.5742L53.6113 27.583C53.577 28.6857 53.2793 29.6747 52.6191 30.4424C52.1176 31.0273 51.474 31.379 50.7441 31.5391V31.6631L49.7246 31.6436H48.7441V31.5391C48.078 31.3938 47.4807 31.0917 46.9922 30.6006L46.9727 30.5811L46.876 30.4785L46.8555 30.4561L46.8359 30.4326C46.1528 29.6129 45.874 28.5457 45.874 27.3594V20.5273H44.5176V27.1543Z" stroke="#800505" stroke-width="2"/>
<path d="M34.625 17.5648C35.9983 17.6059 37.2821 17.9352 38.4434 18.5785H38.4512L38.6875 18.7191L38.9297 18.8685C40.1244 19.6343 41.0656 20.6713 41.7432 21.9496L41.75 21.9613H41.749L41.8652 22.1879L41.8691 22.1937L41.8721 22.2006C42.5118 23.4922 42.8154 24.9148 42.8154 26.4349C42.8154 28.0573 42.4698 29.572 41.7451 30.9408L41.7334 30.9652L41.7197 30.9877L41.7178 30.9906C40.9946 32.32 39.9798 33.3844 38.6875 34.1517L38.0195 34.5492L37.9922 34.5219C36.8674 35.0539 35.6374 35.3109 34.3291 35.3109C32.7423 35.3109 31.2665 34.9349 29.9473 34.1517L29.9248 34.139L29.9023 34.1244C28.6432 33.3566 27.6525 32.2998 26.9395 30.9877L26.9258 30.9652L26.9131 30.9408C26.1885 29.572 25.8428 28.0572 25.8428 26.4349L25.8467 26.1322C25.8874 24.6249 26.234 23.2177 26.918 21.9447C27.6337 20.5964 28.6364 19.5137 29.9189 18.7357L29.9248 18.7318L29.9473 18.7191C31.2666 17.9359 32.7423 17.56 34.3291 17.5599L34.625 17.5648ZM34.3242 20.2357C33.1782 20.2365 32.1843 20.5017 31.3174 21.015C30.4591 21.5329 29.7812 22.2557 29.2783 23.2054L29.1836 23.3871C28.7467 24.269 28.5186 25.2783 28.5186 26.4349L28.5215 26.6654L28.543 27.0853C28.6188 28.048 28.867 28.9096 29.2754 29.683L29.4717 30.0238C29.9484 30.7918 30.5607 31.3962 31.3125 31.851L31.624 32.0228C32.3628 32.3987 33.1882 32.6047 34.1143 32.6322H34.1133L34.332 32.6342C35.4811 32.6337 36.4658 32.3673 37.3154 31.8549L37.3213 31.851C38.1456 31.3615 38.7979 30.7016 39.2871 29.8568L39.3906 29.6693C39.8527 28.7889 40.1064 27.7935 40.1367 26.6654L40.1406 26.4349L40.1299 26.0082C40.0801 25.0283 39.8561 24.159 39.4736 23.3871H39.4727L39.375 23.1957V23.1947C38.8747 22.2543 38.1921 21.536 37.3213 21.0189L37.3154 21.016C36.5175 20.5348 35.6017 20.2701 34.5439 20.2386V20.2377L34.3242 20.2357ZM34.3398 21.2758L34.3506 21.2767L34.5371 21.2806H34.5508L34.5645 21.2816C35.7718 21.3414 36.7878 21.8654 37.5547 22.8051H37.5557C38.3703 23.787 38.7343 25.0281 38.7344 26.4349V26.4525L38.7305 26.6781V26.6947C38.6863 27.9912 38.3034 29.1388 37.5293 30.0677L37.5283 30.0668C36.9309 30.7982 36.1888 31.2745 35.3291 31.4789V31.6205L34.3291 31.5951H33.3291V31.4808C32.536 31.2934 31.8391 30.8764 31.2598 30.2455L31.252 30.2367L31.2451 30.2289L31.1211 30.0873L31.0957 30.058C30.3409 29.1289 29.9706 27.9843 29.9277 26.6937V26.6752L29.9238 26.4496V26.4349C29.9239 25.0323 30.2855 23.7938 31.0957 22.8129L31.2539 22.6283C32.0582 21.7363 33.1057 21.2758 34.3291 21.2758H34.3398ZM34.3291 23.9515C33.8267 23.9516 33.486 24.115 33.1729 24.5004L33.1621 24.5131C32.8353 24.9069 32.5997 25.4958 32.5996 26.4349C32.5996 27.3469 32.8295 27.9451 33.168 28.3646C33.5043 28.7639 33.8548 28.9193 34.3291 28.9193C34.8042 28.9193 35.1394 28.7641 35.458 28.3734L35.4609 28.3695L35.5547 28.2513C35.8574 27.8416 36.0586 27.2729 36.0586 26.4349C36.0585 25.4958 35.8229 24.9069 35.4961 24.5131V24.5121L35.4854 24.5004C35.1721 24.1148 34.8313 23.9516 34.3291 23.9515Z" stroke="#800505" stroke-width="2"/>
<path d="M21.9238 18.0593C23.1374 17.5566 24.5134 17.365 26 17.4402L26.6426 17.4724L27.5918 17.5203V24.3191L26.4805 24.1951L25.7305 24.1111V24.1101C25.6783 24.1044 25.5414 24.0974 25.2832 24.0974C24.0006 24.0975 23.2674 24.47 22.8027 25.0046L22.8018 25.0037L22.7939 25.0144C22.2979 25.576 21.9238 26.5238 21.9238 28.114V34.9949H15.2158V17.8513H21.9238V18.0593ZM24.916 20.113C23.1253 20.2095 21.8901 20.8823 21.0596 22.0339L19.248 24.5447V20.5271H17.8916V32.3191H19.248V28.114C19.248 26.1374 19.7116 24.4616 20.7881 23.2429C21.8097 22.071 23.2312 21.5007 24.916 21.4294V20.113Z" stroke="#800505" stroke-width="2"/>
<g filter="url(#filter2_di_749_7)">
<g filter="url(#filter3_d_749_7)">
<path d="M108.423 34.3353C105.796 34.3353 103.817 33.6867 102.488 32.3894C101.158 31.0921 100.493 29.3326 100.493 27.111C100.493 25.6677 100.769 24.3948 101.32 23.2921C101.888 22.1732 102.682 21.3056 103.704 20.6894C104.742 20.0569 105.926 19.7407 107.255 19.7407C108.601 19.7407 109.777 20.0488 110.782 20.665C111.804 21.2813 112.59 22.1488 113.142 23.2678C113.693 24.3705 113.969 25.6515 113.969 27.111V28.4732H104.093C104.45 30.4515 105.999 31.4407 108.739 31.4407C109.955 31.4407 111.172 31.2542 112.388 30.8813V33.7272C111.253 34.1326 109.931 34.3353 108.423 34.3353ZM110.442 25.6272C110.345 24.7515 110.004 24.0542 109.42 23.5353C108.836 23.0002 108.115 22.7326 107.255 22.7326C106.396 22.7326 105.674 23.0002 105.09 23.5353C104.507 24.0705 104.174 24.7678 104.093 25.6272H110.442Z" fill="url(#paint3_linear_749_7)"/>
</g>
<g filter="url(#filter4_d_749_7)">
<path d="M98.849 33.9947C96.9679 33.9947 95.4922 33.7191 94.4219 33.1677C93.3679 32.6164 92.6219 31.7974 92.1841 30.711C91.7463 29.6083 91.5273 28.1569 91.5273 26.3569V16.5542H94.8841V20.2028H98.849V23.2677H94.8841V26.6731C94.8841 27.6623 94.9976 28.4731 95.2246 29.1055C95.4517 29.7218 95.849 30.192 96.4165 30.5164C97.0003 30.8407 97.8111 30.9947 98.849 30.9785V33.9947Z" fill="url(#paint4_linear_749_7)"/>
</g>
<g filter="url(#filter5_d_749_7)">
<path d="M89.2767 33.9947C87.3956 33.9947 85.9199 33.7191 84.8497 33.1677C83.7956 32.6164 83.0497 31.7974 82.6118 30.711C82.174 29.6083 81.9551 28.1569 81.9551 26.3569V16.5542H85.3118V20.2028H89.2767V23.2677H85.3118V26.6731C85.3118 27.6623 85.4253 28.4731 85.6524 29.1055C85.8794 29.7218 86.2767 30.192 86.8443 30.5164C87.428 30.8407 88.2389 30.9947 89.2767 30.9785V33.9947Z" fill="url(#paint5_linear_749_7)"/>
</g>
<g filter="url(#filter6_d_749_7)">
<path d="M74.335 34.3353C71.708 34.3353 69.7296 33.6867 68.3999 32.3894C67.0701 31.0921 66.4053 29.3326 66.4053 27.111C66.4053 25.6677 66.6809 24.3948 67.2323 23.2921C67.7999 22.1732 68.5945 21.3056 69.6161 20.6894C70.6539 20.0569 71.8377 19.7407 73.1674 19.7407C74.5134 19.7407 75.6891 20.0488 76.6945 20.665C77.7161 21.2813 78.5026 22.1488 79.0539 23.2678C79.6053 24.3705 79.8809 25.6515 79.8809 27.111V28.4732H70.0053C70.362 30.4515 71.9107 31.4407 74.6512 31.4407C75.8674 31.4407 77.0836 31.2542 78.2999 30.8813V33.7272C77.1647 34.1326 75.8431 34.3353 74.335 34.3353ZM76.3539 25.6272C76.2566 24.7515 75.9161 24.0542 75.3323 23.5353C74.7485 23.0002 74.0269 22.7326 73.1674 22.7326C72.308 22.7326 71.5864 23.0002 71.0026 23.5353C70.4188 24.0705 70.0864 24.7678 70.0053 25.6272H76.3539Z" fill="url(#paint6_linear_749_7)"/>
</g>
<g filter="url(#filter7_d_749_7)">
<path d="M64.7483 34.0677C63.3862 34.0677 62.2835 33.8731 61.4402 33.4839C60.6132 33.0948 59.997 32.4704 59.5916 31.611C59.2024 30.7353 59.0078 29.5596 59.0078 28.0839V13.5137H62.3646V28.3515C62.3646 29.3245 62.5511 30.0137 62.924 30.4191C63.3132 30.8245 63.9213 31.011 64.7483 30.9785V34.0677Z" fill="url(#paint7_linear_749_7)"/>
</g>
<g filter="url(#filter8_d_749_7)">
<path d="M49.7446 34.2868C48.5122 34.2868 47.4257 34.0273 46.4851 33.5084C45.5446 33.0057 44.8149 32.2679 44.296 31.2949C43.777 30.3219 43.5176 29.1706 43.5176 27.8408V20.203H46.8743V28.0354C46.8743 29.0733 47.1176 29.8841 47.6041 30.4679C48.1068 31.0354 48.8203 31.3192 49.7446 31.3192C50.6689 31.3192 51.3743 31.0354 51.8608 30.4679C52.3635 29.8841 52.6149 29.0733 52.6149 28.0354V20.203H55.9716V27.8408C55.9716 29.1706 55.7122 30.3219 55.1933 31.2949C54.6906 32.2517 53.9689 32.9895 53.0284 33.5084C52.0878 34.0273 50.9933 34.2868 49.7446 34.2868Z" fill="url(#paint8_linear_749_7)"/>
</g>
<g filter="url(#filter9_d_749_7)">
<path d="M34.3294 34.311C33.0159 34.311 31.8402 34.0029 30.8023 33.3867C29.7807 32.7705 28.978 31.9191 28.3942 30.8326C27.8104 29.7299 27.5186 28.4894 27.5186 27.111C27.5186 25.7326 27.8104 24.5002 28.3942 23.4137C28.978 22.311 29.7807 21.4516 30.8023 20.8353C31.8402 20.2191 33.0159 19.911 34.3294 19.911C35.6429 19.911 36.8104 20.2191 37.8321 20.8353C38.8699 21.4516 39.6807 22.311 40.2645 23.4137C40.8483 24.5002 41.1402 25.7326 41.1402 27.111C41.1402 28.4894 40.8483 29.7299 40.2645 30.8326C39.6807 31.9191 38.8699 32.7705 37.8321 33.3867C36.8104 34.0029 35.6429 34.311 34.3294 34.311ZM34.3294 31.2705C35.3186 31.2705 36.1294 30.8813 36.7618 30.1029C37.4104 29.3245 37.7348 28.3272 37.7348 27.111C37.7348 25.8786 37.4186 24.8813 36.7861 24.1191C36.1537 23.3407 35.3348 22.9516 34.3294 22.9516C33.324 22.9516 32.505 23.3407 31.8726 24.1191C31.2402 24.8813 30.924 25.8786 30.924 27.111C30.924 28.3272 31.2402 29.3245 31.8726 30.1029C32.5213 30.8813 33.3402 31.2705 34.3294 31.2705Z" fill="url(#paint9_linear_749_7)"/>
</g>
<g filter="url(#filter10_d_749_7)">
<path d="M20.2484 33.9948H16.8916V20.2029H20.2484V22.1245C21.4646 20.4381 23.3538 19.6597 25.9159 19.7894V23.1218C25.77 23.1056 25.5592 23.0975 25.2835 23.0975C23.6457 23.0975 22.397 23.5921 21.5375 24.5813C20.6781 25.5543 20.2484 26.957 20.2484 28.7894V33.9948Z" fill="url(#paint10_linear_749_7)"/>
</g>
</g>
<g filter="url(#filter11_d_749_7)">
<path d="M113.968 28.4734V27.1109C113.968 25.7427 113.726 24.5311 113.242 23.4765L113.142 23.2679C112.59 22.149 111.804 21.2811 110.782 20.6649C109.839 20.0872 108.747 19.7805 107.505 19.7444L107.255 19.7411C105.925 19.7411 104.742 20.057 103.704 20.6893L103.514 20.8081C102.583 21.4152 101.852 22.2435 101.32 23.2924L101.22 23.5009C100.735 24.5546 100.493 25.7579 100.493 27.1109L100.5 27.5219C100.578 29.5506 101.24 31.1733 102.487 32.3896C103.734 33.6058 105.551 34.2515 107.937 34.3275L108.422 34.3354C109.93 34.3354 111.252 34.1325 112.387 33.7271V30.8812C111.171 31.2541 109.955 31.4407 108.738 31.4407V30.765C109.884 30.765 111.034 30.5894 112.189 30.2352L113.063 29.9673V34.2035L112.614 34.3638C111.391 34.8008 109.989 35.0111 108.422 35.0111C105.693 35.0111 103.516 34.3369 102.015 32.8732C100.53 31.4243 99.8174 29.4762 99.8174 27.1109C99.8174 25.5807 100.11 24.2013 100.715 22.9902L100.717 22.9862C101.3 21.8371 102.11 20.9175 103.145 20.2426L103.355 20.1106C104.508 19.4088 105.815 19.0654 107.255 19.0654C108.706 19.0655 110.005 19.398 111.13 20.0862C112.267 20.7717 113.14 21.7381 113.745 22.9657H113.746C114.352 24.1779 114.644 25.5658 114.644 27.1109V29.1491H105.009C105.21 29.5636 105.502 29.8849 105.885 30.1296C106.51 30.5286 107.438 30.765 108.738 30.765V31.4407C105.998 31.4406 104.449 30.4516 104.092 28.4734H113.968ZM107.415 22.7361C108.204 22.7675 108.873 23.0336 109.42 23.5352C110.004 24.0541 110.344 24.7519 110.441 25.6275H104.092C104.168 24.8218 104.465 24.1581 104.983 23.6375L105.09 23.5352C105.674 23.0001 106.396 22.7328 107.255 22.7328L107.415 22.7361ZM107.255 23.4085C106.549 23.4085 105.995 23.6227 105.547 24.0334C105.269 24.2878 105.062 24.5905 104.928 24.9519H109.596C109.456 24.5844 109.246 24.2852 108.971 24.0406L108.963 24.0334C108.515 23.6227 107.961 23.4085 107.255 23.4085Z" fill="url(#paint11_linear_749_7)"/>
</g>
<g filter="url(#filter12_d_749_7)">
<path d="M91.5272 16.5541V26.3573L91.5299 26.6905C91.5555 28.337 91.7734 29.6772 92.1838 30.711C92.6216 31.7974 93.368 32.6162 94.422 33.1675C95.4253 33.6844 96.785 33.9594 98.5011 33.9917L98.8488 33.995V30.9788C97.8111 30.995 97.0004 30.8406 96.4166 30.5163C95.8491 30.192 95.4513 29.7218 95.2243 29.1056C95.0257 28.5522 94.9139 27.8621 94.8891 27.0356L94.8838 26.6734V23.268H98.8488V20.203H94.8838V16.5541H91.5272ZM95.5595 19.5273H99.5245V23.9436H95.5595V26.6734C95.5595 27.6147 95.6682 28.3392 95.8584 28.872C96.0303 29.3386 96.3215 29.6828 96.7485 29.9277C97.1868 30.1699 97.8618 30.3184 98.8383 30.3032L99.5245 30.2926V34.6706H98.8488C96.9148 34.6706 95.3174 34.3893 94.1125 33.7686L94.1085 33.7667C92.9147 33.1421 92.0565 32.2016 91.5576 30.9637L91.5563 30.9604C91.075 29.7483 90.8516 28.2029 90.8516 26.3573V15.8784H95.5595V19.5273Z" fill="url(#paint12_linear_749_7)"/>
</g>
<g filter="url(#filter13_d_749_7)">
<path d="M81.955 16.5541V26.3573L81.9576 26.6905C81.9833 28.337 82.2011 29.6772 82.6115 30.711C83.0493 31.7974 83.7957 32.6162 84.8497 33.1675C85.8531 33.6844 87.2128 33.9594 88.9288 33.9917L89.2766 33.995V30.9788C88.2388 30.995 87.4281 30.8406 86.8444 30.5163C86.2768 30.192 85.8791 29.7218 85.6521 29.1056C85.4534 28.5522 85.3417 27.8621 85.3169 27.0356L85.3116 26.6734V23.268H89.2766V20.203H85.3116V16.5541H81.955ZM85.9873 19.5273H89.9522V23.9436H85.9873V26.6734C85.9873 27.6147 86.0959 28.3392 86.2862 28.872C86.4581 29.3386 86.7493 29.6828 87.1763 29.9277C87.6145 30.1699 88.2895 30.3184 89.266 30.3032L89.9522 30.2926V34.6706H89.2766C87.3426 34.6706 85.7451 34.3893 84.5402 33.7686L84.5363 33.7667C83.3424 33.1421 82.4842 32.2016 81.9853 30.9637L81.984 30.9604C81.5028 29.7483 81.2793 28.2029 81.2793 26.3573V15.8784H85.9873V19.5273Z" fill="url(#paint13_linear_749_7)"/>
</g>
<g filter="url(#filter14_d_749_7)">
<path d="M79.8804 28.4734V27.1109C79.8804 25.7427 79.6385 24.5311 79.1539 23.4765L79.0536 23.2679C78.5023 22.149 77.7157 21.2811 76.694 20.6649C75.7515 20.0872 74.6592 19.7805 73.4173 19.7444L73.1672 19.7411C71.8376 19.7411 70.6537 20.057 69.6159 20.6893L69.4266 20.8081C68.4955 21.4152 67.764 22.2435 67.2319 23.2924L67.1317 23.5009C66.6471 24.5546 66.4052 25.7579 66.4052 27.1109L66.4124 27.5219C66.4903 29.5506 67.1526 31.1733 68.3992 32.3896C69.6458 33.6058 71.4627 34.2515 73.8495 34.3275L74.3345 34.3354C75.8426 34.3354 77.1643 34.1325 78.2994 33.7271V30.8812C77.0832 31.2541 75.8667 31.4407 74.6505 31.4407V30.765C75.7966 30.765 76.9465 30.5894 78.1015 30.2352L78.9751 29.9673V34.2035L78.5264 34.3638C77.3027 34.8008 75.9012 35.0111 74.3345 35.0111C71.6047 35.0111 69.4277 34.3369 67.9274 32.8732C66.4422 31.4243 65.7295 29.4762 65.7295 27.1109C65.7295 25.5807 66.022 24.2013 66.6275 22.9902L66.6295 22.9862C67.2124 21.8371 68.0223 20.9175 69.0571 20.2426L69.2669 20.1106C70.4198 19.4088 71.7267 19.0654 73.1672 19.0654C74.6177 19.0655 75.9175 19.398 77.0424 20.0862C78.1788 20.7717 79.0517 21.7381 79.6574 22.9657H79.658C80.2641 24.1779 80.5561 25.5658 80.5561 27.1109V29.1491H70.9211C71.1217 29.5636 71.4143 29.8849 71.7974 30.1296C72.422 30.5286 73.35 30.765 74.6505 30.765V31.4407C71.9102 31.4406 70.3614 30.4516 70.0046 28.4734H79.8804ZM73.3269 22.7361C74.1163 22.7675 74.7849 23.0336 75.3321 23.5352C75.9159 24.0541 76.2563 24.7519 76.3536 25.6275H70.0046C70.0806 24.8218 70.3776 24.1581 70.8954 23.6375L71.0023 23.5352C71.586 23.0001 72.3078 22.7328 73.1672 22.7328L73.3269 22.7361ZM73.1672 23.4085C72.4612 23.4085 71.9069 23.6227 71.4589 24.0334C71.1813 24.2878 70.9743 24.5905 70.8406 24.9519H75.5077C75.3683 24.5844 75.1579 24.2852 74.8828 24.0406L74.8755 24.0334C74.4275 23.6227 73.8732 23.4085 73.1672 23.4085Z" fill="url(#paint14_linear_749_7)"/>
</g>
<g filter="url(#filter15_d_749_7)">
<path d="M59.0077 13.5136V28.0841L59.0169 28.6232C59.0595 29.8489 59.2511 30.8447 59.5917 31.611C59.9971 32.4704 60.6135 33.0951 61.4405 33.4843C62.2837 33.8734 63.3863 34.0676 64.7483 34.0676V30.9789C63.973 31.0093 63.3902 30.8469 62.9997 30.4926L62.9239 30.4193C62.5509 30.0139 62.3643 29.3243 62.3643 28.3514V13.5136H59.0077ZM63.04 28.3514C63.04 29.2685 63.2222 29.7418 63.4187 29.9581C63.6229 30.1656 64.0036 30.3314 64.7219 30.3032L65.424 30.2761V34.7432H64.7483C63.3303 34.7432 62.1203 34.5419 61.1568 34.0973L61.1528 34.0953C60.1778 33.6364 59.4502 32.8947 58.9807 31.8993L58.9774 31.8927L58.9741 31.8855C58.5314 30.8895 58.332 29.6084 58.332 28.0841V12.8379H63.04V28.3514Z" fill="url(#paint15_linear_749_7)"/>
</g>
<g filter="url(#filter16_d_749_7)">
<path d="M46.8741 28.0353V20.203H43.5175V27.8407L43.5201 28.0881C43.5505 29.3138 43.809 30.3828 44.2954 31.2949C44.8143 32.2679 45.5442 33.006 46.4848 33.5087C47.4253 34.0276 48.512 34.2866 49.7444 34.2866C50.9151 34.2866 51.9504 34.0586 52.8502 33.6024L53.0284 33.5087C53.9689 32.9898 54.6906 32.2517 55.1933 31.2949C55.7122 30.322 55.9713 29.1704 55.9713 27.8407V20.203H52.6147V28.0353L52.612 28.2273C52.5826 29.1737 52.3318 29.9208 51.8605 30.4681C51.374 31.0355 50.6686 31.3193 49.7444 31.3193V30.6437C50.5222 30.6437 51.0194 30.4112 51.3478 30.028L51.3484 30.0267C51.7137 29.6025 51.939 28.9679 51.939 28.0353V19.5273H56.647V27.8407C56.647 29.2586 56.37 30.5239 55.7892 31.613C55.2254 32.6842 54.4102 33.5174 53.3544 34.0999C52.2987 34.6823 51.0885 34.9623 49.7444 34.9623C48.4181 34.9623 47.2192 34.6826 46.1667 34.1039V34.1045C45.104 33.5365 44.2792 32.6997 43.6996 31.613C43.1188 30.5239 42.8418 29.2586 42.8418 27.8407V19.5273H47.5498V28.0353C47.5498 28.9676 47.767 29.6036 48.1172 30.028C48.4639 30.4145 48.973 30.6437 49.7444 30.6437V31.3193L49.5735 31.316C48.7879 31.285 48.1637 31.0365 47.7009 30.5711L47.6039 30.4681C47.1174 29.8844 46.8741 29.0732 46.8741 28.0353Z" fill="url(#paint16_linear_749_7)"/>
</g>
<g filter="url(#filter17_d_749_7)">
<path d="M41.1402 27.1108C41.1402 25.8185 40.8833 24.6546 40.3701 23.6189L40.2646 23.4137C39.6808 22.311 38.8696 21.4513 37.8317 20.835C36.8739 20.2574 35.7878 19.9506 34.5735 19.9146L34.3293 19.9113C33.0158 19.9113 31.8396 20.2188 30.8018 20.835C29.7802 21.4513 28.9778 22.311 28.3941 23.4137L28.2878 23.6189C27.7747 24.6546 27.5185 25.8186 27.5184 27.1108L27.5217 27.3681C27.556 28.644 27.8469 29.7986 28.3941 30.8323C28.9778 31.9187 29.7803 32.7703 30.8018 33.3865C31.7748 33.9642 32.8692 34.2715 34.0845 34.3077L34.3293 34.3109C35.6428 34.3109 36.8102 34.0027 37.8317 33.3865C38.8048 32.8088 39.5785 32.0246 40.1524 31.0335L40.2646 30.8323C40.8117 29.7987 41.102 28.6439 41.1362 27.3681L41.1402 27.1108ZM37.0591 27.1108C37.059 25.9964 36.775 25.1641 36.2659 24.5506L36.2613 24.5453C35.7576 23.9254 35.1318 23.6275 34.3293 23.6275C33.5268 23.6275 32.9004 23.9253 32.3966 24.5453L32.3927 24.5506C31.8836 25.1641 31.5996 25.9964 31.5996 27.1108C31.5996 28.2022 31.8797 29.0372 32.3914 29.6703C32.9152 30.2989 33.5462 30.5947 34.3293 30.5947V31.2704L34.1459 31.2658C33.2989 31.2233 32.5823 30.8828 31.9961 30.2444L31.8721 30.1032C31.2792 29.3734 30.9642 28.451 30.9272 27.3364L30.9239 27.1108C30.9239 25.8785 31.2398 24.8812 31.8721 24.1191C32.5045 23.3407 33.3239 22.9518 34.3293 22.9518L34.5154 22.9558C35.4361 23.0014 36.193 23.3893 36.7859 24.1191C37.4183 24.8812 37.7347 25.8784 37.7347 27.1108L37.7308 27.3364C37.6928 28.451 37.3696 29.3734 36.7615 30.1032C36.1291 30.8813 35.3183 31.2704 34.3293 31.2704V30.5947C35.1116 30.5947 35.7308 30.2997 36.2369 29.6769L36.2422 29.6703L36.3385 29.5489C36.8054 28.931 37.0591 28.1337 37.0591 27.1108ZM41.8159 27.1108C41.8159 28.5876 41.5023 29.939 40.8617 31.149L40.8597 31.1523C40.2192 32.3445 39.3227 33.2875 38.1768 33.9678L38.1762 33.9672C37.0399 34.6515 35.7512 34.9866 34.3293 34.9866C32.9056 34.9866 31.6087 34.6514 30.4574 33.9678L30.4534 33.9652C29.3244 33.2842 28.438 32.3418 27.7989 31.1523L27.7969 31.149C27.1563 29.939 26.8428 28.5876 26.8428 27.1108C26.8428 25.6342 27.1563 24.2895 27.7989 23.0937C28.4371 21.8896 29.3231 20.9388 30.4534 20.257L30.4574 20.2544C31.6087 19.5708 32.9055 19.2356 34.3293 19.2356C35.7511 19.2356 37.0399 19.5702 38.1762 20.2544H38.1768C39.324 20.9355 40.22 21.8869 40.8597 23.0937L40.9759 23.32C41.5398 24.4585 41.8158 25.7265 41.8159 27.1108Z" fill="url(#paint17_linear_749_7)"/>
</g>
<g filter="url(#filter18_d_749_7)">
<path d="M25.9161 19.7892C23.354 19.6595 21.4643 20.4379 20.2481 22.1244V20.2029H16.8915V33.9949H20.2481V28.7894C20.2481 26.957 20.678 25.554 21.5374 24.581C22.3969 23.5919 23.6456 23.0977 25.2833 23.0977C25.559 23.0977 25.7702 23.1059 25.9161 23.1221V19.7892ZM26.5918 23.8769L25.8416 23.7931C25.7332 23.7811 25.5516 23.7733 25.2833 23.7733C23.7884 23.7734 22.7476 24.2186 22.0475 25.0244L22.0442 25.0284C21.3314 25.8353 20.9238 27.0544 20.9238 28.7894V34.6706H16.2158V19.5273H20.9238V20.4563C22.2299 19.4453 23.9269 19.0125 25.9498 19.1149L26.5918 19.1472V23.8769Z" fill="url(#paint18_linear_749_7)"/>
</g>
<defs>
<filter id="filter0_i_749_7" x="0" y="0" width="54" height="51" filterUnits="userSpaceOnUse" color-interpolation-filters="sRGB">
<feFlood flood-opacity="0" result="BackgroundImageFix"/>
<feBlend mode="normal" in="SourceGraphic" in2="BackgroundImageFix" result="shape"/>
<feColorMatrix in="SourceAlpha" type="matrix" values="0 0 0 0 0 0 0 0 0 0 0 0 0 0 0 0 0 0 127 0" result="hardAlpha"/>
<feOffset dx="9" dy="1"/>
<feGaussianBlur stdDeviation="2"/>
<feComposite in2="hardAlpha" operator="arithmetic" k2="-1" k3="1"/>
<feColorMatrix type="matrix" values="0 0 0 0 0 0 0 0 0 0 0 0 0 0 0 0 0 0 0.21 0"/>
<feBlend mode="normal" in2="shape" result="effect1_innerShadow_749_7"/>
</filter>
<filter id="filter1_i_749_7" x="4.72949" y="4.72974" width="41.541" height="43.9405" filterUnits="userSpaceOnUse" color-interpolation-filters="sRGB">
<feFlood flood-opacity="0" result="BackgroundImageFix"/>
<feBlend mode="normal" in="SourceGraphic" in2="BackgroundImageFix" result="shape"/>
<feColorMatrix in="SourceAlpha" type="matrix" values="0 0 0 0 0 0 0 0 0 0 0 0 0 0 0 0 0 0 127 0" result="hardAlpha"/>
<feOffset dx="1" dy="4"/>
<feGaussianBlur stdDeviation="1.7"/>
<feComposite in2="hardAlpha" operator="arithmetic" k2="-1" k3="1"/>
<feColorMatrix type="matrix" values="0 0 0 0 1 0 0 0 0 1 0 0 0 0 1 0 0 0 0.51 0"/>
<feBlend mode="normal" in2="shape" result="effect1_innerShadow_749_7"/>
</filter>
<filter id="filter2_di_749_7" x="11.5916" y="11.2137" width="107.677" height="31.4217" filterUnits="userSpaceOnUse" color-interpolation-filters="sRGB">
<feFlood flood-opacity="0" result="BackgroundImageFix"/>
<feColorMatrix in="SourceAlpha" type="matrix" values="0 0 0 0 0 0 0 0 0 0 0 0 0 0 0 0 0 0 127 0" result="hardAlpha"/>
<feOffset dy="3"/>
<feGaussianBlur stdDeviation="2.65"/>
<feComposite in2="hardAlpha" operator="out"/>
<feColorMatrix type="matrix" values="0 0 0 0 0 0 0 0 0 0 0 0 0 0 0 0 0 0 0.45 0"/>
<feBlend mode="normal" in2="BackgroundImageFix" result="effect1_dropShadow_749_7"/>
<feBlend mode="normal" in="SourceGraphic" in2="effect1_dropShadow_749_7" result="shape"/>
<feColorMatrix in="SourceAlpha" type="matrix" values="0 0 0 0 0 0 0 0 0 0 0 0 0 0 0 0 0 0 127 0" result="hardAlpha"/>
<feOffset dx="2" dy="2"/>
<feGaussianBlur stdDeviation="1.45"/>
<feComposite in2="hardAlpha" operator="arithmetic" k2="-1" k3="1"/>
<feColorMatrix type="matrix" values="0 0 0 0 1 0 0 0 0 1 0 0 0 0 1 0 0 0 0.25 0"/>
<feBlend mode="normal" in2="shape" result="effect2_innerShadow_749_7"/>
</filter>
<filter id="filter3_d_749_7" x="95.1932" y="19.4407" width="24.0756" height="25.1946" filterUnits="userSpaceOnUse" color-interpolation-filters="sRGB">
<feFlood flood-opacity="0" result="BackgroundImageFix"/>
<feColorMatrix in="SourceAlpha" type="matrix" values="0 0 0 0 0 0 0 0 0 0 0 0 0 0 0 0 0 0 127 0" result="hardAlpha"/>
<feOffset dy="5"/>
<feGaussianBlur stdDeviation="2.65"/>
<feComposite in2="hardAlpha" operator="out"/>
<feColorMatrix type="matrix" values="0 0 0 0 0 0 0 0 0 0 0 0 0 0 0 0 0 0 0.25 0"/>
<feBlend mode="normal" in2="BackgroundImageFix" result="effect1_dropShadow_749_7"/>
<feBlend mode="normal" in="SourceGraphic" in2="effect1_dropShadow_749_7" result="shape"/>
</filter>
<filter id="filter4_d_749_7" x="86.2273" y="16.2542" width="17.9213" height="28.0406" filterUnits="userSpaceOnUse" color-interpolation-filters="sRGB">
<feFlood flood-opacity="0" result="BackgroundImageFix"/>
<feColorMatrix in="SourceAlpha" type="matrix" values="0 0 0 0 0 0 0 0 0 0 0 0 0 0 0 0 0 0 127 0" result="hardAlpha"/>
<feOffset dy="5"/>
<feGaussianBlur stdDeviation="2.65"/>
<feComposite in2="hardAlpha" operator="out"/>
<feColorMatrix type="matrix" values="0 0 0 0 0 0 0 0 0 0 0 0 0 0 0 0 0 0 0.25 0"/>
<feBlend mode="normal" in2="BackgroundImageFix" result="effect1_dropShadow_749_7"/>
<feBlend mode="normal" in="SourceGraphic" in2="effect1_dropShadow_749_7" result="shape"/>
</filter>
<filter id="filter5_d_749_7" x="76.6551" y="16.2542" width="17.9213" height="28.0406" filterUnits="userSpaceOnUse" color-interpolation-filters="sRGB">
<feFlood flood-opacity="0" result="BackgroundImageFix"/>
<feColorMatrix in="SourceAlpha" type="matrix" values="0 0 0 0 0 0 0 0 0 0 0 0 0 0 0 0 0 0 127 0" result="hardAlpha"/>
<feOffset dy="5"/>
<feGaussianBlur stdDeviation="2.65"/>
<feComposite in2="hardAlpha" operator="out"/>
<feColorMatrix type="matrix" values="0 0 0 0 0 0 0 0 0 0 0 0 0 0 0 0 0 0 0.25 0"/>
<feBlend mode="normal" in2="BackgroundImageFix" result="effect1_dropShadow_749_7"/>
<feBlend mode="normal" in="SourceGraphic" in2="effect1_dropShadow_749_7" result="shape"/>
</filter>
<filter id="filter6_d_749_7" x="61.1053" y="19.4407" width="24.0756" height="25.1946" filterUnits="userSpaceOnUse" color-interpolation-filters="sRGB">
<feFlood flood-opacity="0" result="BackgroundImageFix"/>
<feColorMatrix in="SourceAlpha" type="matrix" values="0 0 0 0 0 0 0 0 0 0 0 0 0 0 0 0 0 0 127 0" result="hardAlpha"/>
<feOffset dy="5"/>
<feGaussianBlur stdDeviation="2.65"/>
<feComposite in2="hardAlpha" operator="out"/>
<feColorMatrix type="matrix" values="0 0 0 0 0 0 0 0 0 0 0 0 0 0 0 0 0 0 0.25 0"/>
<feBlend mode="normal" in2="BackgroundImageFix" result="effect1_dropShadow_749_7"/>
<feBlend mode="normal" in="SourceGraphic" in2="effect1_dropShadow_749_7" result="shape"/>
</filter>
<filter id="filter7_d_749_7" x="53.7078" y="13.2137" width="16.3402" height="31.1541" filterUnits="userSpaceOnUse" color-interpolation-filters="sRGB">
<feFlood flood-opacity="0" result="BackgroundImageFix"/>
<feColorMatrix in="SourceAlpha" type="matrix" values="0 0 0 0 0 0 0 0 0 0 0 0 0 0 0 0 0 0 127 0" result="hardAlpha"/>
<feOffset dy="5"/>
<feGaussianBlur stdDeviation="2.65"/>
<feComposite in2="hardAlpha" operator="out"/>
<feColorMatrix type="matrix" values="0 0 0 0 0 0 0 0 0 0 0 0 0 0 0 0 0 0 0.25 0"/>
<feBlend mode="normal" in2="BackgroundImageFix" result="effect1_dropShadow_749_7"/>
<feBlend mode="normal" in="SourceGraphic" in2="effect1_dropShadow_749_7" result="shape"/>
</filter>
<filter id="filter8_d_749_7" x="38.2176" y="19.903" width="23.0541" height="24.6837" filterUnits="userSpaceOnUse" color-interpolation-filters="sRGB">
<feFlood flood-opacity="0" result="BackgroundImageFix"/>
<feColorMatrix in="SourceAlpha" type="matrix" values="0 0 0 0 0 0 0 0 0 0 0 0 0 0 0 0 0 0 127 0" result="hardAlpha"/>
<feOffset dy="5"/>
<feGaussianBlur stdDeviation="2.65"/>
<feComposite in2="hardAlpha" operator="out"/>
<feColorMatrix type="matrix" values="0 0 0 0 0 0 0 0 0 0 0 0 0 0 0 0 0 0 0.25 0"/>
<feBlend mode="normal" in2="BackgroundImageFix" result="effect1_dropShadow_749_7"/>
<feBlend mode="normal" in="SourceGraphic" in2="effect1_dropShadow_749_7" result="shape"/>
</filter>
<filter id="filter9_d_749_7" x="22.2186" y="19.611" width="24.2221" height="25" filterUnits="userSpaceOnUse" color-interpolation-filters="sRGB">
<feFlood flood-opacity="0" result="BackgroundImageFix"/>
<feColorMatrix in="SourceAlpha" type="matrix" values="0 0 0 0 0 0 0 0 0 0 0 0 0 0 0 0 0 0 127 0" result="hardAlpha"/>
<feOffset dy="5"/>
<feGaussianBlur stdDeviation="2.65"/>
<feComposite in2="hardAlpha" operator="out"/>
<feColorMatrix type="matrix" values="0 0 0 0 0 0 0 0 0 0 0 0 0 0 0 0 0 0 0.25 0"/>
<feBlend mode="normal" in2="BackgroundImageFix" result="effect1_dropShadow_749_7"/>
<feBlend mode="normal" in="SourceGraphic" in2="effect1_dropShadow_749_7" result="shape"/>
</filter>
<filter id="filter10_d_749_7" x="11.5916" y="19.4755" width="19.6244" height="24.8194" filterUnits="userSpaceOnUse" color-interpolation-filters="sRGB">
<feFlood flood-opacity="0" result="BackgroundImageFix"/>
<feColorMatrix in="SourceAlpha" type="matrix" values="0 0 0 0 0 0 0 0 0 0 0 0 0 0 0 0 0 0 127 0" result="hardAlpha"/>
<feOffset dy="5"/>
<feGaussianBlur stdDeviation="2.65"/>
<feComposite in2="hardAlpha" operator="out"/>
<feColorMatrix type="matrix" values="0 0 0 0 0 0 0 0 0 0 0 0 0 0 0 0 0 0 0.25 0"/>
<feBlend mode="normal" in2="BackgroundImageFix" result="effect1_dropShadow_749_7"/>
<feBlend mode="normal" in="SourceGraphic" in2="effect1_dropShadow_749_7" result="shape"/>
</filter>
<filter id="filter11_d_749_7" x="94.5174" y="18.7654" width="25.4262" height="26.5457" filterUnits="userSpaceOnUse" color-interpolation-filters="sRGB">
<feFlood flood-opacity="0" result="BackgroundImageFix"/>
<feColorMatrix in="SourceAlpha" type="matrix" values="0 0 0 0 0 0 0 0 0 0 0 0 0 0 0 0 0 0 127 0" result="hardAlpha"/>
<feOffset dy="5"/>
<feGaussianBlur stdDeviation="2.65"/>
<feComposite in2="hardAlpha" operator="out"/>
<feColorMatrix type="matrix" values="0 0 0 0 0 0 0 0 0 0 0 0 0 0 0 0 0 0 0.25 0"/>
<feBlend mode="normal" in2="BackgroundImageFix" result="effect1_dropShadow_749_7"/>
<feBlend mode="normal" in="SourceGraphic" in2="effect1_dropShadow_749_7" result="shape"/>
</filter>
<filter id="filter12_d_749_7" x="85.5516" y="15.5784" width="19.2729" height="29.3922" filterUnits="userSpaceOnUse" color-interpolation-filters="sRGB">
<feFlood flood-opacity="0" result="BackgroundImageFix"/>
<feColorMatrix in="SourceAlpha" type="matrix" values="0 0 0 0 0 0 0 0 0 0 0 0 0 0 0 0 0 0 127 0" result="hardAlpha"/>
<feOffset dy="5"/>
<feGaussianBlur stdDeviation="2.65"/>
<feComposite in2="hardAlpha" operator="out"/>
<feColorMatrix type="matrix" values="0 0 0 0 0 0 0 0 0 0 0 0 0 0 0 0 0 0 0.25 0"/>
<feBlend mode="normal" in2="BackgroundImageFix" result="effect1_dropShadow_749_7"/>
<feBlend mode="normal" in="SourceGraphic" in2="effect1_dropShadow_749_7" result="shape"/>
</filter>
<filter id="filter13_d_749_7" x="75.9793" y="15.5784" width="19.2729" height="29.3922" filterUnits="userSpaceOnUse" color-interpolation-filters="sRGB">
<feFlood flood-opacity="0" result="BackgroundImageFix"/>
<feColorMatrix in="SourceAlpha" type="matrix" values="0 0 0 0 0 0 0 0 0 0 0 0 0 0 0 0 0 0 127 0" result="hardAlpha"/>
<feOffset dy="5"/>
<feGaussianBlur stdDeviation="2.65"/>
<feComposite in2="hardAlpha" operator="out"/>
<feColorMatrix type="matrix" values="0 0 0 0 0 0 0 0 0 0 0 0 0 0 0 0 0 0 0.25 0"/>
<feBlend mode="normal" in2="BackgroundImageFix" result="effect1_dropShadow_749_7"/>
<feBlend mode="normal" in="SourceGraphic" in2="effect1_dropShadow_749_7" result="shape"/>
</filter>
<filter id="filter14_d_749_7" x="60.4295" y="18.7654" width="25.4262" height="26.5457" filterUnits="userSpaceOnUse" color-interpolation-filters="sRGB">
<feFlood flood-opacity="0" result="BackgroundImageFix"/>
<feColorMatrix in="SourceAlpha" type="matrix" values="0 0 0 0 0 0 0 0 0 0 0 0 0 0 0 0 0 0 127 0" result="hardAlpha"/>
<feOffset dy="5"/>
<feGaussianBlur stdDeviation="2.65"/>
<feComposite in2="hardAlpha" operator="out"/>
<feColorMatrix type="matrix" values="0 0 0 0 0 0 0 0 0 0 0 0 0 0 0 0 0 0 0.25 0"/>
<feBlend mode="normal" in2="BackgroundImageFix" result="effect1_dropShadow_749_7"/>
<feBlend mode="normal" in="SourceGraphic" in2="effect1_dropShadow_749_7" result="shape"/>
</filter>
<filter id="filter15_d_749_7" x="53.032" y="12.5379" width="17.6918" height="32.5054" filterUnits="userSpaceOnUse" color-interpolation-filters="sRGB">
<feFlood flood-opacity="0" result="BackgroundImageFix"/>
<feColorMatrix in="SourceAlpha" type="matrix" values="0 0 0 0 0 0 0 0 0 0 0 0 0 0 0 0 0 0 127 0" result="hardAlpha"/>
<feOffset dy="5"/>
<feGaussianBlur stdDeviation="2.65"/>
<feComposite in2="hardAlpha" operator="out"/>
<feColorMatrix type="matrix" values="0 0 0 0 0 0 0 0 0 0 0 0 0 0 0 0 0 0 0.25 0"/>
<feBlend mode="normal" in2="BackgroundImageFix" result="effect1_dropShadow_749_7"/>
<feBlend mode="normal" in="SourceGraphic" in2="effect1_dropShadow_749_7" result="shape"/>
</filter>
<filter id="filter16_d_749_7" x="37.5418" y="19.2273" width="24.4047" height="26.0349" filterUnits="userSpaceOnUse" color-interpolation-filters="sRGB">
<feFlood flood-opacity="0" result="BackgroundImageFix"/>
<feColorMatrix in="SourceAlpha" type="matrix" values="0 0 0 0 0 0 0 0 0 0 0 0 0 0 0 0 0 0 127 0" result="hardAlpha"/>
<feOffset dy="5"/>
<feGaussianBlur stdDeviation="2.65"/>
<feComposite in2="hardAlpha" operator="out"/>
<feColorMatrix type="matrix" values="0 0 0 0 0 0 0 0 0 0 0 0 0 0 0 0 0 0 0.25 0"/>
<feBlend mode="normal" in2="BackgroundImageFix" result="effect1_dropShadow_749_7"/>
<feBlend mode="normal" in="SourceGraphic" in2="effect1_dropShadow_749_7" result="shape"/>
</filter>
<filter id="filter17_d_749_7" x="21.5428" y="18.9356" width="25.5727" height="26.351" filterUnits="userSpaceOnUse" color-interpolation-filters="sRGB">
<feFlood flood-opacity="0" result="BackgroundImageFix"/>
<feColorMatrix in="SourceAlpha" type="matrix" values="0 0 0 0 0 0 0 0 0 0 0 0 0 0 0 0 0 0 127 0" result="hardAlpha"/>
<feOffset dy="5"/>
<feGaussianBlur stdDeviation="2.65"/>
<feComposite in2="hardAlpha" operator="out"/>
<feColorMatrix type="matrix" values="0 0 0 0 0 0 0 0 0 0 0 0 0 0 0 0 0 0 0.25 0"/>
<feBlend mode="normal" in2="BackgroundImageFix" result="effect1_dropShadow_749_7"/>
<feBlend mode="normal" in="SourceGraphic" in2="effect1_dropShadow_749_7" result="shape"/>
</filter>
<filter id="filter18_d_749_7" x="10.9158" y="18.8002" width="20.976" height="26.1703" filterUnits="userSpaceOnUse" color-interpolation-filters="sRGB">
<feFlood flood-opacity="0" result="BackgroundImageFix"/>
<feColorMatrix in="SourceAlpha" type="matrix" values="0 0 0 0 0 0 0 0 0 0 0 0 0 0 0 0 0 0 127 0" result="hardAlpha"/>
<feOffset dy="5"/>
<feGaussianBlur stdDeviation="2.65"/>
<feComposite in2="hardAlpha" operator="out"/>
<feColorMatrix type="matrix" values="0 0 0 0 0 0 0 0 0 0 0 0 0 0 0 0 0 0 0.25 0"/>
<feBlend mode="normal" in2="BackgroundImageFix" result="effect1_dropShadow_749_7"/>
<feBlend mode="normal" in="SourceGraphic" in2="effect1_dropShadow_749_7" result="shape"/>
</filter>
<linearGradient id="paint0_linear_749_7" x1="112.726" y1="34.3333" x2="119.676" y2="8.39705" gradientUnits="userSpaceOnUse">
<stop offset="0.427885" stop-color="#7D0505"/>
<stop offset="1" stop-color="#DAE6A3"/>
</linearGradient>
<linearGradient id="paint1_linear_749_7" x1="113.501" y1="31.1649" x2="119.245" y2="13.9352" gradientUnits="userSpaceOnUse">
<stop offset="0.697115" stop-color="#7D0505"/>
<stop offset="1" stop-color="#DAE6A3"/>
</linearGradient>
<linearGradient id="paint2_linear_749_7" x1="11.651" y1="7.20172" x2="37.3597" y2="43.2927" gradientUnits="userSpaceOnUse">
<stop stop-color="#800505"/>
<stop offset="1" stop-color="#E9FF5D"/>
</linearGradient>
<linearGradient id="paint3_linear_749_7" x1="172.516" y1="39.5421" x2="172.516" y2="9.72125" gradientUnits="userSpaceOnUse">
<stop stop-color="#1CC8A9"/>
<stop offset="0.461538" stop-color="#E9D763"/>
<stop offset="0.975962" stop-color="white"/>
</linearGradient>
<linearGradient id="paint4_linear_749_7" x1="130.659" y1="40.2169" x2="130.659" y2="4.58093" gradientUnits="userSpaceOnUse">
<stop stop-color="#1CC8A9"/>
<stop offset="0.461538" stop-color="#E9D763"/>
<stop offset="0.975962" stop-color="white"/>
</linearGradient>
<linearGradient id="paint5_linear_749_7" x1="121.086" y1="40.2169" x2="121.086" y2="4.58093" gradientUnits="userSpaceOnUse">
<stop stop-color="#1CC8A9"/>
<stop offset="0.461538" stop-color="#E9D763"/>
<stop offset="0.975962" stop-color="white"/>
</linearGradient>
<linearGradient id="paint6_linear_749_7" x1="138.428" y1="39.5421" x2="138.428" y2="9.72125" gradientUnits="userSpaceOnUse">
<stop stop-color="#1CC8A9"/>
<stop offset="0.461538" stop-color="#E9D763"/>
<stop offset="0.975962" stop-color="white"/>
</linearGradient>
<linearGradient id="paint7_linear_749_7" x1="89.6888" y1="41.4006" x2="89.6888" y2="-0.597088" gradientUnits="userSpaceOnUse">
<stop stop-color="#1CC8A9"/>
<stop offset="0.461538" stop-color="#E9D763"/>
<stop offset="0.975962" stop-color="white"/>
</linearGradient>
<linearGradient id="paint8_linear_749_7" x1="110.08" y1="39.3114" x2="110.08" y2="10.5342" gradientUnits="userSpaceOnUse">
<stop stop-color="#1CC8A9"/>
<stop offset="0.461538" stop-color="#E9D763"/>
<stop offset="0.975962" stop-color="white"/>
</linearGradient>
<linearGradient id="paint9_linear_749_7" x1="100.321" y1="39.4484" x2="100.321" y2="10.0251" gradientUnits="userSpaceOnUse">
<stop stop-color="#1CC8A9"/>
<stop offset="0.461538" stop-color="#E9D763"/>
<stop offset="0.975962" stop-color="white"/>
</linearGradient>
<linearGradient id="paint10_linear_749_7" x1="65.1232" y1="39.0677" x2="65.1232" y2="10.0137" gradientUnits="userSpaceOnUse">
<stop stop-color="#1CC8A9"/>
<stop offset="0.461538" stop-color="#E9D763"/>
<stop offset="0.975962" stop-color="white"/>
</linearGradient>
<linearGradient id="paint11_linear_749_7" x1="107.231" y1="19.0654" x2="107.231" y2="35.0111" gradientUnits="userSpaceOnUse">
<stop stop-color="#D86464"/>
<stop offset="0.519231" stop-color="#DAFF9F"/>
<stop offset="0.942308" stop-color="white"/>
</linearGradient>
<linearGradient id="paint12_linear_749_7" x1="95.188" y1="15.8784" x2="95.188" y2="34.6706" gradientUnits="userSpaceOnUse">
<stop stop-color="#D86464"/>
<stop offset="0.519231" stop-color="#DAFF9F"/>
<stop offset="0.942308" stop-color="white"/>
</linearGradient>
<linearGradient id="paint13_linear_749_7" x1="85.6158" y1="15.8784" x2="85.6158" y2="34.6706" gradientUnits="userSpaceOnUse">
<stop stop-color="#D86464"/>
<stop offset="0.519231" stop-color="#DAFF9F"/>
<stop offset="0.942308" stop-color="white"/>
</linearGradient>
<linearGradient id="paint14_linear_749_7" x1="73.1428" y1="19.0654" x2="73.1428" y2="35.0111" gradientUnits="userSpaceOnUse">
<stop stop-color="#D86464"/>
<stop offset="0.519231" stop-color="#DAFF9F"/>
<stop offset="0.942308" stop-color="white"/>
</linearGradient>
<linearGradient id="paint15_linear_749_7" x1="61.878" y1="12.8379" x2="61.878" y2="34.7432" gradientUnits="userSpaceOnUse">
<stop stop-color="#D86464"/>
<stop offset="0.519231" stop-color="#DAFF9F"/>
<stop offset="0.942308" stop-color="white"/>
</linearGradient>
<linearGradient id="paint16_linear_749_7" x1="49.7444" y1="19.5273" x2="49.7444" y2="34.9623" gradientUnits="userSpaceOnUse">
<stop stop-color="#D86464"/>
<stop offset="0.519231" stop-color="#DAFF9F"/>
<stop offset="0.942308" stop-color="white"/>
</linearGradient>
<linearGradient id="paint17_linear_749_7" x1="34.3293" y1="19.2356" x2="34.3293" y2="34.9866" gradientUnits="userSpaceOnUse">
<stop stop-color="#D86464"/>
<stop offset="0.519231" stop-color="#DAFF9F"/>
<stop offset="0.942308" stop-color="white"/>
</linearGradient>
<linearGradient id="paint18_linear_749_7" x1="21.4038" y1="19.1002" x2="21.4038" y2="34.6706" gradientUnits="userSpaceOnUse">
<stop stop-color="#D86464"/>
<stop offset="0.519231" stop-color="#DAFF9F"/>
<stop offset="0.942308" stop-color="white"/>
</linearGradient>
</defs>
</svg>
